<svg width="251" height="65" viewBox="0 0 251 65" fill="none" xmlns="http://www.w3.org/2000/svg">
<mask id="path-1-outside-1" maskUnits="userSpaceOnUse" x="0.268799" y="0.32" width="251" height="65" fill="black">
<rect fill="white" x="0.268799" y="0.32" width="251" height="65"/>
<path d="M28.5088 31.44C28.8075 31.0133 29.2341 30.2667 29.7888 29.2C31.1541 26.768 31.9648 25.552 32.2208 25.552C32.5195 25.552 32.6688 25.7227 32.6688 26.064C32.6688 28.1547 31.5808 30.8 29.4048 34C25.4795 39.76 20.2528 42.64 13.7248 42.64C11.8901 42.64 10.2048 42.2133 8.6688 41.36C7.1328 40.5067 5.9168 39.4187 5.0208 38.096C3.18613 35.408 2.2688 32.592 2.2688 29.648C2.2688 22.224 4.1888 16.2507 8.0288 11.728C11.9115 7.16266 16.4981 4.88 21.7888 4.88C23.7941 4.88 25.4368 5.47733 26.7168 6.672C27.9968 7.824 28.6368 9.296 28.6368 11.088C28.6368 12.88 28.1888 14.544 27.2928 16.08C26.3968 17.616 25.3088 18.384 24.0288 18.384C22.7915 18.384 22.1728 18.0427 22.1728 17.36C22.1728 16.592 22.5781 15.7173 23.3888 14.736C24.2421 13.7547 24.6688 12.7733 24.6688 11.792C24.6688 8.76266 23.0475 7.248 19.8048 7.248C16.6048 7.248 13.7035 9.40266 11.1008 13.712C8.49813 18.0213 7.1968 22.4587 7.1968 27.024C7.1968 30.1813 8.0928 32.9973 9.8848 35.472C11.6768 37.904 14.1941 39.12 17.4368 39.12C21.2768 39.12 24.9675 36.56 28.5088 31.44Z"/>
<path d="M49.3158 28.112C51.0225 27.5573 52.1958 27.088 52.8358 26.704C53.5185 26.2773 54.0305 25.9573 54.3718 25.744L55.1398 25.296C55.3531 25.168 55.5238 25.104 55.6518 25.104C55.9931 25.104 56.1638 25.296 56.1638 25.68C56.1638 26.064 55.5025 26.7467 54.1798 27.728C52.8571 28.6667 51.2145 29.52 49.2518 30.288C48.9531 33.872 47.8225 36.7733 45.8598 38.992C43.8971 41.2107 41.1025 42.32 37.4758 42.32C34.8305 42.32 32.8038 41.2747 31.3958 39.184C29.9878 37.0507 29.2838 34.576 29.2838 31.76C29.2838 28.9013 30.1158 26.2133 31.7798 23.696C33.4865 21.1787 35.6625 19.92 38.3078 19.92C39.5025 19.0667 40.9105 18.64 42.5318 18.64C44.1958 18.64 45.7318 19.5147 47.1398 21.264C48.5478 23.0133 49.2731 25.296 49.3158 28.112ZM45.1558 31.376L42.8518 31.504C40.8891 31.504 39.2251 30.928 37.8598 29.776C36.4945 28.5813 35.8118 27.28 35.8118 25.872C35.8118 24.464 36.0465 23.248 36.5158 22.224C34.6811 23.6747 33.7638 26.5333 33.7638 30.8C33.7638 32.848 34.1905 34.8107 35.0438 36.688C35.8971 38.5227 37.2411 39.44 39.0758 39.44C40.9105 39.44 42.3398 38.672 43.3638 37.136C44.3878 35.5573 44.9851 33.6373 45.1558 31.376ZM41.1878 20.752C40.5051 20.752 39.9718 21.072 39.5878 21.712C39.2038 22.3093 39.0118 22.9707 39.0118 23.696C39.0118 25.2747 39.5451 26.5547 40.6118 27.536C41.7211 28.5173 43.0011 29.008 44.4518 29.008H45.2198C45.1345 26.9173 44.7718 25.0187 44.1318 23.312C43.5345 21.6053 42.5531 20.752 41.1878 20.752Z"/>
<path d="M71.4763 42.32C70.0256 42.32 68.895 42 68.0843 41.36C67.743 41.0187 67.5723 40.1227 67.5723 38.672C67.5723 37.2213 67.6363 35.3227 67.7643 32.976C66.6123 36.048 65.439 38.3733 64.2443 39.952C63.0496 41.5307 61.535 42.32 59.7003 42.32C57.9083 42.32 56.3723 41.5307 55.0923 39.952C53.855 38.3733 53.2363 35.856 53.2363 32.4C53.2363 28.944 54.1963 25.8933 56.1163 23.248C58.079 20.6027 60.639 19.28 63.7963 19.28C65.3323 19.28 66.9323 19.8773 68.5963 21.072C69.279 12.752 69.8976 8.05866 70.4523 6.992C70.7083 6.52266 71.3056 5.84 72.2443 4.944C73.2256 4.048 74.0363 3.6 74.6763 3.6C75.3163 3.6 75.6363 4.60266 75.6363 6.608C75.6363 8.95466 75.423 10.9813 74.9963 12.688C73.8443 17.0827 73.119 19.8773 72.8203 21.072C72.223 25.68 71.9243 31.0987 71.9243 37.328C71.9243 38.48 72.0523 39.056 72.3083 39.056C73.0763 39.0133 74.1003 38.1173 75.3803 36.368C76.6603 34.6187 77.919 32.3573 79.1563 29.584C80.4363 26.768 81.2043 25.36 81.4603 25.36C81.759 25.36 81.9083 25.5307 81.9083 25.872C81.9083 27.0667 81.2896 28.9653 80.0523 31.568C76.6816 38.736 73.823 42.32 71.4763 42.32ZM63.4123 21.584C62.2603 21.584 61.1083 22.5013 59.9563 24.336C58.8043 26.1707 58.2283 28.304 58.2283 30.736C58.2283 33.1253 58.527 35.088 59.1243 36.624C59.7643 38.16 60.5536 38.928 61.4923 38.928C63.4123 38.928 65.6096 35.088 68.0843 27.408C68.2976 25.0613 68.4043 23.6747 68.4043 23.248C67.167 22.1387 65.503 21.584 63.4123 21.584Z"/>
<path d="M81.4318 10.704C81.4318 9.936 81.8371 9.27466 82.6478 8.72C83.4585 8.16533 84.1838 7.888 84.8238 7.888C85.9758 7.888 86.5518 8.54933 86.5518 9.872C86.5518 11.1947 86.2105 12.3467 85.5278 13.328C84.8451 14.2667 83.8851 14.736 82.6478 14.736C81.8371 14.736 81.4318 13.392 81.4318 10.704ZM83.2878 42.32C81.6238 42.32 80.3651 41.9787 79.5118 41.296C79.2131 40.9973 79.0638 39.9307 79.0638 38.096C79.0638 36.2613 79.1918 33.2107 79.4478 28.944C79.7465 24.6347 80.0025 22.3093 80.2158 21.968C80.4291 21.6267 81.0905 20.9867 82.1998 20.048C83.3091 19.1093 84.1625 18.64 84.7598 18.64C85.3998 18.64 85.7198 19.4507 85.7198 21.072C85.7198 21.4987 85.5918 22.3307 85.3358 23.568C85.1225 24.8053 84.8665 25.7013 84.5678 26.256C84.0131 27.664 83.7358 31.3547 83.7358 37.328C83.7358 38.48 83.8638 39.056 84.1198 39.056C84.8451 39.0133 85.8478 38.1173 87.1278 36.368C88.4078 34.576 89.6665 32.2933 90.9038 29.52C92.1838 26.7467 92.9518 25.36 93.2078 25.36C93.5065 25.36 93.6558 25.5307 93.6558 25.872C93.6558 27.0667 93.0371 28.9653 91.7998 31.568C88.4291 38.736 85.5918 42.32 83.2878 42.32Z"/>
<path d="M95.8833 38.544L95.9473 40.528C95.9473 41.7227 95.606 42.32 94.9233 42.32C93.8993 42.32 92.918 42.192 91.9793 41.936C91.0406 41.6373 90.5713 41.2533 90.5713 40.784C90.5713 40.272 90.678 38.5867 90.8913 35.728C91.1473 32.8267 91.2753 30.6507 91.2753 29.2V25.424C91.2753 23.376 91.4886 22.1387 91.9153 21.712C92.342 21.2853 93.0886 20.6667 94.1553 19.856C95.2646 19.0453 96.054 18.64 96.5233 18.64C97.0353 18.64 97.3553 18.7253 97.4833 18.896C97.6113 19.0667 97.6753 19.3867 97.6753 19.856C97.6753 22.1173 97.2486 24.2507 96.3953 26.256C96.182 28.688 96.0753 30.3733 96.0753 31.312C96.246 31.056 97.142 29.6053 98.7633 26.96C100.385 24.3147 101.75 22.3733 102.859 21.136C104.011 19.8987 105.035 19.28 105.931 19.28C106.827 19.28 107.617 19.5787 108.299 20.176C109.025 20.7733 109.387 21.52 109.387 22.416C109.387 24.2933 109.174 27.0667 108.747 30.736C108.363 34.3627 108.171 36.6667 108.171 37.648C108.171 38.5867 108.299 39.056 108.555 39.056C109.281 39.0133 110.283 38.1173 111.563 36.368C112.843 34.576 114.102 32.2933 115.339 29.52C116.619 26.7467 117.387 25.36 117.643 25.36C117.942 25.36 118.091 25.5307 118.091 25.872C118.091 27.0667 117.473 28.9653 116.235 31.568C112.865 38.736 110.027 42.32 107.723 42.32C106.059 42.32 104.801 41.9787 103.947 41.296C103.649 40.9973 103.499 40.2293 103.499 38.992C103.499 37.712 103.606 35.664 103.819 32.848C104.075 29.9893 104.203 27.856 104.203 26.448C104.203 25.04 103.947 24.336 103.435 24.336C102.966 24.336 101.686 25.808 99.5953 28.752C97.5046 31.6533 96.3953 33.5093 96.2673 34.32C96.0113 35.8133 95.8833 37.2213 95.8833 38.544Z"/>
<path d="M129.937 32.208C128.615 35.7067 127.377 38.2667 126.225 39.888C125.116 41.5093 123.644 42.32 121.809 42.32C119.975 42.32 118.417 41.5307 117.137 39.952C115.9 38.3733 115.281 35.856 115.281 32.4C115.281 28.944 116.241 25.8933 118.161 23.248C120.124 20.6027 122.684 19.28 125.841 19.28C126.481 19.28 127.249 19.5573 128.145 20.112C129.041 20.624 129.831 21.264 130.513 22.032C130.641 21.6053 131.26 20.944 132.369 20.048C133.479 19.1093 134.332 18.64 134.929 18.64C135.569 18.64 135.889 19.5573 135.889 21.392C135.889 23.2267 135.505 24.848 134.737 26.256C134.311 29.1147 134.076 31.76 134.033 34.192C138.215 28.9013 140.433 26.1067 140.689 25.808C140.988 25.5093 141.244 25.36 141.457 25.36C141.884 25.36 142.097 25.5733 142.097 26C142.097 26.256 142.012 26.5333 141.841 26.832C140.476 28.8373 137.788 32.3573 133.777 37.392C133.521 42.4693 133.351 45.9253 133.265 47.76C133.052 53.1787 132.284 56.976 130.961 59.152C129.681 61.3707 127.377 62.48 124.049 62.48C122.599 62.48 121.233 62.032 119.953 61.136C118.716 60.2827 118.097 58.768 118.097 56.592C118.097 54.4587 118.908 52.2613 120.529 50C122.193 47.7387 125.201 44.2613 129.553 39.568L129.937 32.208ZM125.457 21.584C124.263 21.584 122.983 22.5227 121.617 24.4C120.295 26.2347 119.633 28.368 119.633 30.8C119.633 33.1893 119.975 35.152 120.657 36.688C121.383 38.1813 122.279 38.928 123.345 38.928C124.412 38.928 125.436 38.0533 126.417 36.304C127.399 34.5547 128.657 31.5467 130.193 27.28C130.279 25.8293 130.321 24.912 130.321 24.528C129.98 23.888 129.276 23.248 128.209 22.608C127.143 21.9253 126.225 21.584 125.457 21.584ZM129.361 42.576C124.497 47.824 122.065 52.0267 122.065 55.184C122.065 56.6347 122.321 57.8293 122.833 58.768C123.345 59.7067 124.049 60.176 124.945 60.176C126.311 60.176 127.271 59.4293 127.825 57.936C128.38 56.4427 128.785 53.4133 129.041 48.848L129.361 42.576Z"/>
<path d="M169.444 40.336C171.748 40.336 173.774 39.5253 175.524 37.904C177.316 36.2827 178.212 34.4267 178.212 32.336C178.212 30.2027 177.55 28.24 176.228 26.448C174.777 27.1733 173.348 27.536 171.94 27.536C168.654 27.536 167.012 26.512 167.012 24.464C167.012 23.8667 167.417 23.3333 168.228 22.864C169.038 22.352 170.19 22.096 171.684 22.096C173.22 22.096 174.884 22.544 176.676 23.44C178.382 21.6053 179.236 19.536 179.236 17.232C179.236 14.3733 177.977 12.112 175.46 10.448C172.985 8.74133 170.318 7.888 167.46 7.888C166.862 7.888 166.414 7.90933 166.116 7.952C166.073 9.18933 165.966 11.1733 165.796 13.904C165.54 18 165.412 24.2507 165.412 32.656C165.412 35.8987 165.177 37.52 164.708 37.52C162.873 37.52 161.7 37.264 161.188 36.752C160.676 36.24 160.42 34.768 160.42 32.336C160.42 31.7387 160.526 29.2853 160.74 24.976C160.996 20.6667 161.124 17.1893 161.124 14.544C161.124 11.8987 161.209 9.95733 161.38 8.72C159.118 9.488 157.902 10.7253 157.732 12.432C157.561 13.84 157.241 14.8213 156.772 15.376C156.345 15.9307 155.748 16.208 154.98 16.208C154.254 16.208 153.764 16.016 153.508 15.632C153.252 15.2053 153.124 14.7787 153.124 14.352C153.124 10.64 156.004 8.08 161.764 6.672C162.489 3.77067 163.641 2.32 165.22 2.32C165.86 2.32 166.18 3.51467 166.18 5.904C167.289 5.776 168.654 5.712 170.276 5.712C171.94 5.712 173.838 6.032 175.972 6.672C178.105 7.26933 179.961 8.35733 181.54 9.936C183.118 11.472 183.908 13.2 183.908 15.12C183.908 18.704 182.18 21.9253 178.724 24.784C181.113 26.6613 182.308 28.9013 182.308 31.504C182.308 34.1067 181.497 36.2613 179.876 37.968C176.846 41.0827 172.793 42.64 167.716 42.64C164.26 42.64 161.785 42.4053 160.292 41.936C159.993 41.8507 159.673 41.6373 159.332 41.296C159.033 40.912 158.884 40.4427 158.884 39.888C158.884 38.992 159.758 38.544 161.508 38.544C162.062 38.544 163.278 38.8427 165.156 39.44C167.033 40.0373 168.462 40.336 169.444 40.336ZM174.884 25.04C173.604 23.9733 172.388 23.44 171.236 23.44C170.126 23.44 169.572 23.6747 169.572 24.144C169.572 25.1253 170.617 25.616 172.708 25.616C173.476 25.616 174.201 25.424 174.884 25.04Z"/>
<path d="M190.811 42.32C189.872 42.32 188.997 42.2133 188.187 42C187.419 41.744 186.949 41.5093 186.779 41.296C186.352 40.784 186.139 38.1387 186.139 33.36C186.139 28.5387 186.672 22.0107 187.739 13.776C188.635 6.992 190.725 3.6 194.011 3.6C194.779 3.6 195.333 4.02666 195.675 4.88C196.016 5.69066 196.187 6.48 196.187 7.248C196.187 12.7947 194.501 19.0027 191.131 25.872C191.003 29.4133 190.939 32.5067 190.939 35.152C190.939 37.7547 191.173 39.056 191.643 39.056C192.368 39.0133 193.371 38.1173 194.651 36.368C195.931 34.576 197.189 32.2933 198.427 29.52C199.707 26.7467 200.475 25.36 200.731 25.36C201.029 25.36 201.179 25.5307 201.179 25.872C201.179 27.0667 200.56 28.9653 199.323 31.568C195.952 38.736 193.115 42.32 190.811 42.32ZM194.587 7.824C194.587 6.45866 194.416 5.776 194.075 5.776C192.795 5.776 191.856 11.088 191.259 21.712C193.477 15.8667 194.587 11.2373 194.587 7.824Z"/>
<path d="M217.998 28.112C219.705 27.5573 220.878 27.088 221.518 26.704C222.201 26.2773 222.713 25.9573 223.054 25.744L223.822 25.296C224.036 25.168 224.206 25.104 224.334 25.104C224.676 25.104 224.846 25.296 224.846 25.68C224.846 26.064 224.185 26.7467 222.862 27.728C221.54 28.6667 219.897 29.52 217.934 30.288C217.636 33.872 216.505 36.7733 214.542 38.992C212.58 41.2107 209.785 42.32 206.158 42.32C203.513 42.32 201.486 41.2747 200.078 39.184C198.67 37.0507 197.966 34.576 197.966 31.76C197.966 28.9013 198.798 26.2133 200.462 23.696C202.169 21.1787 204.345 19.92 206.99 19.92C208.185 19.0667 209.593 18.64 211.214 18.64C212.878 18.64 214.414 19.5147 215.822 21.264C217.23 23.0133 217.956 25.296 217.998 28.112ZM213.838 31.376L211.534 31.504C209.572 31.504 207.908 30.928 206.542 29.776C205.177 28.5813 204.494 27.28 204.494 25.872C204.494 24.464 204.729 23.248 205.198 22.224C203.364 23.6747 202.446 26.5333 202.446 30.8C202.446 32.848 202.873 34.8107 203.726 36.688C204.58 38.5227 205.924 39.44 207.758 39.44C209.593 39.44 211.022 38.672 212.046 37.136C213.07 35.5573 213.668 33.6373 213.838 31.376ZM209.87 20.752C209.188 20.752 208.654 21.072 208.27 21.712C207.886 22.3093 207.694 22.9707 207.694 23.696C207.694 25.2747 208.228 26.5547 209.294 27.536C210.404 28.5173 211.684 29.008 213.134 29.008H213.902C213.817 26.9173 213.454 25.0187 212.814 23.312C212.217 21.6053 211.236 20.752 209.87 20.752Z"/>
<path d="M236.575 32.208C235.252 35.7067 234.015 38.2667 232.863 39.888C231.753 41.5093 230.281 42.32 228.447 42.32C226.612 42.32 225.055 41.5307 223.775 39.952C222.537 38.3733 221.919 35.856 221.919 32.4C221.919 28.944 222.879 25.8933 224.799 23.248C226.761 20.6027 229.321 19.28 232.479 19.28C233.119 19.28 233.887 19.5573 234.783 20.112C235.679 20.624 236.468 21.264 237.151 22.032C237.279 21.6053 237.897 20.944 239.007 20.048C240.116 19.1093 240.969 18.64 241.567 18.64C242.207 18.64 242.527 19.5573 242.527 21.392C242.527 23.2267 242.143 24.848 241.375 26.256C240.948 29.1147 240.713 31.76 240.671 34.192C244.852 28.9013 247.071 26.1067 247.327 25.808C247.625 25.5093 247.881 25.36 248.095 25.36C248.521 25.36 248.735 25.5733 248.735 26C248.735 26.256 248.649 26.5333 248.479 26.832C247.113 28.8373 244.425 32.3573 240.415 37.392C240.159 42.4693 239.988 45.9253 239.903 47.76C239.689 53.1787 238.921 56.976 237.599 59.152C236.319 61.3707 234.015 62.48 230.687 62.48C229.236 62.48 227.871 62.032 226.591 61.136C225.353 60.2827 224.735 58.768 224.735 56.592C224.735 54.4587 225.545 52.2613 227.167 50C228.831 47.7387 231.839 44.2613 236.191 39.568L236.575 32.208ZM232.095 21.584C230.9 21.584 229.62 22.5227 228.255 24.4C226.932 26.2347 226.271 28.368 226.271 30.8C226.271 33.1893 226.612 35.152 227.295 36.688C228.02 38.1813 228.916 38.928 229.983 38.928C231.049 38.928 232.073 38.0533 233.055 36.304C234.036 34.5547 235.295 31.5467 236.831 27.28C236.916 25.8293 236.959 24.912 236.959 24.528C236.617 23.888 235.913 23.248 234.847 22.608C233.78 21.9253 232.863 21.584 232.095 21.584ZM235.999 42.576C231.135 47.824 228.703 52.0267 228.703 55.184C228.703 56.6347 228.959 57.8293 229.471 58.768C229.983 59.7067 230.687 60.176 231.583 60.176C232.948 60.176 233.908 59.4293 234.463 57.936C235.017 56.4427 235.423 53.4133 235.679 48.848L235.999 42.576Z"/>
</mask>
<path d="M28.5088 31.44C28.8075 31.0133 29.2341 30.2667 29.7888 29.2C31.1541 26.768 31.9648 25.552 32.2208 25.552C32.5195 25.552 32.6688 25.7227 32.6688 26.064C32.6688 28.1547 31.5808 30.8 29.4048 34C25.4795 39.76 20.2528 42.64 13.7248 42.64C11.8901 42.64 10.2048 42.2133 8.6688 41.36C7.1328 40.5067 5.9168 39.4187 5.0208 38.096C3.18613 35.408 2.2688 32.592 2.2688 29.648C2.2688 22.224 4.1888 16.2507 8.0288 11.728C11.9115 7.16266 16.4981 4.88 21.7888 4.88C23.7941 4.88 25.4368 5.47733 26.7168 6.672C27.9968 7.824 28.6368 9.296 28.6368 11.088C28.6368 12.88 28.1888 14.544 27.2928 16.08C26.3968 17.616 25.3088 18.384 24.0288 18.384C22.7915 18.384 22.1728 18.0427 22.1728 17.36C22.1728 16.592 22.5781 15.7173 23.3888 14.736C24.2421 13.7547 24.6688 12.7733 24.6688 11.792C24.6688 8.76266 23.0475 7.248 19.8048 7.248C16.6048 7.248 13.7035 9.40266 11.1008 13.712C8.49813 18.0213 7.1968 22.4587 7.1968 27.024C7.1968 30.1813 8.0928 32.9973 9.8848 35.472C11.6768 37.904 14.1941 39.12 17.4368 39.12C21.2768 39.12 24.9675 36.56 28.5088 31.44Z" fill="url(#paint0_linear)"/>
<path d="M49.3158 28.112C51.0225 27.5573 52.1958 27.088 52.8358 26.704C53.5185 26.2773 54.0305 25.9573 54.3718 25.744L55.1398 25.296C55.3531 25.168 55.5238 25.104 55.6518 25.104C55.9931 25.104 56.1638 25.296 56.1638 25.68C56.1638 26.064 55.5025 26.7467 54.1798 27.728C52.8571 28.6667 51.2145 29.52 49.2518 30.288C48.9531 33.872 47.8225 36.7733 45.8598 38.992C43.8971 41.2107 41.1025 42.32 37.4758 42.32C34.8305 42.32 32.8038 41.2747 31.3958 39.184C29.9878 37.0507 29.2838 34.576 29.2838 31.76C29.2838 28.9013 30.1158 26.2133 31.7798 23.696C33.4865 21.1787 35.6625 19.92 38.3078 19.92C39.5025 19.0667 40.9105 18.64 42.5318 18.64C44.1958 18.64 45.7318 19.5147 47.1398 21.264C48.5478 23.0133 49.2731 25.296 49.3158 28.112ZM45.1558 31.376L42.8518 31.504C40.8891 31.504 39.2251 30.928 37.8598 29.776C36.4945 28.5813 35.8118 27.28 35.8118 25.872C35.8118 24.464 36.0465 23.248 36.5158 22.224C34.6811 23.6747 33.7638 26.5333 33.7638 30.8C33.7638 32.848 34.1905 34.8107 35.0438 36.688C35.8971 38.5227 37.2411 39.44 39.0758 39.44C40.9105 39.44 42.3398 38.672 43.3638 37.136C44.3878 35.5573 44.9851 33.6373 45.1558 31.376ZM41.1878 20.752C40.5051 20.752 39.9718 21.072 39.5878 21.712C39.2038 22.3093 39.0118 22.9707 39.0118 23.696C39.0118 25.2747 39.5451 26.5547 40.6118 27.536C41.7211 28.5173 43.0011 29.008 44.4518 29.008H45.2198C45.1345 26.9173 44.7718 25.0187 44.1318 23.312C43.5345 21.6053 42.5531 20.752 41.1878 20.752Z" fill="url(#paint1_linear)"/>
<path d="M71.4763 42.32C70.0256 42.32 68.895 42 68.0843 41.36C67.743 41.0187 67.5723 40.1227 67.5723 38.672C67.5723 37.2213 67.6363 35.3227 67.7643 32.976C66.6123 36.048 65.439 38.3733 64.2443 39.952C63.0496 41.5307 61.535 42.32 59.7003 42.32C57.9083 42.32 56.3723 41.5307 55.0923 39.952C53.855 38.3733 53.2363 35.856 53.2363 32.4C53.2363 28.944 54.1963 25.8933 56.1163 23.248C58.079 20.6027 60.639 19.28 63.7963 19.28C65.3323 19.28 66.9323 19.8773 68.5963 21.072C69.279 12.752 69.8976 8.05866 70.4523 6.992C70.7083 6.52266 71.3056 5.84 72.2443 4.944C73.2256 4.048 74.0363 3.6 74.6763 3.6C75.3163 3.6 75.6363 4.60266 75.6363 6.608C75.6363 8.95466 75.423 10.9813 74.9963 12.688C73.8443 17.0827 73.119 19.8773 72.8203 21.072C72.223 25.68 71.9243 31.0987 71.9243 37.328C71.9243 38.48 72.0523 39.056 72.3083 39.056C73.0763 39.0133 74.1003 38.1173 75.3803 36.368C76.6603 34.6187 77.919 32.3573 79.1563 29.584C80.4363 26.768 81.2043 25.36 81.4603 25.36C81.759 25.36 81.9083 25.5307 81.9083 25.872C81.9083 27.0667 81.2896 28.9653 80.0523 31.568C76.6816 38.736 73.823 42.32 71.4763 42.32ZM63.4123 21.584C62.2603 21.584 61.1083 22.5013 59.9563 24.336C58.8043 26.1707 58.2283 28.304 58.2283 30.736C58.2283 33.1253 58.527 35.088 59.1243 36.624C59.7643 38.16 60.5536 38.928 61.4923 38.928C63.4123 38.928 65.6096 35.088 68.0843 27.408C68.2976 25.0613 68.4043 23.6747 68.4043 23.248C67.167 22.1387 65.503 21.584 63.4123 21.584Z" fill="url(#paint2_linear)"/>
<path d="M81.4318 10.704C81.4318 9.936 81.8371 9.27466 82.6478 8.72C83.4585 8.16533 84.1838 7.888 84.8238 7.888C85.9758 7.888 86.5518 8.54933 86.5518 9.872C86.5518 11.1947 86.2105 12.3467 85.5278 13.328C84.8451 14.2667 83.8851 14.736 82.6478 14.736C81.8371 14.736 81.4318 13.392 81.4318 10.704ZM83.2878 42.32C81.6238 42.32 80.3651 41.9787 79.5118 41.296C79.2131 40.9973 79.0638 39.9307 79.0638 38.096C79.0638 36.2613 79.1918 33.2107 79.4478 28.944C79.7465 24.6347 80.0025 22.3093 80.2158 21.968C80.4291 21.6267 81.0905 20.9867 82.1998 20.048C83.3091 19.1093 84.1625 18.64 84.7598 18.64C85.3998 18.64 85.7198 19.4507 85.7198 21.072C85.7198 21.4987 85.5918 22.3307 85.3358 23.568C85.1225 24.8053 84.8665 25.7013 84.5678 26.256C84.0131 27.664 83.7358 31.3547 83.7358 37.328C83.7358 38.48 83.8638 39.056 84.1198 39.056C84.8451 39.0133 85.8478 38.1173 87.1278 36.368C88.4078 34.576 89.6665 32.2933 90.9038 29.52C92.1838 26.7467 92.9518 25.36 93.2078 25.36C93.5065 25.36 93.6558 25.5307 93.6558 25.872C93.6558 27.0667 93.0371 28.9653 91.7998 31.568C88.4291 38.736 85.5918 42.32 83.2878 42.32Z" fill="url(#paint3_linear)"/>
<path d="M95.8833 38.544L95.9473 40.528C95.9473 41.7227 95.606 42.32 94.9233 42.32C93.8993 42.32 92.918 42.192 91.9793 41.936C91.0406 41.6373 90.5713 41.2533 90.5713 40.784C90.5713 40.272 90.678 38.5867 90.8913 35.728C91.1473 32.8267 91.2753 30.6507 91.2753 29.2V25.424C91.2753 23.376 91.4886 22.1387 91.9153 21.712C92.342 21.2853 93.0886 20.6667 94.1553 19.856C95.2646 19.0453 96.054 18.64 96.5233 18.64C97.0353 18.64 97.3553 18.7253 97.4833 18.896C97.6113 19.0667 97.6753 19.3867 97.6753 19.856C97.6753 22.1173 97.2486 24.2507 96.3953 26.256C96.182 28.688 96.0753 30.3733 96.0753 31.312C96.246 31.056 97.142 29.6053 98.7633 26.96C100.385 24.3147 101.75 22.3733 102.859 21.136C104.011 19.8987 105.035 19.28 105.931 19.28C106.827 19.28 107.617 19.5787 108.299 20.176C109.025 20.7733 109.387 21.52 109.387 22.416C109.387 24.2933 109.174 27.0667 108.747 30.736C108.363 34.3627 108.171 36.6667 108.171 37.648C108.171 38.5867 108.299 39.056 108.555 39.056C109.281 39.0133 110.283 38.1173 111.563 36.368C112.843 34.576 114.102 32.2933 115.339 29.52C116.619 26.7467 117.387 25.36 117.643 25.36C117.942 25.36 118.091 25.5307 118.091 25.872C118.091 27.0667 117.473 28.9653 116.235 31.568C112.865 38.736 110.027 42.32 107.723 42.32C106.059 42.32 104.801 41.9787 103.947 41.296C103.649 40.9973 103.499 40.2293 103.499 38.992C103.499 37.712 103.606 35.664 103.819 32.848C104.075 29.9893 104.203 27.856 104.203 26.448C104.203 25.04 103.947 24.336 103.435 24.336C102.966 24.336 101.686 25.808 99.5953 28.752C97.5046 31.6533 96.3953 33.5093 96.2673 34.32C96.0113 35.8133 95.8833 37.2213 95.8833 38.544Z" fill="url(#paint4_linear)"/>
<path d="M129.937 32.208C128.615 35.7067 127.377 38.2667 126.225 39.888C125.116 41.5093 123.644 42.32 121.809 42.32C119.975 42.32 118.417 41.5307 117.137 39.952C115.9 38.3733 115.281 35.856 115.281 32.4C115.281 28.944 116.241 25.8933 118.161 23.248C120.124 20.6027 122.684 19.28 125.841 19.28C126.481 19.28 127.249 19.5573 128.145 20.112C129.041 20.624 129.831 21.264 130.513 22.032C130.641 21.6053 131.26 20.944 132.369 20.048C133.479 19.1093 134.332 18.64 134.929 18.64C135.569 18.64 135.889 19.5573 135.889 21.392C135.889 23.2267 135.505 24.848 134.737 26.256C134.311 29.1147 134.076 31.76 134.033 34.192C138.215 28.9013 140.433 26.1067 140.689 25.808C140.988 25.5093 141.244 25.36 141.457 25.36C141.884 25.36 142.097 25.5733 142.097 26C142.097 26.256 142.012 26.5333 141.841 26.832C140.476 28.8373 137.788 32.3573 133.777 37.392C133.521 42.4693 133.351 45.9253 133.265 47.76C133.052 53.1787 132.284 56.976 130.961 59.152C129.681 61.3707 127.377 62.48 124.049 62.48C122.599 62.48 121.233 62.032 119.953 61.136C118.716 60.2827 118.097 58.768 118.097 56.592C118.097 54.4587 118.908 52.2613 120.529 50C122.193 47.7387 125.201 44.2613 129.553 39.568L129.937 32.208ZM125.457 21.584C124.263 21.584 122.983 22.5227 121.617 24.4C120.295 26.2347 119.633 28.368 119.633 30.8C119.633 33.1893 119.975 35.152 120.657 36.688C121.383 38.1813 122.279 38.928 123.345 38.928C124.412 38.928 125.436 38.0533 126.417 36.304C127.399 34.5547 128.657 31.5467 130.193 27.28C130.279 25.8293 130.321 24.912 130.321 24.528C129.98 23.888 129.276 23.248 128.209 22.608C127.143 21.9253 126.225 21.584 125.457 21.584ZM129.361 42.576C124.497 47.824 122.065 52.0267 122.065 55.184C122.065 56.6347 122.321 57.8293 122.833 58.768C123.345 59.7067 124.049 60.176 124.945 60.176C126.311 60.176 127.271 59.4293 127.825 57.936C128.38 56.4427 128.785 53.4133 129.041 48.848L129.361 42.576Z" fill="url(#paint5_linear)"/>
<path d="M169.444 40.336C171.748 40.336 173.774 39.5253 175.524 37.904C177.316 36.2827 178.212 34.4267 178.212 32.336C178.212 30.2027 177.55 28.24 176.228 26.448C174.777 27.1733 173.348 27.536 171.94 27.536C168.654 27.536 167.012 26.512 167.012 24.464C167.012 23.8667 167.417 23.3333 168.228 22.864C169.038 22.352 170.19 22.096 171.684 22.096C173.22 22.096 174.884 22.544 176.676 23.44C178.382 21.6053 179.236 19.536 179.236 17.232C179.236 14.3733 177.977 12.112 175.46 10.448C172.985 8.74133 170.318 7.888 167.46 7.888C166.862 7.888 166.414 7.90933 166.116 7.952C166.073 9.18933 165.966 11.1733 165.796 13.904C165.54 18 165.412 24.2507 165.412 32.656C165.412 35.8987 165.177 37.52 164.708 37.52C162.873 37.52 161.7 37.264 161.188 36.752C160.676 36.24 160.42 34.768 160.42 32.336C160.42 31.7387 160.526 29.2853 160.74 24.976C160.996 20.6667 161.124 17.1893 161.124 14.544C161.124 11.8987 161.209 9.95733 161.38 8.72C159.118 9.488 157.902 10.7253 157.732 12.432C157.561 13.84 157.241 14.8213 156.772 15.376C156.345 15.9307 155.748 16.208 154.98 16.208C154.254 16.208 153.764 16.016 153.508 15.632C153.252 15.2053 153.124 14.7787 153.124 14.352C153.124 10.64 156.004 8.08 161.764 6.672C162.489 3.77067 163.641 2.32 165.22 2.32C165.86 2.32 166.18 3.51467 166.18 5.904C167.289 5.776 168.654 5.712 170.276 5.712C171.94 5.712 173.838 6.032 175.972 6.672C178.105 7.26933 179.961 8.35733 181.54 9.936C183.118 11.472 183.908 13.2 183.908 15.12C183.908 18.704 182.18 21.9253 178.724 24.784C181.113 26.6613 182.308 28.9013 182.308 31.504C182.308 34.1067 181.497 36.2613 179.876 37.968C176.846 41.0827 172.793 42.64 167.716 42.64C164.26 42.64 161.785 42.4053 160.292 41.936C159.993 41.8507 159.673 41.6373 159.332 41.296C159.033 40.912 158.884 40.4427 158.884 39.888C158.884 38.992 159.758 38.544 161.508 38.544C162.062 38.544 163.278 38.8427 165.156 39.44C167.033 40.0373 168.462 40.336 169.444 40.336ZM174.884 25.04C173.604 23.9733 172.388 23.44 171.236 23.44C170.126 23.44 169.572 23.6747 169.572 24.144C169.572 25.1253 170.617 25.616 172.708 25.616C173.476 25.616 174.201 25.424 174.884 25.04Z" fill="url(#paint6_linear)"/>
<path d="M190.811 42.32C189.872 42.32 188.997 42.2133 188.187 42C187.419 41.744 186.949 41.5093 186.779 41.296C186.352 40.784 186.139 38.1387 186.139 33.36C186.139 28.5387 186.672 22.0107 187.739 13.776C188.635 6.992 190.725 3.6 194.011 3.6C194.779 3.6 195.333 4.02666 195.675 4.88C196.016 5.69066 196.187 6.48 196.187 7.248C196.187 12.7947 194.501 19.0027 191.131 25.872C191.003 29.4133 190.939 32.5067 190.939 35.152C190.939 37.7547 191.173 39.056 191.643 39.056C192.368 39.0133 193.371 38.1173 194.651 36.368C195.931 34.576 197.189 32.2933 198.427 29.52C199.707 26.7467 200.475 25.36 200.731 25.36C201.029 25.36 201.179 25.5307 201.179 25.872C201.179 27.0667 200.56 28.9653 199.323 31.568C195.952 38.736 193.115 42.32 190.811 42.32ZM194.587 7.824C194.587 6.45866 194.416 5.776 194.075 5.776C192.795 5.776 191.856 11.088 191.259 21.712C193.477 15.8667 194.587 11.2373 194.587 7.824Z" fill="url(#paint7_linear)"/>
<path d="M217.998 28.112C219.705 27.5573 220.878 27.088 221.518 26.704C222.201 26.2773 222.713 25.9573 223.054 25.744L223.822 25.296C224.036 25.168 224.206 25.104 224.334 25.104C224.676 25.104 224.846 25.296 224.846 25.68C224.846 26.064 224.185 26.7467 222.862 27.728C221.54 28.6667 219.897 29.52 217.934 30.288C217.636 33.872 216.505 36.7733 214.542 38.992C212.58 41.2107 209.785 42.32 206.158 42.32C203.513 42.32 201.486 41.2747 200.078 39.184C198.67 37.0507 197.966 34.576 197.966 31.76C197.966 28.9013 198.798 26.2133 200.462 23.696C202.169 21.1787 204.345 19.92 206.99 19.92C208.185 19.0667 209.593 18.64 211.214 18.64C212.878 18.64 214.414 19.5147 215.822 21.264C217.23 23.0133 217.956 25.296 217.998 28.112ZM213.838 31.376L211.534 31.504C209.572 31.504 207.908 30.928 206.542 29.776C205.177 28.5813 204.494 27.28 204.494 25.872C204.494 24.464 204.729 23.248 205.198 22.224C203.364 23.6747 202.446 26.5333 202.446 30.8C202.446 32.848 202.873 34.8107 203.726 36.688C204.58 38.5227 205.924 39.44 207.758 39.44C209.593 39.44 211.022 38.672 212.046 37.136C213.07 35.5573 213.668 33.6373 213.838 31.376ZM209.87 20.752C209.188 20.752 208.654 21.072 208.27 21.712C207.886 22.3093 207.694 22.9707 207.694 23.696C207.694 25.2747 208.228 26.5547 209.294 27.536C210.404 28.5173 211.684 29.008 213.134 29.008H213.902C213.817 26.9173 213.454 25.0187 212.814 23.312C212.217 21.6053 211.236 20.752 209.87 20.752Z" fill="url(#paint8_linear)"/>
<path d="M236.575 32.208C235.252 35.7067 234.015 38.2667 232.863 39.888C231.753 41.5093 230.281 42.32 228.447 42.32C226.612 42.32 225.055 41.5307 223.775 39.952C222.537 38.3733 221.919 35.856 221.919 32.4C221.919 28.944 222.879 25.8933 224.799 23.248C226.761 20.6027 229.321 19.28 232.479 19.28C233.119 19.28 233.887 19.5573 234.783 20.112C235.679 20.624 236.468 21.264 237.151 22.032C237.279 21.6053 237.897 20.944 239.007 20.048C240.116 19.1093 240.969 18.64 241.567 18.64C242.207 18.64 242.527 19.5573 242.527 21.392C242.527 23.2267 242.143 24.848 241.375 26.256C240.948 29.1147 240.713 31.76 240.671 34.192C244.852 28.9013 247.071 26.1067 247.327 25.808C247.625 25.5093 247.881 25.36 248.095 25.36C248.521 25.36 248.735 25.5733 248.735 26C248.735 26.256 248.649 26.5333 248.479 26.832C247.113 28.8373 244.425 32.3573 240.415 37.392C240.159 42.4693 239.988 45.9253 239.903 47.76C239.689 53.1787 238.921 56.976 237.599 59.152C236.319 61.3707 234.015 62.48 230.687 62.48C229.236 62.48 227.871 62.032 226.591 61.136C225.353 60.2827 224.735 58.768 224.735 56.592C224.735 54.4587 225.545 52.2613 227.167 50C228.831 47.7387 231.839 44.2613 236.191 39.568L236.575 32.208ZM232.095 21.584C230.9 21.584 229.62 22.5227 228.255 24.4C226.932 26.2347 226.271 28.368 226.271 30.8C226.271 33.1893 226.612 35.152 227.295 36.688C228.02 38.1813 228.916 38.928 229.983 38.928C231.049 38.928 232.073 38.0533 233.055 36.304C234.036 34.5547 235.295 31.5467 236.831 27.28C236.916 25.8293 236.959 24.912 236.959 24.528C236.617 23.888 235.913 23.248 234.847 22.608C233.78 21.9253 232.863 21.584 232.095 21.584ZM235.999 42.576C231.135 47.824 228.703 52.0267 228.703 55.184C228.703 56.6347 228.959 57.8293 229.471 58.768C229.983 59.7067 230.687 60.176 231.583 60.176C232.948 60.176 233.908 59.4293 234.463 57.936C235.017 56.4427 235.423 53.4133 235.679 48.848L235.999 42.576Z" fill="url(#paint9_linear)"/>
<path d="M28.5088 31.44C28.8075 31.0133 29.2341 30.2667 29.7888 29.2C31.1541 26.768 31.9648 25.552 32.2208 25.552C32.5195 25.552 32.6688 25.7227 32.6688 26.064C32.6688 28.1547 31.5808 30.8 29.4048 34C25.4795 39.76 20.2528 42.64 13.7248 42.64C11.8901 42.64 10.2048 42.2133 8.6688 41.36C7.1328 40.5067 5.9168 39.4187 5.0208 38.096C3.18613 35.408 2.2688 32.592 2.2688 29.648C2.2688 22.224 4.1888 16.2507 8.0288 11.728C11.9115 7.16266 16.4981 4.88 21.7888 4.88C23.7941 4.88 25.4368 5.47733 26.7168 6.672C27.9968 7.824 28.6368 9.296 28.6368 11.088C28.6368 12.88 28.1888 14.544 27.2928 16.08C26.3968 17.616 25.3088 18.384 24.0288 18.384C22.7915 18.384 22.1728 18.0427 22.1728 17.36C22.1728 16.592 22.5781 15.7173 23.3888 14.736C24.2421 13.7547 24.6688 12.7733 24.6688 11.792C24.6688 8.76266 23.0475 7.248 19.8048 7.248C16.6048 7.248 13.7035 9.40266 11.1008 13.712C8.49813 18.0213 7.1968 22.4587 7.1968 27.024C7.1968 30.1813 8.0928 32.9973 9.8848 35.472C11.6768 37.904 14.1941 39.12 17.4368 39.12C21.2768 39.12 24.9675 36.56 28.5088 31.44Z" stroke="#1C1C1C" stroke-width="4" mask="url(#path-1-outside-1)"/>
<path d="M49.3158 28.112C51.0225 27.5573 52.1958 27.088 52.8358 26.704C53.5185 26.2773 54.0305 25.9573 54.3718 25.744L55.1398 25.296C55.3531 25.168 55.5238 25.104 55.6518 25.104C55.9931 25.104 56.1638 25.296 56.1638 25.68C56.1638 26.064 55.5025 26.7467 54.1798 27.728C52.8571 28.6667 51.2145 29.52 49.2518 30.288C48.9531 33.872 47.8225 36.7733 45.8598 38.992C43.8971 41.2107 41.1025 42.32 37.4758 42.32C34.8305 42.32 32.8038 41.2747 31.3958 39.184C29.9878 37.0507 29.2838 34.576 29.2838 31.76C29.2838 28.9013 30.1158 26.2133 31.7798 23.696C33.4865 21.1787 35.6625 19.92 38.3078 19.92C39.5025 19.0667 40.9105 18.64 42.5318 18.64C44.1958 18.64 45.7318 19.5147 47.1398 21.264C48.5478 23.0133 49.2731 25.296 49.3158 28.112ZM45.1558 31.376L42.8518 31.504C40.8891 31.504 39.2251 30.928 37.8598 29.776C36.4945 28.5813 35.8118 27.28 35.8118 25.872C35.8118 24.464 36.0465 23.248 36.5158 22.224C34.6811 23.6747 33.7638 26.5333 33.7638 30.8C33.7638 32.848 34.1905 34.8107 35.0438 36.688C35.8971 38.5227 37.2411 39.44 39.0758 39.44C40.9105 39.44 42.3398 38.672 43.3638 37.136C44.3878 35.5573 44.9851 33.6373 45.1558 31.376ZM41.1878 20.752C40.5051 20.752 39.9718 21.072 39.5878 21.712C39.2038 22.3093 39.0118 22.9707 39.0118 23.696C39.0118 25.2747 39.5451 26.5547 40.6118 27.536C41.7211 28.5173 43.0011 29.008 44.4518 29.008H45.2198C45.1345 26.9173 44.7718 25.0187 44.1318 23.312C43.5345 21.6053 42.5531 20.752 41.1878 20.752Z" stroke="#1C1C1C" stroke-width="4" mask="url(#path-1-outside-1)"/>
<path d="M71.4763 42.32C70.0256 42.32 68.895 42 68.0843 41.36C67.743 41.0187 67.5723 40.1227 67.5723 38.672C67.5723 37.2213 67.6363 35.3227 67.7643 32.976C66.6123 36.048 65.439 38.3733 64.2443 39.952C63.0496 41.5307 61.535 42.32 59.7003 42.32C57.9083 42.32 56.3723 41.5307 55.0923 39.952C53.855 38.3733 53.2363 35.856 53.2363 32.4C53.2363 28.944 54.1963 25.8933 56.1163 23.248C58.079 20.6027 60.639 19.28 63.7963 19.28C65.3323 19.28 66.9323 19.8773 68.5963 21.072C69.279 12.752 69.8976 8.05866 70.4523 6.992C70.7083 6.52266 71.3056 5.84 72.2443 4.944C73.2256 4.048 74.0363 3.6 74.6763 3.6C75.3163 3.6 75.6363 4.60266 75.6363 6.608C75.6363 8.95466 75.423 10.9813 74.9963 12.688C73.8443 17.0827 73.119 19.8773 72.8203 21.072C72.223 25.68 71.9243 31.0987 71.9243 37.328C71.9243 38.48 72.0523 39.056 72.3083 39.056C73.0763 39.0133 74.1003 38.1173 75.3803 36.368C76.6603 34.6187 77.919 32.3573 79.1563 29.584C80.4363 26.768 81.2043 25.36 81.4603 25.36C81.759 25.36 81.9083 25.5307 81.9083 25.872C81.9083 27.0667 81.2896 28.9653 80.0523 31.568C76.6816 38.736 73.823 42.32 71.4763 42.32ZM63.4123 21.584C62.2603 21.584 61.1083 22.5013 59.9563 24.336C58.8043 26.1707 58.2283 28.304 58.2283 30.736C58.2283 33.1253 58.527 35.088 59.1243 36.624C59.7643 38.16 60.5536 38.928 61.4923 38.928C63.4123 38.928 65.6096 35.088 68.0843 27.408C68.2976 25.0613 68.4043 23.6747 68.4043 23.248C67.167 22.1387 65.503 21.584 63.4123 21.584Z" stroke="#1C1C1C" stroke-width="4" mask="url(#path-1-outside-1)"/>
<path d="M81.4318 10.704C81.4318 9.936 81.8371 9.27466 82.6478 8.72C83.4585 8.16533 84.1838 7.888 84.8238 7.888C85.9758 7.888 86.5518 8.54933 86.5518 9.872C86.5518 11.1947 86.2105 12.3467 85.5278 13.328C84.8451 14.2667 83.8851 14.736 82.6478 14.736C81.8371 14.736 81.4318 13.392 81.4318 10.704ZM83.2878 42.32C81.6238 42.32 80.3651 41.9787 79.5118 41.296C79.2131 40.9973 79.0638 39.9307 79.0638 38.096C79.0638 36.2613 79.1918 33.2107 79.4478 28.944C79.7465 24.6347 80.0025 22.3093 80.2158 21.968C80.4291 21.6267 81.0905 20.9867 82.1998 20.048C83.3091 19.1093 84.1625 18.64 84.7598 18.64C85.3998 18.64 85.7198 19.4507 85.7198 21.072C85.7198 21.4987 85.5918 22.3307 85.3358 23.568C85.1225 24.8053 84.8665 25.7013 84.5678 26.256C84.0131 27.664 83.7358 31.3547 83.7358 37.328C83.7358 38.48 83.8638 39.056 84.1198 39.056C84.8451 39.0133 85.8478 38.1173 87.1278 36.368C88.4078 34.576 89.6665 32.2933 90.9038 29.52C92.1838 26.7467 92.9518 25.36 93.2078 25.36C93.5065 25.36 93.6558 25.5307 93.6558 25.872C93.6558 27.0667 93.0371 28.9653 91.7998 31.568C88.4291 38.736 85.5918 42.32 83.2878 42.32Z" stroke="#1C1C1C" stroke-width="4" mask="url(#path-1-outside-1)"/>
<path d="M95.8833 38.544L95.9473 40.528C95.9473 41.7227 95.606 42.32 94.9233 42.32C93.8993 42.32 92.918 42.192 91.9793 41.936C91.0406 41.6373 90.5713 41.2533 90.5713 40.784C90.5713 40.272 90.678 38.5867 90.8913 35.728C91.1473 32.8267 91.2753 30.6507 91.2753 29.2V25.424C91.2753 23.376 91.4886 22.1387 91.9153 21.712C92.342 21.2853 93.0886 20.6667 94.1553 19.856C95.2646 19.0453 96.054 18.64 96.5233 18.64C97.0353 18.64 97.3553 18.7253 97.4833 18.896C97.6113 19.0667 97.6753 19.3867 97.6753 19.856C97.6753 22.1173 97.2486 24.2507 96.3953 26.256C96.182 28.688 96.0753 30.3733 96.0753 31.312C96.246 31.056 97.142 29.6053 98.7633 26.96C100.385 24.3147 101.75 22.3733 102.859 21.136C104.011 19.8987 105.035 19.28 105.931 19.28C106.827 19.28 107.617 19.5787 108.299 20.176C109.025 20.7733 109.387 21.52 109.387 22.416C109.387 24.2933 109.174 27.0667 108.747 30.736C108.363 34.3627 108.171 36.6667 108.171 37.648C108.171 38.5867 108.299 39.056 108.555 39.056C109.281 39.0133 110.283 38.1173 111.563 36.368C112.843 34.576 114.102 32.2933 115.339 29.52C116.619 26.7467 117.387 25.36 117.643 25.36C117.942 25.36 118.091 25.5307 118.091 25.872C118.091 27.0667 117.473 28.9653 116.235 31.568C112.865 38.736 110.027 42.32 107.723 42.32C106.059 42.32 104.801 41.9787 103.947 41.296C103.649 40.9973 103.499 40.2293 103.499 38.992C103.499 37.712 103.606 35.664 103.819 32.848C104.075 29.9893 104.203 27.856 104.203 26.448C104.203 25.04 103.947 24.336 103.435 24.336C102.966 24.336 101.686 25.808 99.5953 28.752C97.5046 31.6533 96.3953 33.5093 96.2673 34.32C96.0113 35.8133 95.8833 37.2213 95.8833 38.544Z" stroke="#1C1C1C" stroke-width="4" mask="url(#path-1-outside-1)"/>
<path d="M129.937 32.208C128.615 35.7067 127.377 38.2667 126.225 39.888C125.116 41.5093 123.644 42.32 121.809 42.32C119.975 42.32 118.417 41.5307 117.137 39.952C115.9 38.3733 115.281 35.856 115.281 32.4C115.281 28.944 116.241 25.8933 118.161 23.248C120.124 20.6027 122.684 19.28 125.841 19.28C126.481 19.28 127.249 19.5573 128.145 20.112C129.041 20.624 129.831 21.264 130.513 22.032C130.641 21.6053 131.26 20.944 132.369 20.048C133.479 19.1093 134.332 18.64 134.929 18.64C135.569 18.64 135.889 19.5573 135.889 21.392C135.889 23.2267 135.505 24.848 134.737 26.256C134.311 29.1147 134.076 31.76 134.033 34.192C138.215 28.9013 140.433 26.1067 140.689 25.808C140.988 25.5093 141.244 25.36 141.457 25.36C141.884 25.36 142.097 25.5733 142.097 26C142.097 26.256 142.012 26.5333 141.841 26.832C140.476 28.8373 137.788 32.3573 133.777 37.392C133.521 42.4693 133.351 45.9253 133.265 47.76C133.052 53.1787 132.284 56.976 130.961 59.152C129.681 61.3707 127.377 62.48 124.049 62.48C122.599 62.48 121.233 62.032 119.953 61.136C118.716 60.2827 118.097 58.768 118.097 56.592C118.097 54.4587 118.908 52.2613 120.529 50C122.193 47.7387 125.201 44.2613 129.553 39.568L129.937 32.208ZM125.457 21.584C124.263 21.584 122.983 22.5227 121.617 24.4C120.295 26.2347 119.633 28.368 119.633 30.8C119.633 33.1893 119.975 35.152 120.657 36.688C121.383 38.1813 122.279 38.928 123.345 38.928C124.412 38.928 125.436 38.0533 126.417 36.304C127.399 34.5547 128.657 31.5467 130.193 27.28C130.279 25.8293 130.321 24.912 130.321 24.528C129.98 23.888 129.276 23.248 128.209 22.608C127.143 21.9253 126.225 21.584 125.457 21.584ZM129.361 42.576C124.497 47.824 122.065 52.0267 122.065 55.184C122.065 56.6347 122.321 57.8293 122.833 58.768C123.345 59.7067 124.049 60.176 124.945 60.176C126.311 60.176 127.271 59.4293 127.825 57.936C128.38 56.4427 128.785 53.4133 129.041 48.848L129.361 42.576Z" stroke="#1C1C1C" stroke-width="4" mask="url(#path-1-outside-1)"/>
<path d="M169.444 40.336C171.748 40.336 173.774 39.5253 175.524 37.904C177.316 36.2827 178.212 34.4267 178.212 32.336C178.212 30.2027 177.55 28.24 176.228 26.448C174.777 27.1733 173.348 27.536 171.94 27.536C168.654 27.536 167.012 26.512 167.012 24.464C167.012 23.8667 167.417 23.3333 168.228 22.864C169.038 22.352 170.19 22.096 171.684 22.096C173.22 22.096 174.884 22.544 176.676 23.44C178.382 21.6053 179.236 19.536 179.236 17.232C179.236 14.3733 177.977 12.112 175.46 10.448C172.985 8.74133 170.318 7.888 167.46 7.888C166.862 7.888 166.414 7.90933 166.116 7.952C166.073 9.18933 165.966 11.1733 165.796 13.904C165.54 18 165.412 24.2507 165.412 32.656C165.412 35.8987 165.177 37.52 164.708 37.52C162.873 37.52 161.7 37.264 161.188 36.752C160.676 36.24 160.42 34.768 160.42 32.336C160.42 31.7387 160.526 29.2853 160.74 24.976C160.996 20.6667 161.124 17.1893 161.124 14.544C161.124 11.8987 161.209 9.95733 161.38 8.72C159.118 9.488 157.902 10.7253 157.732 12.432C157.561 13.84 157.241 14.8213 156.772 15.376C156.345 15.9307 155.748 16.208 154.98 16.208C154.254 16.208 153.764 16.016 153.508 15.632C153.252 15.2053 153.124 14.7787 153.124 14.352C153.124 10.64 156.004 8.08 161.764 6.672C162.489 3.77067 163.641 2.32 165.22 2.32C165.86 2.32 166.18 3.51467 166.18 5.904C167.289 5.776 168.654 5.712 170.276 5.712C171.94 5.712 173.838 6.032 175.972 6.672C178.105 7.26933 179.961 8.35733 181.54 9.936C183.118 11.472 183.908 13.2 183.908 15.12C183.908 18.704 182.18 21.9253 178.724 24.784C181.113 26.6613 182.308 28.9013 182.308 31.504C182.308 34.1067 181.497 36.2613 179.876 37.968C176.846 41.0827 172.793 42.64 167.716 42.64C164.26 42.64 161.785 42.4053 160.292 41.936C159.993 41.8507 159.673 41.6373 159.332 41.296C159.033 40.912 158.884 40.4427 158.884 39.888C158.884 38.992 159.758 38.544 161.508 38.544C162.062 38.544 163.278 38.8427 165.156 39.44C167.033 40.0373 168.462 40.336 169.444 40.336ZM174.884 25.04C173.604 23.9733 172.388 23.44 171.236 23.44C170.126 23.44 169.572 23.6747 169.572 24.144C169.572 25.1253 170.617 25.616 172.708 25.616C173.476 25.616 174.201 25.424 174.884 25.04Z" stroke="#1C1C1C" stroke-width="4" mask="url(#path-1-outside-1)"/>
<path d="M190.811 42.32C189.872 42.32 188.997 42.2133 188.187 42C187.419 41.744 186.949 41.5093 186.779 41.296C186.352 40.784 186.139 38.1387 186.139 33.36C186.139 28.5387 186.672 22.0107 187.739 13.776C188.635 6.992 190.725 3.6 194.011 3.6C194.779 3.6 195.333 4.02666 195.675 4.88C196.016 5.69066 196.187 6.48 196.187 7.248C196.187 12.7947 194.501 19.0027 191.131 25.872C191.003 29.4133 190.939 32.5067 190.939 35.152C190.939 37.7547 191.173 39.056 191.643 39.056C192.368 39.0133 193.371 38.1173 194.651 36.368C195.931 34.576 197.189 32.2933 198.427 29.52C199.707 26.7467 200.475 25.36 200.731 25.36C201.029 25.36 201.179 25.5307 201.179 25.872C201.179 27.0667 200.56 28.9653 199.323 31.568C195.952 38.736 193.115 42.32 190.811 42.32ZM194.587 7.824C194.587 6.45866 194.416 5.776 194.075 5.776C192.795 5.776 191.856 11.088 191.259 21.712C193.477 15.8667 194.587 11.2373 194.587 7.824Z" stroke="#1C1C1C" stroke-width="4" mask="url(#path-1-outside-1)"/>
<path d="M217.998 28.112C219.705 27.5573 220.878 27.088 221.518 26.704C222.201 26.2773 222.713 25.9573 223.054 25.744L223.822 25.296C224.036 25.168 224.206 25.104 224.334 25.104C224.676 25.104 224.846 25.296 224.846 25.68C224.846 26.064 224.185 26.7467 222.862 27.728C221.54 28.6667 219.897 29.52 217.934 30.288C217.636 33.872 216.505 36.7733 214.542 38.992C212.58 41.2107 209.785 42.32 206.158 42.32C203.513 42.32 201.486 41.2747 200.078 39.184C198.67 37.0507 197.966 34.576 197.966 31.76C197.966 28.9013 198.798 26.2133 200.462 23.696C202.169 21.1787 204.345 19.92 206.99 19.92C208.185 19.0667 209.593 18.64 211.214 18.64C212.878 18.64 214.414 19.5147 215.822 21.264C217.23 23.0133 217.956 25.296 217.998 28.112ZM213.838 31.376L211.534 31.504C209.572 31.504 207.908 30.928 206.542 29.776C205.177 28.5813 204.494 27.28 204.494 25.872C204.494 24.464 204.729 23.248 205.198 22.224C203.364 23.6747 202.446 26.5333 202.446 30.8C202.446 32.848 202.873 34.8107 203.726 36.688C204.58 38.5227 205.924 39.44 207.758 39.44C209.593 39.44 211.022 38.672 212.046 37.136C213.07 35.5573 213.668 33.6373 213.838 31.376ZM209.87 20.752C209.188 20.752 208.654 21.072 208.27 21.712C207.886 22.3093 207.694 22.9707 207.694 23.696C207.694 25.2747 208.228 26.5547 209.294 27.536C210.404 28.5173 211.684 29.008 213.134 29.008H213.902C213.817 26.9173 213.454 25.0187 212.814 23.312C212.217 21.6053 211.236 20.752 209.87 20.752Z" stroke="#1C1C1C" stroke-width="4" mask="url(#path-1-outside-1)"/>
<path d="M236.575 32.208C235.252 35.7067 234.015 38.2667 232.863 39.888C231.753 41.5093 230.281 42.32 228.447 42.32C226.612 42.32 225.055 41.5307 223.775 39.952C222.537 38.3733 221.919 35.856 221.919 32.4C221.919 28.944 222.879 25.8933 224.799 23.248C226.761 20.6027 229.321 19.28 232.479 19.28C233.119 19.28 233.887 19.5573 234.783 20.112C235.679 20.624 236.468 21.264 237.151 22.032C237.279 21.6053 237.897 20.944 239.007 20.048C240.116 19.1093 240.969 18.64 241.567 18.64C242.207 18.64 242.527 19.5573 242.527 21.392C242.527 23.2267 242.143 24.848 241.375 26.256C240.948 29.1147 240.713 31.76 240.671 34.192C244.852 28.9013 247.071 26.1067 247.327 25.808C247.625 25.5093 247.881 25.36 248.095 25.36C248.521 25.36 248.735 25.5733 248.735 26C248.735 26.256 248.649 26.5333 248.479 26.832C247.113 28.8373 244.425 32.3573 240.415 37.392C240.159 42.4693 239.988 45.9253 239.903 47.76C239.689 53.1787 238.921 56.976 237.599 59.152C236.319 61.3707 234.015 62.48 230.687 62.48C229.236 62.48 227.871 62.032 226.591 61.136C225.353 60.2827 224.735 58.768 224.735 56.592C224.735 54.4587 225.545 52.2613 227.167 50C228.831 47.7387 231.839 44.2613 236.191 39.568L236.575 32.208ZM232.095 21.584C230.9 21.584 229.62 22.5227 228.255 24.4C226.932 26.2347 226.271 28.368 226.271 30.8C226.271 33.1893 226.612 35.152 227.295 36.688C228.02 38.1813 228.916 38.928 229.983 38.928C231.049 38.928 232.073 38.0533 233.055 36.304C234.036 34.5547 235.295 31.5467 236.831 27.28C236.916 25.8293 236.959 24.912 236.959 24.528C236.617 23.888 235.913 23.248 234.847 22.608C233.78 21.9253 232.863 21.584 232.095 21.584ZM235.999 42.576C231.135 47.824 228.703 52.0267 228.703 55.184C228.703 56.6347 228.959 57.8293 229.471 58.768C229.983 59.7067 230.687 60.176 231.583 60.176C232.948 60.176 233.908 59.4293 234.463 57.936C235.017 56.4427 235.423 53.4133 235.679 48.848L235.999 42.576Z" stroke="#1C1C1C" stroke-width="4" mask="url(#path-1-outside-1)"/>
<defs>
<linearGradient id="paint0_linear" x1="248.735" y1="31.9763" x2="2.2688" y2="31.9764" gradientUnits="userSpaceOnUse">
<stop stop-color="#EE2F69"/>
<stop offset="0.502101" stop-color="#FCD9E3"/>
<stop offset="1" stop-color="#EE2F69"/>
</linearGradient>
<linearGradient id="paint1_linear" x1="248.735" y1="31.9763" x2="2.2688" y2="31.9764" gradientUnits="userSpaceOnUse">
<stop stop-color="#EE2F69"/>
<stop offset="0.502101" stop-color="#FCD9E3"/>
<stop offset="1" stop-color="#EE2F69"/>
</linearGradient>
<linearGradient id="paint2_linear" x1="248.735" y1="31.9763" x2="2.2688" y2="31.9764" gradientUnits="userSpaceOnUse">
<stop stop-color="#EE2F69"/>
<stop offset="0.502101" stop-color="#FCD9E3"/>
<stop offset="1" stop-color="#EE2F69"/>
</linearGradient>
<linearGradient id="paint3_linear" x1="248.735" y1="31.9763" x2="2.2688" y2="31.9764" gradientUnits="userSpaceOnUse">
<stop stop-color="#EE2F69"/>
<stop offset="0.502101" stop-color="#FCD9E3"/>
<stop offset="1" stop-color="#EE2F69"/>
</linearGradient>
<linearGradient id="paint4_linear" x1="248.735" y1="31.9763" x2="2.2688" y2="31.9764" gradientUnits="userSpaceOnUse">
<stop stop-color="#EE2F69"/>
<stop offset="0.502101" stop-color="#FCD9E3"/>
<stop offset="1" stop-color="#EE2F69"/>
</linearGradient>
<linearGradient id="paint5_linear" x1="248.735" y1="31.9763" x2="2.2688" y2="31.9764" gradientUnits="userSpaceOnUse">
<stop stop-color="#EE2F69"/>
<stop offset="0.502101" stop-color="#FCD9E3"/>
<stop offset="1" stop-color="#EE2F69"/>
</linearGradient>
<linearGradient id="paint6_linear" x1="248.735" y1="31.9763" x2="2.2688" y2="31.9764" gradientUnits="userSpaceOnUse">
<stop stop-color="#EE2F69"/>
<stop offset="0.502101" stop-color="#FCD9E3"/>
<stop offset="1" stop-color="#EE2F69"/>
</linearGradient>
<linearGradient id="paint7_linear" x1="248.735" y1="31.9763" x2="2.2688" y2="31.9764" gradientUnits="userSpaceOnUse">
<stop stop-color="#EE2F69"/>
<stop offset="0.502101" stop-color="#FCD9E3"/>
<stop offset="1" stop-color="#EE2F69"/>
</linearGradient>
<linearGradient id="paint8_linear" x1="248.735" y1="31.9763" x2="2.2688" y2="31.9764" gradientUnits="userSpaceOnUse">
<stop stop-color="#EE2F69"/>
<stop offset="0.502101" stop-color="#FCD9E3"/>
<stop offset="1" stop-color="#EE2F69"/>
</linearGradient>
<linearGradient id="paint9_linear" x1="248.735" y1="31.9763" x2="2.2688" y2="31.9764" gradientUnits="userSpaceOnUse">
<stop stop-color="#EE2F69"/>
<stop offset="0.502101" stop-color="#FCD9E3"/>
<stop offset="1" stop-color="#EE2F69"/>
</linearGradient>
</defs>
</svg>
