<svg width="251" height="65" viewBox="0 0 251 65" fill="none" xmlns="http://www.w3.org/2000/svg">
<path d="M28.24 31.44C28.5387 31.0133 28.9653 30.2667 29.52 29.2C30.8853 26.768 31.696 25.552 31.952 25.552C32.2507 25.552 32.4 25.7227 32.4 26.064C32.4 28.1547 31.312 30.8 29.136 34C25.2107 39.76 19.984 42.64 13.456 42.64C11.6213 42.64 9.936 42.2133 8.4 41.36C6.864 40.5067 5.648 39.4187 4.752 38.096C2.91733 35.408 2 32.592 2 29.648C2 22.224 3.92 16.2507 7.76 11.728C11.6427 7.16266 16.2293 4.88 21.52 4.88C23.5253 4.88 25.168 5.47733 26.448 6.672C27.728 7.824 28.368 9.296 28.368 11.088C28.368 12.88 27.92 14.544 27.024 16.08C26.128 17.616 25.04 18.384 23.76 18.384C22.5227 18.384 21.904 18.0427 21.904 17.36C21.904 16.592 22.3093 15.7173 23.12 14.736C23.9733 13.7547 24.4 12.7733 24.4 11.792C24.4 8.76266 22.7787 7.248 19.536 7.248C16.336 7.248 13.4347 9.40266 10.832 13.712C8.22933 18.0213 6.928 22.4587 6.928 27.024C6.928 30.1813 7.824 32.9973 9.616 35.472C11.408 37.904 13.9253 39.12 17.168 39.12C21.008 39.12 24.6987 36.56 28.24 31.44ZM49.047 28.112C50.7537 27.5573 51.927 27.088 52.567 26.704C53.2497 26.2773 53.7617 25.9573 54.103 25.744L54.871 25.296C55.0843 25.168 55.255 25.104 55.383 25.104C55.7243 25.104 55.895 25.296 55.895 25.68C55.895 26.064 55.2337 26.7467 53.911 27.728C52.5883 28.6667 50.9457 29.52 48.983 30.288C48.6843 33.872 47.5537 36.7733 45.591 38.992C43.6283 41.2107 40.8337 42.32 37.207 42.32C34.5617 42.32 32.535 41.2747 31.127 39.184C29.719 37.0507 29.015 34.576 29.015 31.76C29.015 28.9013 29.847 26.2133 31.511 23.696C33.2177 21.1787 35.3937 19.92 38.039 19.92C39.2337 19.0667 40.6417 18.64 42.263 18.64C43.927 18.64 45.463 19.5147 46.871 21.264C48.279 23.0133 49.0043 25.296 49.047 28.112ZM44.887 31.376L42.583 31.504C40.6203 31.504 38.9563 30.928 37.591 29.776C36.2257 28.5813 35.543 27.28 35.543 25.872C35.543 24.464 35.7777 23.248 36.247 22.224C34.4123 23.6747 33.495 26.5333 33.495 30.8C33.495 32.848 33.9217 34.8107 34.775 36.688C35.6283 38.5227 36.9723 39.44 38.807 39.44C40.6417 39.44 42.071 38.672 43.095 37.136C44.119 35.5573 44.7163 33.6373 44.887 31.376ZM40.919 20.752C40.2363 20.752 39.703 21.072 39.319 21.712C38.935 22.3093 38.743 22.9707 38.743 23.696C38.743 25.2747 39.2763 26.5547 40.343 27.536C41.4523 28.5173 42.7323 29.008 44.183 29.008H44.951C44.8657 26.9173 44.503 25.0187 43.863 23.312C43.2657 21.6053 42.2843 20.752 40.919 20.752ZM71.2075 42.32C69.7568 42.32 68.6262 42 67.8155 41.36C67.4742 41.0187 67.3035 40.1227 67.3035 38.672C67.3035 37.2213 67.3675 35.3227 67.4955 32.976C66.3435 36.048 65.1702 38.3733 63.9755 39.952C62.7808 41.5307 61.2662 42.32 59.4315 42.32C57.6395 42.32 56.1035 41.5307 54.8235 39.952C53.5862 38.3733 52.9675 35.856 52.9675 32.4C52.9675 28.944 53.9275 25.8933 55.8475 23.248C57.8102 20.6027 60.3702 19.28 63.5275 19.28C65.0635 19.28 66.6635 19.8773 68.3275 21.072C69.0102 12.752 69.6288 8.05866 70.1835 6.992C70.4395 6.52266 71.0368 5.84 71.9755 4.944C72.9568 4.048 73.7675 3.6 74.4075 3.6C75.0475 3.6 75.3675 4.60266 75.3675 6.608C75.3675 8.95466 75.1542 10.9813 74.7275 12.688C73.5755 17.0827 72.8502 19.8773 72.5515 21.072C71.9542 25.68 71.6555 31.0987 71.6555 37.328C71.6555 38.48 71.7835 39.056 72.0395 39.056C72.8075 39.0133 73.8315 38.1173 75.1115 36.368C76.3915 34.6187 77.6502 32.3573 78.8875 29.584C80.1675 26.768 80.9355 25.36 81.1915 25.36C81.4902 25.36 81.6395 25.5307 81.6395 25.872C81.6395 27.0667 81.0208 28.9653 79.7835 31.568C76.4128 38.736 73.5542 42.32 71.2075 42.32ZM63.1435 21.584C61.9915 21.584 60.8395 22.5013 59.6875 24.336C58.5355 26.1707 57.9595 28.304 57.9595 30.736C57.9595 33.1253 58.2582 35.088 58.8555 36.624C59.4955 38.16 60.2848 38.928 61.2235 38.928C63.1435 38.928 65.3408 35.088 67.8155 27.408C68.0288 25.0613 68.1355 23.6747 68.1355 23.248C66.8982 22.1387 65.2342 21.584 63.1435 21.584ZM81.163 10.704C81.163 9.936 81.5683 9.27466 82.379 8.72C83.1897 8.16533 83.915 7.888 84.555 7.888C85.707 7.888 86.283 8.54933 86.283 9.872C86.283 11.1947 85.9417 12.3467 85.259 13.328C84.5763 14.2667 83.6163 14.736 82.379 14.736C81.5683 14.736 81.163 13.392 81.163 10.704ZM83.019 42.32C81.355 42.32 80.0963 41.9787 79.243 41.296C78.9443 40.9973 78.795 39.9307 78.795 38.096C78.795 36.2613 78.923 33.2107 79.179 28.944C79.4777 24.6347 79.7337 22.3093 79.947 21.968C80.1603 21.6267 80.8217 20.9867 81.931 20.048C83.0403 19.1093 83.8937 18.64 84.491 18.64C85.131 18.64 85.451 19.4507 85.451 21.072C85.451 21.4987 85.323 22.3307 85.067 23.568C84.8537 24.8053 84.5977 25.7013 84.299 26.256C83.7443 27.664 83.467 31.3547 83.467 37.328C83.467 38.48 83.595 39.056 83.851 39.056C84.5763 39.0133 85.579 38.1173 86.859 36.368C88.139 34.576 89.3977 32.2933 90.635 29.52C91.915 26.7467 92.683 25.36 92.939 25.36C93.2377 25.36 93.387 25.5307 93.387 25.872C93.387 27.0667 92.7683 28.9653 91.531 31.568C88.1603 38.736 85.323 42.32 83.019 42.32ZM95.6145 38.544L95.6785 40.528C95.6785 41.7227 95.3372 42.32 94.6545 42.32C93.6305 42.32 92.6492 42.192 91.7105 41.936C90.7718 41.6373 90.3025 41.2533 90.3025 40.784C90.3025 40.272 90.4092 38.5867 90.6225 35.728C90.8785 32.8267 91.0065 30.6507 91.0065 29.2V25.424C91.0065 23.376 91.2198 22.1387 91.6465 21.712C92.0732 21.2853 92.8198 20.6667 93.8865 19.856C94.9958 19.0453 95.7852 18.64 96.2545 18.64C96.7665 18.64 97.0865 18.7253 97.2145 18.896C97.3425 19.0667 97.4065 19.3867 97.4065 19.856C97.4065 22.1173 96.9798 24.2507 96.1265 26.256C95.9132 28.688 95.8065 30.3733 95.8065 31.312C95.9772 31.056 96.8732 29.6053 98.4945 26.96C100.116 24.3147 101.481 22.3733 102.59 21.136C103.742 19.8987 104.766 19.28 105.662 19.28C106.558 19.28 107.348 19.5787 108.03 20.176C108.756 20.7733 109.118 21.52 109.118 22.416C109.118 24.2933 108.905 27.0667 108.478 30.736C108.094 34.3627 107.902 36.6667 107.902 37.648C107.902 38.5867 108.03 39.056 108.286 39.056C109.012 39.0133 110.014 38.1173 111.294 36.368C112.574 34.576 113.833 32.2933 115.07 29.52C116.35 26.7467 117.118 25.36 117.374 25.36C117.673 25.36 117.822 25.5307 117.822 25.872C117.822 27.0667 117.204 28.9653 115.966 31.568C112.596 38.736 109.758 42.32 107.454 42.32C105.79 42.32 104.532 41.9787 103.678 41.296C103.38 40.9973 103.23 40.2293 103.23 38.992C103.23 37.712 103.337 35.664 103.55 32.848C103.806 29.9893 103.934 27.856 103.934 26.448C103.934 25.04 103.678 24.336 103.166 24.336C102.697 24.336 101.417 25.808 99.3265 28.752C97.2358 31.6533 96.1265 33.5093 95.9985 34.32C95.7425 35.8133 95.6145 37.2213 95.6145 38.544ZM129.668 32.208C128.346 35.7067 127.108 38.2667 125.956 39.888C124.847 41.5093 123.375 42.32 121.54 42.32C119.706 42.32 118.148 41.5307 116.868 39.952C115.631 38.3733 115.012 35.856 115.012 32.4C115.012 28.944 115.972 25.8933 117.892 23.248C119.855 20.6027 122.415 19.28 125.572 19.28C126.212 19.28 126.98 19.5573 127.876 20.112C128.772 20.624 129.562 21.264 130.244 22.032C130.372 21.6053 130.991 20.944 132.1 20.048C133.21 19.1093 134.063 18.64 134.66 18.64C135.3 18.64 135.62 19.5573 135.62 21.392C135.62 23.2267 135.236 24.848 134.468 26.256C134.042 29.1147 133.807 31.76 133.764 34.192C137.946 28.9013 140.164 26.1067 140.42 25.808C140.719 25.5093 140.975 25.36 141.188 25.36C141.615 25.36 141.828 25.5733 141.828 26C141.828 26.256 141.743 26.5333 141.572 26.832C140.207 28.8373 137.519 32.3573 133.508 37.392C133.252 42.4693 133.082 45.9253 132.996 47.76C132.783 53.1787 132.015 56.976 130.692 59.152C129.412 61.3707 127.108 62.48 123.78 62.48C122.33 62.48 120.964 62.032 119.684 61.136C118.447 60.2827 117.828 58.768 117.828 56.592C117.828 54.4587 118.639 52.2613 120.26 50C121.924 47.7387 124.932 44.2613 129.284 39.568L129.668 32.208ZM125.188 21.584C123.994 21.584 122.714 22.5227 121.348 24.4C120.026 26.2347 119.364 28.368 119.364 30.8C119.364 33.1893 119.706 35.152 120.388 36.688C121.114 38.1813 122.01 38.928 123.076 38.928C124.143 38.928 125.167 38.0533 126.148 36.304C127.13 34.5547 128.388 31.5467 129.924 27.28C130.01 25.8293 130.052 24.912 130.052 24.528C129.711 23.888 129.007 23.248 127.94 22.608C126.874 21.9253 125.956 21.584 125.188 21.584ZM129.092 42.576C124.228 47.824 121.796 52.0267 121.796 55.184C121.796 56.6347 122.052 57.8293 122.564 58.768C123.076 59.7067 123.78 60.176 124.676 60.176C126.042 60.176 127.002 59.4293 127.556 57.936C128.111 56.4427 128.516 53.4133 128.772 48.848L129.092 42.576ZM169.175 40.336C171.479 40.336 173.506 39.5253 175.255 37.904C177.047 36.2827 177.943 34.4267 177.943 32.336C177.943 30.2027 177.282 28.24 175.959 26.448C174.508 27.1733 173.079 27.536 171.671 27.536C168.386 27.536 166.743 26.512 166.743 24.464C166.743 23.8667 167.148 23.3333 167.959 22.864C168.77 22.352 169.922 22.096 171.415 22.096C172.951 22.096 174.615 22.544 176.407 23.44C178.114 21.6053 178.967 19.536 178.967 17.232C178.967 14.3733 177.708 12.112 175.191 10.448C172.716 8.74133 170.05 7.888 167.191 7.888C166.594 7.888 166.146 7.90933 165.847 7.952C165.804 9.18933 165.698 11.1733 165.527 13.904C165.271 18 165.143 24.2507 165.143 32.656C165.143 35.8987 164.908 37.52 164.439 37.52C162.604 37.52 161.431 37.264 160.919 36.752C160.407 36.24 160.151 34.768 160.151 32.336C160.151 31.7387 160.258 29.2853 160.471 24.976C160.727 20.6667 160.855 17.1893 160.855 14.544C160.855 11.8987 160.94 9.95733 161.111 8.72C158.85 9.488 157.634 10.7253 157.463 12.432C157.292 13.84 156.972 14.8213 156.503 15.376C156.076 15.9307 155.479 16.208 154.711 16.208C153.986 16.208 153.495 16.016 153.239 15.632C152.983 15.2053 152.855 14.7787 152.855 14.352C152.855 10.64 155.735 8.08 161.495 6.672C162.22 3.77067 163.372 2.32 164.951 2.32C165.591 2.32 165.911 3.51467 165.911 5.904C167.02 5.776 168.386 5.712 170.007 5.712C171.671 5.712 173.57 6.032 175.703 6.672C177.836 7.26933 179.692 8.35733 181.271 9.936C182.85 11.472 183.639 13.2 183.639 15.12C183.639 18.704 181.911 21.9253 178.455 24.784C180.844 26.6613 182.039 28.9013 182.039 31.504C182.039 34.1067 181.228 36.2613 179.607 37.968C176.578 41.0827 172.524 42.64 167.447 42.64C163.991 42.64 161.516 42.4053 160.023 41.936C159.724 41.8507 159.404 41.6373 159.063 41.296C158.764 40.912 158.615 40.4427 158.615 39.888C158.615 38.992 159.49 38.544 161.239 38.544C161.794 38.544 163.01 38.8427 164.887 39.44C166.764 40.0373 168.194 40.336 169.175 40.336ZM174.615 25.04C173.335 23.9733 172.119 23.44 170.967 23.44C169.858 23.44 169.303 23.6747 169.303 24.144C169.303 25.1253 170.348 25.616 172.439 25.616C173.207 25.616 173.932 25.424 174.615 25.04ZM190.542 42.32C189.603 42.32 188.729 42.2133 187.918 42C187.15 41.744 186.681 41.5093 186.51 41.296C186.083 40.784 185.87 38.1387 185.87 33.36C185.87 28.5387 186.403 22.0107 187.47 13.776C188.366 6.992 190.457 3.6 193.742 3.6C194.51 3.6 195.065 4.02666 195.406 4.88C195.747 5.69066 195.918 6.48 195.918 7.248C195.918 12.7947 194.233 19.0027 190.862 25.872C190.734 29.4133 190.67 32.5067 190.67 35.152C190.67 37.7547 190.905 39.056 191.374 39.056C192.099 39.0133 193.102 38.1173 194.382 36.368C195.662 34.576 196.921 32.2933 198.158 29.52C199.438 26.7467 200.206 25.36 200.462 25.36C200.761 25.36 200.91 25.5307 200.91 25.872C200.91 27.0667 200.291 28.9653 199.054 31.568C195.683 38.736 192.846 42.32 190.542 42.32ZM194.318 7.824C194.318 6.45866 194.147 5.776 193.806 5.776C192.526 5.776 191.587 11.088 190.99 21.712C193.209 15.8667 194.318 11.2373 194.318 7.824ZM217.729 28.112C219.436 27.5573 220.609 27.088 221.249 26.704C221.932 26.2773 222.444 25.9573 222.785 25.744L223.553 25.296C223.767 25.168 223.937 25.104 224.065 25.104C224.407 25.104 224.577 25.296 224.577 25.68C224.577 26.064 223.916 26.7467 222.593 27.728C221.271 28.6667 219.628 29.52 217.665 30.288C217.367 33.872 216.236 36.7733 214.273 38.992C212.311 41.2107 209.516 42.32 205.889 42.32C203.244 42.32 201.217 41.2747 199.809 39.184C198.401 37.0507 197.697 34.576 197.697 31.76C197.697 28.9013 198.529 26.2133 200.193 23.696C201.9 21.1787 204.076 19.92 206.721 19.92C207.916 19.0667 209.324 18.64 210.945 18.64C212.609 18.64 214.145 19.5147 215.553 21.264C216.961 23.0133 217.687 25.296 217.729 28.112ZM213.569 31.376L211.265 31.504C209.303 31.504 207.639 30.928 206.273 29.776C204.908 28.5813 204.225 27.28 204.225 25.872C204.225 24.464 204.46 23.248 204.929 22.224C203.095 23.6747 202.177 26.5333 202.177 30.8C202.177 32.848 202.604 34.8107 203.457 36.688C204.311 38.5227 205.655 39.44 207.489 39.44C209.324 39.44 210.753 38.672 211.777 37.136C212.801 35.5573 213.399 33.6373 213.569 31.376ZM209.601 20.752C208.919 20.752 208.385 21.072 208.001 21.712C207.617 22.3093 207.425 22.9707 207.425 23.696C207.425 25.2747 207.959 26.5547 209.025 27.536C210.135 28.5173 211.415 29.008 212.865 29.008H213.633C213.548 26.9173 213.185 25.0187 212.545 23.312C211.948 21.6053 210.967 20.752 209.601 20.752ZM236.306 32.208C234.983 35.7067 233.746 38.2667 232.594 39.888C231.485 41.5093 230.013 42.32 228.178 42.32C226.343 42.32 224.786 41.5307 223.506 39.952C222.269 38.3733 221.65 35.856 221.65 32.4C221.65 28.944 222.61 25.8933 224.53 23.248C226.493 20.6027 229.053 19.28 232.21 19.28C232.85 19.28 233.618 19.5573 234.514 20.112C235.41 20.624 236.199 21.264 236.882 22.032C237.01 21.6053 237.629 20.944 238.738 20.048C239.847 19.1093 240.701 18.64 241.298 18.64C241.938 18.64 242.258 19.5573 242.258 21.392C242.258 23.2267 241.874 24.848 241.106 26.256C240.679 29.1147 240.445 31.76 240.402 34.192C244.583 28.9013 246.802 26.1067 247.058 25.808C247.357 25.5093 247.613 25.36 247.826 25.36C248.253 25.36 248.466 25.5733 248.466 26C248.466 26.256 248.381 26.5333 248.21 26.832C246.845 28.8373 244.157 32.3573 240.146 37.392C239.89 42.4693 239.719 45.9253 239.634 47.76C239.421 53.1787 238.653 56.976 237.33 59.152C236.05 61.3707 233.746 62.48 230.418 62.48C228.967 62.48 227.602 62.032 226.322 61.136C225.085 60.2827 224.466 58.768 224.466 56.592C224.466 54.4587 225.277 52.2613 226.898 50C228.562 47.7387 231.57 44.2613 235.922 39.568L236.306 32.208ZM231.826 21.584C230.631 21.584 229.351 22.5227 227.986 24.4C226.663 26.2347 226.002 28.368 226.002 30.8C226.002 33.1893 226.343 35.152 227.026 36.688C227.751 38.1813 228.647 38.928 229.714 38.928C230.781 38.928 231.805 38.0533 232.786 36.304C233.767 34.5547 235.026 31.5467 236.562 27.28C236.647 25.8293 236.69 24.912 236.69 24.528C236.349 23.888 235.645 23.248 234.578 22.608C233.511 21.9253 232.594 21.584 231.826 21.584ZM235.73 42.576C230.866 47.824 228.434 52.0267 228.434 55.184C228.434 56.6347 228.69 57.8293 229.202 58.768C229.714 59.7067 230.418 60.176 231.314 60.176C232.679 60.176 233.639 59.4293 234.194 57.936C234.749 56.4427 235.154 53.4133 235.41 48.848L235.73 42.576Z" fill="url(#paint0_linear)"/>
<path d="M28.24 31.44L26.6015 30.2931L26.5951 30.3023L28.24 31.44ZM29.52 29.2L27.776 28.2209L27.7603 28.2489L27.7456 28.2773L29.52 29.2ZM29.136 34L30.7887 35.1263L30.7899 35.1246L29.136 34ZM8.4 41.36L7.42871 43.1083L8.4 41.36ZM4.752 38.096L6.40785 36.9743L6.4039 36.9685L4.752 38.096ZM7.76 11.728L6.23647 10.4323L6.23541 10.4335L7.76 11.728ZM26.448 6.672L25.0834 8.13411L25.0966 8.14647L25.1101 8.15858L26.448 6.672ZM27.024 16.08L28.7516 17.0877L27.024 16.08ZM23.12 14.736L21.6108 13.4236L21.5942 13.4427L21.5781 13.4622L23.12 14.736ZM9.616 35.472L7.99612 36.645L8.00097 36.6517L8.00589 36.6584L9.616 35.472ZM29.8785 32.5869C30.2592 32.0429 30.7378 31.1932 31.2944 30.1227L27.7456 28.2773C27.1929 29.3401 26.8181 29.9837 26.6015 30.2931L29.8785 32.5869ZM31.264 30.1791C31.9397 28.9754 32.454 28.1166 32.8161 27.5734C33.0021 27.2943 33.113 27.152 33.1595 27.0989C33.1865 27.0682 33.1472 27.1189 33.0505 27.1935C33.0002 27.2321 32.8962 27.3072 32.7441 27.3782C32.5991 27.446 32.3216 27.552 31.952 27.552V23.552C31.2213 23.552 30.7273 23.9339 30.6095 24.0245C30.4141 24.1751 30.2589 24.3398 30.1525 24.4611C29.9324 24.712 29.7072 25.0257 29.4879 25.3546C29.0394 26.0274 28.4656 26.9926 27.776 28.2209L31.264 30.1791ZM31.952 27.552C31.7185 27.552 31.1993 27.4729 30.7828 26.997C30.4111 26.5721 30.4 26.1409 30.4 26.064H34.4C34.4 25.6458 34.3143 24.9586 33.7932 24.363C33.2274 23.7164 32.4842 23.552 31.952 23.552V27.552ZM30.4 26.064C30.4 27.5363 29.5975 29.7645 27.4821 32.8754L30.7899 35.1246C33.0265 31.8354 34.4 28.773 34.4 26.064H30.4ZM27.4833 32.8737C23.9006 38.131 19.2711 40.64 13.456 40.64V44.64C20.6969 44.64 26.5208 41.389 30.7887 35.1263L27.4833 32.8737ZM13.456 40.64C11.9456 40.64 10.5968 40.2925 9.37129 39.6117L7.42871 43.1083C9.27516 44.1341 11.297 44.64 13.456 44.64V40.64ZM9.37129 39.6117C8.08162 38.8952 7.11092 38.0122 6.40784 36.9743L3.09616 39.2177C4.18508 40.8252 5.64638 42.1181 7.42871 43.1083L9.37129 39.6117ZM6.4039 36.9685C4.77108 34.5762 4 32.1476 4 29.648H0C0 33.0364 1.06358 36.2397 3.1001 39.2235L6.4039 36.9685ZM4 29.648C4 22.5753 5.82262 17.0999 9.28459 13.0225L6.23541 10.4335C2.01738 15.4014 0 21.8727 0 29.648H4ZM9.28353 13.0237C12.8427 8.83881 16.8978 6.88 21.52 6.88V2.88C15.5609 2.88 10.4427 5.48652 6.23647 10.4323L9.28353 13.0237ZM21.52 6.88C23.0978 6.88 24.2277 7.33553 25.0834 8.13411L27.8126 5.20989C26.1083 3.61914 23.9528 2.88 21.52 2.88V6.88ZM25.1101 8.15858C25.9496 8.91416 26.368 9.83684 26.368 11.088H30.368C30.368 8.75516 29.5064 6.73383 27.7859 5.18541L25.1101 8.15858ZM26.368 11.088C26.368 12.5288 26.0126 13.8446 25.2964 15.0723L28.7516 17.0877C29.8274 15.2434 30.368 13.2312 30.368 11.088H26.368ZM25.2964 15.0723C24.6028 16.2614 24.0654 16.384 23.76 16.384V20.384C26.0146 20.384 27.6532 18.9706 28.7516 17.0877L25.2964 15.0723ZM23.76 16.384C23.5369 16.384 23.3923 16.3682 23.3097 16.353C23.2231 16.337 23.249 16.3299 23.3342 16.3768C23.4306 16.4301 23.5974 16.5512 23.7318 16.7738C23.8685 16.9999 23.904 17.2186 23.904 17.36H19.904C19.904 17.8427 20.0169 18.3601 20.3082 18.8422C20.5973 19.3208 20.996 19.6553 21.4018 19.8792C22.1531 20.2936 23.0229 20.384 23.76 20.384V16.384ZM23.904 17.36C23.904 17.277 23.9677 16.8502 24.6619 16.0098L21.5781 13.4622C20.651 14.5845 19.904 15.907 19.904 17.36H23.904ZM24.6292 16.0484C25.6946 14.8231 26.4 13.394 26.4 11.792H22.4C22.4 12.1527 22.252 12.6862 21.6108 13.4236L24.6292 16.0484ZM26.4 11.792C26.4 9.93287 25.8961 8.18065 24.5493 6.92253C23.2282 5.68834 21.4331 5.248 19.536 5.248V9.248C20.8816 9.248 21.5184 9.56499 21.8187 9.84547C22.0933 10.102 22.4 10.6218 22.4 11.792H26.4ZM19.536 5.248C15.296 5.248 11.8655 8.13226 9.12001 12.678L12.544 14.746C15.0039 10.6731 17.376 9.248 19.536 9.248V5.248ZM9.12001 12.678C6.34887 17.2663 4.928 22.0575 4.928 27.024H8.928C8.928 22.8599 10.1098 18.7764 12.544 14.746L9.12001 12.678ZM4.928 27.024C4.928 30.5876 5.94836 33.8172 7.99612 36.645L11.2359 34.299C9.69964 32.1775 8.928 29.7751 8.928 27.024H4.928ZM8.00589 36.6584C10.206 39.6443 13.3442 41.12 17.168 41.12V37.12C14.5064 37.12 12.61 36.1637 11.2261 34.2856L8.00589 36.6584ZM17.168 41.12C21.992 41.12 26.2061 37.8964 29.8849 32.5777L26.5951 30.3023C23.1912 35.2236 20.024 37.12 17.168 37.12V41.12ZM49.047 28.112L47.0472 28.1423L47.0883 30.8516L49.6652 30.0141L49.047 28.112ZM52.567 26.704L53.596 28.419L53.6116 28.4096L53.627 28.4L52.567 26.704ZM54.103 25.744L53.0953 24.0164L53.0689 24.0318L53.043 24.048L54.103 25.744ZM54.871 25.296L55.8787 27.0236L55.8894 27.0173L55.9 27.011L54.871 25.296ZM53.911 27.728L55.0685 29.359L55.0857 29.3468L55.1027 29.3342L53.911 27.728ZM48.983 30.288L48.2542 28.4255L47.0934 28.8797L46.9899 30.1219L48.983 30.288ZM45.591 38.992L44.093 37.6669L45.591 38.992ZM31.127 39.184L29.4578 40.2857L29.4629 40.2935L29.4681 40.3012L31.127 39.184ZM31.511 23.696L29.8556 22.5737L29.849 22.5834L29.8426 22.5931L31.511 23.696ZM38.039 19.92V21.92H38.6799L39.2015 21.5475L38.039 19.92ZM46.871 21.264L45.313 22.518L46.871 21.264ZM44.887 31.376L46.8813 31.5265L47.0529 29.2526L44.7761 29.3791L44.887 31.376ZM42.583 31.504V33.504H42.6385L42.6939 33.5009L42.583 31.504ZM37.591 29.776L36.274 31.2812L36.2875 31.293L36.3013 31.3046L37.591 29.776ZM36.247 22.224L38.0651 23.0573L35.0065 20.6552L36.247 22.224ZM34.775 36.688L32.9543 37.5156L32.9579 37.5235L32.9616 37.5315L34.775 36.688ZM43.095 37.136L44.7591 38.2454L44.7661 38.2349L44.7729 38.2244L43.095 37.136ZM39.319 21.712L41.0014 22.7935L41.0181 22.7675L41.034 22.741L39.319 21.712ZM40.343 27.536L38.9889 29.0079L39.0032 29.0211L39.0179 29.034L40.343 27.536ZM44.951 29.008V31.008H47.0343L46.9493 28.9264L44.951 29.008ZM43.863 23.312L41.9753 23.9727L41.9826 23.9936L41.9903 24.0142L43.863 23.312ZM49.6652 30.0141C51.3713 29.4596 52.741 28.932 53.596 28.419L51.538 24.989C51.113 25.244 50.136 25.6551 48.4288 26.2099L49.6652 30.0141ZM53.627 28.4C54.3097 27.9733 54.8217 27.6533 55.163 27.44L53.043 24.048C52.7017 24.2613 52.1897 24.5813 51.507 25.008L53.627 28.4ZM55.1107 27.4716L55.8787 27.0236L53.8633 23.5684L53.0953 24.0164L55.1107 27.4716ZM55.9 27.011C55.9375 26.9885 55.9219 27.0019 55.8612 27.0247C55.8095 27.0441 55.6372 27.104 55.383 27.104V23.104C54.6869 23.104 54.1227 23.4126 53.842 23.581L55.9 27.011ZM55.383 27.104C55.1804 27.104 54.6806 27.0362 54.2722 26.5767C53.9037 26.1622 53.895 25.7421 53.895 25.68H57.895C57.895 25.2339 57.801 24.5258 57.2618 23.9193C56.6828 23.2678 55.927 23.104 55.383 23.104V27.104ZM53.895 25.68C53.895 25.2367 54.0696 24.9727 54.0712 24.9701C54.0919 24.9367 54.0736 24.9738 53.9625 25.0884C53.7428 25.3152 53.3467 25.6563 52.7193 26.1218L55.1027 29.3342C55.798 28.8183 56.3939 28.3274 56.8355 27.8716C57.0551 27.6449 57.2848 27.378 57.4708 27.0779C57.6377 26.8087 57.895 26.3153 57.895 25.68H53.895ZM52.7535 26.097C51.5965 26.9181 50.1077 27.7003 48.2542 28.4255L49.7118 32.1505C51.7837 31.3397 53.5802 30.4152 55.0685 29.359L52.7535 26.097ZM46.9899 30.1219C46.7192 33.3705 45.7132 35.8354 44.093 37.6669L47.089 40.3171C49.3941 37.7113 50.6495 34.3735 50.9761 30.4541L46.9899 30.1219ZM44.093 37.6669C42.5935 39.362 40.4002 40.32 37.207 40.32V44.32C41.2672 44.32 44.6632 43.0594 47.089 40.3171L44.093 37.6669ZM37.207 40.32C35.1878 40.32 33.8008 39.5738 32.7859 38.0668L29.4681 40.3012C31.2692 42.9756 33.9356 44.32 37.207 44.32V40.32ZM32.7962 38.0823C31.6257 36.3088 31.015 34.2257 31.015 31.76H27.015C27.015 34.9263 27.8123 37.7925 29.4578 40.2857L32.7962 38.0823ZM31.015 31.76C31.015 29.3158 31.719 27.0082 33.1794 24.7989L29.8426 22.5931C27.975 25.4185 27.015 28.4868 27.015 31.76H31.015ZM33.1664 24.8183C34.5656 22.7545 36.1643 21.92 38.039 21.92V17.92C34.623 17.92 31.8697 19.6028 29.8556 22.5737L33.1664 24.8183ZM39.2015 21.5475C40.0216 20.9616 41.0129 20.64 42.263 20.64V16.64C40.2704 16.64 38.4457 17.1717 36.8765 18.2925L39.2015 21.5475ZM42.263 20.64C43.1271 20.64 44.1431 21.0646 45.313 22.518L48.429 20.01C46.7829 17.9648 44.7269 16.64 42.263 16.64V20.64ZM45.313 22.518C46.3768 23.8397 47.0096 25.6566 47.0472 28.1423L51.0468 28.0817C50.9991 24.9354 50.1812 22.1869 48.429 20.01L45.313 22.518ZM44.7761 29.3791L42.4721 29.5071L42.6939 33.5009L44.9979 33.3729L44.7761 29.3791ZM42.583 29.504C41.0425 29.504 39.8489 29.0643 38.8807 28.2474L36.3013 31.3046C38.0638 32.7917 40.1982 33.504 42.583 33.504V29.504ZM38.908 28.2708C37.8429 27.3389 37.543 26.5466 37.543 25.872H33.543C33.543 28.0134 34.6084 29.8238 36.274 31.2812L38.908 28.2708ZM37.543 25.872C37.543 24.6818 37.7417 23.763 38.0651 23.0573L34.4289 21.3907C33.8137 22.733 33.543 24.2462 33.543 25.872H37.543ZM35.0065 20.6552C32.4142 22.7049 31.495 26.3964 31.495 30.8H35.495C35.495 26.6702 36.4104 24.6444 37.4875 23.7928L35.0065 20.6552ZM31.495 30.8C31.495 33.1355 31.9836 35.3802 32.9543 37.5156L36.5957 35.8604C35.8597 34.2411 35.495 32.5605 35.495 30.8H31.495ZM32.9616 37.5315C33.5033 38.6962 34.2619 39.6984 35.2955 40.4039C36.3411 41.1176 37.5406 41.44 38.807 41.44V37.44C38.2388 37.44 37.8489 37.3037 37.5505 37.1001C37.2401 36.8883 36.9 36.5144 36.5884 35.8445L32.9616 37.5315ZM38.807 41.44C41.3154 41.44 43.3669 40.3336 44.7591 38.2454L41.4309 36.0266C40.7751 37.0104 39.968 37.44 38.807 37.44V41.44ZM44.7729 38.2244C46.0132 36.3122 46.6906 34.0538 46.8813 31.5265L42.8927 31.2255C42.7421 33.2209 42.2248 34.8024 41.4171 36.0476L44.7729 38.2244ZM40.919 18.752C39.4582 18.752 38.3088 19.5084 37.604 20.683L41.034 22.741C41.0629 22.6927 41.0805 22.6742 41.081 22.6737C41.0812 22.6735 41.0774 22.6774 41.0695 22.6838C41.0615 22.6903 41.0503 22.6984 41.036 22.707C41.0055 22.7253 40.9728 22.7386 40.944 22.7461C40.9163 22.7534 40.9055 22.752 40.919 22.752V18.752ZM37.6366 20.6305C37.0406 21.5577 36.743 22.5959 36.743 23.696H40.743C40.743 23.3455 40.8294 23.061 41.0014 22.7935L37.6366 20.6305ZM36.743 23.696C36.743 25.7783 37.4713 27.6117 38.9889 29.0079L41.6971 26.0641C41.0814 25.4977 40.743 24.771 40.743 23.696H36.743ZM39.0179 29.034C40.4844 30.3313 42.233 31.008 44.183 31.008V27.008C43.2317 27.008 42.4203 26.7034 41.6681 26.038L39.0179 29.034ZM44.183 31.008H44.951V27.008H44.183V31.008ZM46.9493 28.9264C46.8566 26.6543 46.4604 24.5423 45.7357 22.6098L41.9903 24.0142C42.5456 25.495 42.8747 27.1803 42.9527 29.0896L46.9493 28.9264ZM45.7507 22.6513C45.3799 21.5918 44.827 20.6094 43.9914 19.8828C43.1174 19.1228 42.0578 18.752 40.919 18.752V22.752C41.1456 22.752 41.2593 22.8078 41.3666 22.9012C41.5123 23.0279 41.7488 23.3255 41.9753 23.9727L45.7507 22.6513ZM67.8155 41.36L66.4013 42.7742L66.4842 42.8571L66.5762 42.9298L67.8155 41.36ZM67.4955 32.976L69.4925 33.0849L65.6228 32.2738L67.4955 32.976ZM63.9755 39.952L65.5703 41.1589L63.9755 39.952ZM54.8235 39.952L53.2494 41.1858L53.2596 41.1988L53.27 41.2116L54.8235 39.952ZM55.8475 23.248L54.2413 22.0563L54.2351 22.0647L54.2289 22.0732L55.8475 23.248ZM68.3275 21.072L67.1611 22.6966L70.0318 24.7577L70.3208 21.2356L68.3275 21.072ZM70.1835 6.992L68.4277 6.03429L68.4182 6.0517L68.4091 6.06929L70.1835 6.992ZM71.9755 4.944L70.627 3.46702L70.6106 3.48198L70.5946 3.49729L71.9755 4.944ZM74.7275 12.688L76.6621 13.1951L76.665 13.1841L76.6678 13.1731L74.7275 12.688ZM72.5515 21.072L70.6112 20.5869L70.583 20.6997L70.5681 20.8149L72.5515 21.072ZM72.0395 39.056V41.056H72.095L72.1504 41.0529L72.0395 39.056ZM75.1115 36.368L73.4974 35.187L75.1115 36.368ZM78.8875 29.584L77.0667 28.7564L77.061 28.7691L78.8875 29.584ZM79.7835 31.568L77.9772 30.7093L77.9736 30.7169L79.7835 31.568ZM59.6875 24.336L57.9937 23.2725H57.9937L59.6875 24.336ZM58.8555 36.624L56.9915 37.3489L57.0002 37.3712L57.0093 37.3932L58.8555 36.624ZM67.8155 27.408L69.7191 28.0214L69.7872 27.8101L69.8073 27.5891L67.8155 27.408ZM68.1355 23.248H70.1355V22.355L69.4706 21.7589L68.1355 23.248ZM71.2075 40.32C70.0281 40.32 69.3942 40.0582 69.0548 39.7902L66.5762 42.9298C67.8582 43.9418 69.4855 44.32 71.2075 44.32V40.32ZM69.2297 39.9458C69.3873 40.1033 69.4393 40.2347 69.4395 40.2353C69.4425 40.2424 69.4218 40.1925 69.3962 40.0578C69.3439 39.7833 69.3035 39.3359 69.3035 38.672H65.3035C65.3035 39.4587 65.3484 40.1847 65.4668 40.8062C65.5704 41.35 65.7895 42.1624 66.4013 42.7742L69.2297 39.9458ZM69.3035 38.672C69.3035 37.2728 69.3655 35.4145 69.4925 33.0849L65.4985 32.8671C65.3695 35.2308 65.3035 37.1698 65.3035 38.672H69.3035ZM65.6228 32.2738C64.5004 35.267 63.4076 37.3881 62.3807 38.7451L65.5703 41.1589C66.9327 39.3586 68.1866 36.829 69.3682 33.6782L65.6228 32.2738ZM62.3807 38.7451C61.5294 39.87 60.5844 40.32 59.4315 40.32V44.32C61.9479 44.32 64.0322 43.1913 65.5703 41.1589L62.3807 38.7451ZM59.4315 40.32C58.3281 40.32 57.3347 39.8736 56.377 38.6924L53.27 41.2116C54.8723 43.1878 56.9509 44.32 59.4315 44.32V40.32ZM56.3976 38.7182C55.574 37.6674 54.9675 35.7003 54.9675 32.4H50.9675C50.9675 36.0117 51.5983 39.0792 53.2494 41.1858L56.3976 38.7182ZM54.9675 32.4C54.9675 29.3403 55.8087 26.7063 57.4661 24.4228L54.2289 22.0732C52.0463 25.0803 50.9675 28.5477 50.9675 32.4H54.9675ZM57.4537 24.4397C59.0582 22.277 61.0348 21.28 63.5275 21.28V17.28C59.7055 17.28 56.5621 18.9283 54.2413 22.0563L57.4537 24.4397ZM63.5275 21.28C64.5255 21.28 65.725 21.6656 67.1611 22.6966L69.4939 19.4474C67.602 18.0891 65.6015 17.28 63.5275 17.28V21.28ZM70.3208 21.2356C70.6611 17.0877 70.9833 13.872 71.2863 11.5734C71.4381 10.4221 71.5817 9.52667 71.7153 8.87121C71.8629 8.14616 71.9627 7.90549 71.9579 7.9147L68.4091 6.06929C68.1269 6.61183 67.9414 7.35783 67.7957 8.07279C67.6359 8.85733 67.4782 9.85525 67.3207 11.0506C67.005 13.4453 66.6765 16.7363 66.3342 20.9084L70.3208 21.2356ZM71.9393 7.9497C72.03 7.78333 72.4145 7.28989 73.3565 6.39071L70.5946 3.49729C69.6592 4.39011 68.849 5.262 68.4277 6.03429L71.9393 7.9497ZM73.324 6.42097C73.7444 6.0372 74.064 5.80964 74.2869 5.68648C74.5199 5.5577 74.5437 5.6 74.4075 5.6V1.6C73.6313 1.6 72.9298 1.86629 72.3521 2.18551C71.7643 2.51035 71.188 2.95479 70.627 3.46702L73.324 6.42097ZM74.4075 5.6C74.2183 5.6 74.0135 5.56116 73.8154 5.47246C73.6207 5.38531 73.4782 5.27069 73.3829 5.17114C73.2118 4.99241 73.1912 4.86312 73.2222 4.96008C73.2475 5.0393 73.2874 5.2092 73.3187 5.50357C73.3493 5.79094 73.3675 6.1561 73.3675 6.608H77.3675C77.3675 5.55012 77.2891 4.54704 77.0328 3.74392C76.8055 3.03164 76.1067 1.6 74.4075 1.6V5.6ZM73.3675 6.608C73.3675 8.84184 73.1636 10.6975 72.7872 12.2029L76.6678 13.1731C77.1448 11.2651 77.3675 9.06749 77.3675 6.608H73.3675ZM72.7929 12.1809C71.6418 16.572 70.9132 19.3789 70.6112 20.5869L74.4918 21.5571C74.7871 20.3758 75.5092 17.5933 76.6621 13.1951L72.7929 12.1809ZM70.5681 20.8149C69.9567 25.5312 69.6555 31.0396 69.6555 37.328H73.6555C73.6555 31.1577 73.9516 25.8288 74.5349 21.3291L70.5681 20.8149ZM69.6555 37.328C69.6555 37.9397 69.6862 38.5497 69.7991 39.0579C69.8524 39.2974 69.9588 39.6845 70.2074 40.0574C70.4823 40.4698 71.0833 41.056 72.0395 41.056V37.056C72.4069 37.056 72.7501 37.166 73.031 37.3466C73.2928 37.515 73.4507 37.7112 73.5356 37.8386C73.6882 38.0675 73.7146 38.2386 73.7039 38.1901C73.6888 38.1223 73.6555 37.8683 73.6555 37.328H69.6555ZM72.1504 41.0529C73.211 40.994 74.0827 40.3977 74.7005 39.8572C75.3684 39.2728 76.0434 38.4813 76.7256 37.549L73.4974 35.187C72.8996 36.004 72.4226 36.5352 72.0665 36.8468C71.6603 37.2023 71.636 37.0753 71.9286 37.0591L72.1504 41.0529ZM76.7256 37.549C78.1149 35.6502 79.44 33.2543 80.714 30.3989L77.061 28.7691C75.8603 31.4604 74.6681 33.5871 73.4974 35.187L76.7256 37.549ZM80.7082 30.4116C81.3429 29.0153 81.8309 28.0124 82.1793 27.3737C82.3582 27.0458 82.4695 26.8712 82.521 26.8003C82.5512 26.7588 82.5169 26.8142 82.423 26.9003C82.3748 26.9445 82.2665 27.0381 82.1013 27.1289C81.9444 27.2152 81.6258 27.36 81.1915 27.36V23.36C80.3468 23.36 79.8125 23.867 79.72 23.9517C79.5301 24.1258 79.3838 24.3132 79.286 24.4477C79.0815 24.7288 78.8728 25.0822 78.6677 25.4583C78.2481 26.2276 77.7121 27.3367 77.0668 28.7564L80.7082 30.4116ZM81.1915 27.36C80.958 27.36 80.4388 27.2809 80.0223 26.805C79.6506 26.3801 79.6395 25.9489 79.6395 25.872H83.6395C83.6395 25.4538 83.5538 24.7666 83.0327 24.171C82.4669 23.5244 81.7237 23.36 81.1915 23.36V27.36ZM79.6395 25.872C79.6395 26.5679 79.2187 28.098 77.9772 30.7093L81.5898 32.4267C82.823 29.8327 83.6395 27.5654 83.6395 25.872H79.6395ZM77.9736 30.7169C76.3141 34.246 74.8346 36.7718 73.548 38.3849C72.1691 40.1136 71.3905 40.32 71.2075 40.32V44.32C73.3711 44.32 75.1952 42.7344 76.675 40.8791C78.2471 38.9082 79.8822 36.058 81.5934 32.4191L77.9736 30.7169ZM63.1435 19.584C60.8727 19.584 59.2006 21.3503 57.9937 23.2725L61.3813 25.3995C62.4784 23.6523 63.1103 23.584 63.1435 23.584V19.584ZM57.9937 23.2725C56.6178 25.4637 55.9595 27.9752 55.9595 30.736H59.9595C59.9595 28.6328 60.4532 26.8776 61.3813 25.3995L57.9937 23.2725ZM55.9595 30.736C55.9595 33.2713 56.2735 35.5027 56.9915 37.3489L60.7195 35.8991C60.2428 34.6733 59.9595 32.9793 59.9595 30.736H55.9595ZM57.0093 37.3932C57.7036 39.0595 58.9729 40.928 61.2235 40.928V36.928C61.2708 36.928 61.322 36.9396 61.3598 36.9564C61.3921 36.9707 61.3776 36.9724 61.3222 36.9185C61.1944 36.7942 60.9657 36.4885 60.7017 35.8548L57.0093 37.3932ZM61.2235 40.928C62.4026 40.928 63.365 40.3371 64.0796 39.6706C64.8 38.9987 65.4484 38.088 66.0474 37.0413C67.2496 34.9403 68.4679 31.9045 69.7191 28.0214L65.9119 26.7946C64.6884 30.5915 63.5707 33.3157 62.5756 35.0547C62.0759 35.928 61.6603 36.4573 61.3514 36.7454C61.0367 37.0389 61.0044 36.928 61.2235 36.928V40.928ZM69.8073 27.5891C70.0159 25.2947 70.1355 23.7899 70.1355 23.248H66.1355C66.1355 23.5594 66.0418 24.8279 65.8237 27.2269L69.8073 27.5891ZM69.4706 21.7589C67.7788 20.2421 65.5951 19.584 63.1435 19.584V23.584C64.8733 23.584 66.0175 24.0353 66.8004 24.7371L69.4706 21.7589ZM85.259 13.328L86.8765 14.5043L86.8888 14.4874L86.9008 14.4701L85.259 13.328ZM79.243 41.296L77.8288 42.7102L77.9071 42.7885L77.9936 42.8577L79.243 41.296ZM79.179 28.944L77.1838 28.8057L77.1831 28.815L77.1826 28.8242L79.179 28.944ZM79.947 21.968L78.251 20.908V20.908L79.947 21.968ZM81.931 20.048L80.6391 18.5212V18.5212L81.931 20.048ZM85.067 23.568L83.1085 23.1628L83.1017 23.1954L83.0961 23.2282L85.067 23.568ZM84.299 26.256L82.5381 25.3078L82.4817 25.4124L82.4382 25.5229L84.299 26.256ZM83.851 39.056V41.056H83.9098L83.9684 41.0525L83.851 39.056ZM86.859 36.368L88.4731 37.549L88.4798 37.5398L88.4865 37.5305L86.859 36.368ZM90.635 29.52L88.8191 28.6819L88.8137 28.6935L88.8085 28.7051L90.635 29.52ZM91.531 31.568L89.7247 30.7093L89.7211 30.7169L91.531 31.568ZM83.163 10.704C83.163 10.6902 83.1645 10.6889 83.1631 10.6936C83.1618 10.6983 83.1621 10.6936 83.1722 10.6771C83.194 10.6415 83.2757 10.5298 83.5084 10.3706L81.2496 7.06938C80.0642 7.88044 79.163 9.09344 79.163 10.704H83.163ZM83.5084 10.3706C84.1522 9.93007 84.4807 9.888 84.555 9.888V5.888C83.3493 5.888 82.2271 6.40059 81.2496 7.06938L83.5084 10.3706ZM84.555 9.888C84.6564 9.888 84.6567 9.90305 84.5961 9.87987C84.5645 9.86778 84.5214 9.84709 84.4734 9.81401C84.425 9.78065 84.3805 9.74086 84.3428 9.69756C84.2651 9.60831 84.249 9.54344 84.2543 9.56162C84.2614 9.58596 84.283 9.68001 84.283 9.872H88.283C88.283 8.96498 88.0915 7.91122 87.3592 7.07044C86.5809 6.17684 85.5167 5.888 84.555 5.888V9.888ZM84.283 9.872C84.283 10.8317 84.042 11.5752 83.6172 12.1859L86.9008 14.4701C87.8413 13.1181 88.283 11.5576 88.283 9.872H84.283ZM83.6415 12.1517C83.3634 12.5341 83.026 12.736 82.379 12.736V16.736C84.2067 16.736 85.7893 15.9993 86.8765 14.5043L83.6415 12.1517ZM82.379 12.736C82.8115 12.736 83.1526 12.946 83.3301 13.1422C83.456 13.2814 83.4399 13.3432 83.3818 13.1505C83.266 12.7664 83.163 11.9966 83.163 10.704H79.163C79.163 12.0994 79.2627 13.3456 79.5522 14.3055C79.6967 14.7848 79.934 15.3506 80.3639 15.8258C80.8454 16.358 81.5412 16.736 82.379 16.736V12.736ZM83.019 40.32C81.5831 40.32 80.8477 40.0185 80.4924 39.7343L77.9936 42.8577C79.345 43.9388 81.1269 44.32 83.019 44.32V40.32ZM80.6572 39.8818C80.9086 40.1332 80.9652 40.3589 80.9473 40.3045C80.9417 40.2874 80.9158 40.1957 80.8877 39.9947C80.8317 39.595 80.795 38.9753 80.795 38.096H76.795C76.795 39.0514 76.8329 39.8824 76.9263 40.5493C76.9728 40.8816 77.0403 41.2273 77.1467 41.5515C77.2408 41.8384 77.4281 42.3095 77.8288 42.7102L80.6572 39.8818ZM80.795 38.096C80.795 36.3268 80.9195 33.3288 81.1754 29.0638L77.1826 28.8242C76.9265 33.0925 76.795 36.1958 76.795 38.096H80.795ZM81.1742 29.0823C81.323 26.9361 81.4594 25.3091 81.583 24.1869C81.6451 23.6224 81.701 23.214 81.7487 22.9427C81.7729 22.8053 81.79 22.7324 81.7971 22.7059C81.8188 22.6245 81.7854 22.8002 81.643 23.028L78.251 20.908C78.0553 21.2212 77.9672 21.5442 77.9329 21.6721C77.884 21.8549 77.8438 22.0533 77.8093 22.2493C77.7397 22.6447 77.6729 23.1509 77.607 23.7491C77.4746 24.9522 77.3337 26.6425 77.1838 28.8057L81.1742 29.0823ZM81.643 23.028C81.6089 23.0825 81.6695 22.983 81.9938 22.6692C82.2798 22.3925 82.6852 22.0297 83.2229 21.5748L80.6391 18.5212C80.0675 19.0049 79.5876 19.4315 79.2122 19.7948C78.8751 20.121 78.4984 20.5121 78.251 20.908L81.643 23.028ZM83.2229 21.5748C83.7204 21.1538 84.0986 20.892 84.3668 20.7444C84.6642 20.5809 84.6782 20.64 84.491 20.64V16.64C83.7064 16.64 82.9952 16.9338 82.4392 17.2396C81.8541 17.5613 81.251 18.0035 80.6391 18.5212L83.2229 21.5748ZM84.491 20.64C84.1883 20.64 83.8689 20.5297 83.6206 20.3201C83.5128 20.229 83.4444 20.1409 83.4052 20.0812C83.3666 20.0226 83.3516 19.9846 83.3507 19.9823C83.3496 19.9795 83.3578 20 83.3698 20.0509C83.3818 20.1012 83.3954 20.1727 83.4081 20.2689C83.4338 20.464 83.451 20.728 83.451 21.072H87.451C87.451 20.1883 87.372 19.2754 87.0713 18.5137C86.9144 18.1163 86.6529 17.6452 86.2014 17.2639C85.7132 16.8517 85.1137 16.64 84.491 16.64V20.64ZM83.451 21.072C83.451 21.2604 83.3712 21.893 83.1085 23.1628L87.0255 23.9732C87.2748 22.7683 87.451 21.7369 87.451 21.072H83.451ZM83.0961 23.2282C82.8905 24.4204 82.6766 25.0505 82.5381 25.3078L86.0599 27.2042C86.5187 26.3522 86.8168 25.1903 87.0379 23.9078L83.0961 23.2282ZM82.4382 25.5229C82.0378 26.5392 81.8188 28.0909 81.6806 29.9301C81.5367 31.846 81.467 34.3176 81.467 37.328H85.467C85.467 34.3651 85.536 32.0046 85.6694 30.2299C85.8085 28.3785 86.0055 27.3808 86.1598 26.989L82.4382 25.5229ZM81.467 37.328C81.467 37.9397 81.4977 38.5497 81.6106 39.0579C81.6639 39.2974 81.7703 39.6845 82.0189 40.0574C82.2938 40.4698 82.8948 41.056 83.851 41.056V37.056C84.2184 37.056 84.5616 37.166 84.8425 37.3466C85.1043 37.5149 85.2622 37.7112 85.3471 37.8386C85.4997 38.0675 85.5261 38.2386 85.5154 38.1901C85.5003 38.1223 85.467 37.8683 85.467 37.328H81.467ZM83.9684 41.0525C85.0297 40.9901 85.892 40.3685 86.4797 39.8433C87.1289 39.2631 87.794 38.4771 88.4731 37.549L85.2449 35.187C84.644 36.0083 84.1677 36.5449 83.8143 36.8607C83.64 37.0165 83.5332 37.0844 83.4923 37.1066C83.4481 37.1306 83.5372 37.071 83.7336 37.0595L83.9684 41.0525ZM88.4865 37.5305C89.8672 35.5974 91.1885 33.1881 92.4615 30.3349L88.8085 28.7051C87.6068 31.3986 86.4108 33.5546 85.2315 35.2055L88.4865 37.5305ZM92.4509 30.3581C93.0855 28.9832 93.5729 27.9967 93.9206 27.369C94.0991 27.0466 94.2096 26.8762 94.2599 26.8081C94.2894 26.7681 94.2541 26.8238 94.1592 26.9095C94.1104 26.9536 94.002 27.0457 93.8376 27.1348C93.681 27.2197 93.3664 27.36 92.939 27.36V23.36C92.1056 23.36 91.575 23.8536 91.4788 23.9405C91.2878 24.1128 91.1406 24.2986 91.0421 24.4319C90.8364 24.7105 90.6269 25.06 90.4214 25.431C90.0011 26.19 89.4645 27.2834 88.8191 28.6819L92.4509 30.3581ZM92.939 27.36C92.7055 27.36 92.1863 27.2809 91.7698 26.805C91.398 26.3801 91.387 25.9489 91.387 25.872H95.387C95.387 25.4538 95.3013 24.7666 94.7802 24.171C94.2144 23.5244 93.4712 23.36 92.939 23.36V27.36ZM91.387 25.872C91.387 26.5679 90.9662 28.098 89.7247 30.7093L93.3373 32.4267C94.5705 29.8327 95.387 27.5654 95.387 25.872H91.387ZM89.7211 30.7169C88.061 34.2473 86.5856 36.7754 85.3069 38.3906C83.9305 40.1293 83.1696 40.32 83.019 40.32V44.32C85.1724 44.32 86.9822 42.7187 88.4431 40.8734C90.0018 38.9046 91.6303 36.0567 93.3409 32.4191L89.7211 30.7169ZM95.6145 38.544H93.6145V38.5762L93.6155 38.6085L95.6145 38.544ZM95.6785 40.528H97.6785V40.4958L97.6775 40.4635L95.6785 40.528ZM91.7105 41.936L91.1041 43.8419L91.1439 43.8545L91.1843 43.8655L91.7105 41.936ZM90.6225 35.728L88.6302 35.5522L88.6291 35.5657L88.628 35.5792L90.6225 35.728ZM91.6465 21.712L93.0607 23.1262H93.0607L91.6465 21.712ZM93.8865 19.856L92.7065 18.2412L92.6913 18.2523L92.6763 18.2637L93.8865 19.856ZM97.2145 18.896L98.8145 17.696L98.8145 17.696L97.2145 18.896ZM96.1265 26.256L94.2862 25.4729L94.1619 25.765L94.1341 26.0812L96.1265 26.256ZM95.8065 31.312H93.8065V37.9175L97.4706 32.4214L95.8065 31.312ZM98.4945 26.96L96.7893 25.9149L98.4945 26.96ZM102.59 21.136L101.127 19.7732L101.114 19.7869L101.101 19.8009L102.59 21.136ZM108.031 20.176L106.713 21.6812L106.736 21.7008L106.759 21.7199L108.031 20.176ZM108.479 30.736L106.492 30.505L106.491 30.5152L106.49 30.5254L108.479 30.736ZM108.286 39.056V41.056H108.345L108.404 41.0525L108.286 39.056ZM111.294 36.368L112.909 37.549L112.915 37.5398L112.922 37.5305L111.294 36.368ZM115.07 29.52L113.255 28.6819L113.249 28.6935L113.244 28.7051L115.07 29.52ZM115.966 31.568L114.16 30.7093L114.157 30.7169L115.966 31.568ZM103.678 41.296L102.264 42.7102L102.343 42.7885L102.429 42.8577L103.678 41.296ZM103.55 32.848L101.558 32.6696L101.557 32.6833L101.556 32.6969L103.55 32.848ZM99.3265 28.752L100.949 29.9213L100.957 29.91L99.3265 28.752ZM95.9985 34.32L97.9697 34.6579L97.972 34.6449L97.974 34.6319L95.9985 34.32ZM93.6155 38.6085L93.6795 40.5925L97.6775 40.4635L97.6135 38.4795L93.6155 38.6085ZM93.6785 40.528C93.6785 40.7373 93.6631 40.8682 93.6498 40.9378C93.6359 41.011 93.6325 40.9734 93.686 40.8797C93.7466 40.7738 93.8738 40.6093 94.0948 40.4804C94.3165 40.3511 94.5256 40.32 94.6545 40.32V44.32C95.7205 44.32 96.6357 43.7801 97.159 42.8643C97.5868 42.1156 97.6785 41.2503 97.6785 40.528H93.6785ZM94.6545 40.32C93.7989 40.32 92.9951 40.2133 92.2367 40.0065L91.1843 43.8655C92.3032 44.1707 93.4621 44.32 94.6545 44.32V40.32ZM92.3169 40.0301C92.1512 39.9774 92.0383 39.9309 91.967 39.8964C91.8934 39.8607 91.8883 39.8493 91.921 39.8761C91.9546 39.9036 92.0523 39.9913 92.1429 40.1562C92.2403 40.3333 92.3025 40.5514 92.3025 40.784H88.3025C88.3025 41.7851 88.8355 42.5199 89.388 42.9719C89.9022 43.3926 90.5256 43.6578 91.1041 43.8419L92.3169 40.0301ZM92.3025 40.784C92.3025 40.3668 92.4004 38.7791 92.617 35.8768L88.628 35.5792C88.418 38.3942 88.3025 40.1772 88.3025 40.784H92.3025ZM92.6148 35.9038C92.8719 32.9898 93.0065 30.7421 93.0065 29.2H89.0065C89.0065 30.5592 88.8851 32.6635 88.6302 35.5522L92.6148 35.9038ZM93.0065 29.2V25.424H89.0065V29.2H93.0065ZM93.0065 25.424C93.0065 24.4524 93.0583 23.7586 93.1374 23.2998C93.1767 23.0718 93.215 22.9494 93.2332 22.902C93.2566 22.8412 93.2231 22.9638 93.0607 23.1262L90.2323 20.2978C89.5462 20.9838 89.3106 21.953 89.1956 22.6202C89.0613 23.3987 89.0065 24.3476 89.0065 25.424H93.0065ZM93.0607 23.1262C93.3841 22.8028 94.0369 22.2538 95.0967 21.4483L92.6763 18.2637C91.6028 19.0796 90.7622 19.7678 90.2323 20.2978L93.0607 23.1262ZM95.0665 21.4708C95.5772 21.0976 95.9583 20.8596 96.2241 20.7231C96.3552 20.6558 96.4298 20.628 96.4556 20.6197C96.489 20.6089 96.4111 20.64 96.2545 20.64V16.64C95.5296 16.64 94.8651 16.9245 94.3969 17.1649C93.8734 17.4337 93.3051 17.8037 92.7065 18.2412L95.0665 21.4708ZM96.2545 20.64C96.4202 20.64 96.4365 20.656 96.3632 20.6365C96.321 20.6252 96.2194 20.5943 96.0902 20.5205C95.9577 20.4448 95.7768 20.3125 95.6145 20.096L98.8145 17.696C98.3685 17.1013 97.7615 16.8696 97.3938 16.7715C97.0005 16.6667 96.6008 16.64 96.2545 16.64V20.64ZM95.6145 20.096C95.5162 19.965 95.4631 19.8499 95.436 19.7808C95.4087 19.7109 95.3991 19.6651 95.3973 19.6562C95.395 19.6445 95.4065 19.7011 95.4065 19.856H99.4065C99.4065 19.5416 99.386 19.2035 99.3197 18.8718C99.2572 18.5594 99.1274 18.1132 98.8145 17.696L95.6145 20.096ZM95.4065 19.856C95.4065 21.8586 95.0302 23.7245 94.2862 25.4729L97.9668 27.0391C98.9295 24.7768 99.4065 22.3761 99.4065 19.856H95.4065ZM94.1341 26.0812C93.9213 28.5081 93.8065 30.2746 93.8065 31.312H97.8065C97.8065 30.4721 97.9051 28.8679 98.1189 26.4308L94.1341 26.0812ZM97.4706 32.4214C97.669 32.1238 98.5958 30.622 100.2 28.0051L96.7893 25.9149C95.1505 28.5886 94.2853 29.9882 94.1424 30.2026L97.4706 32.4214ZM100.2 28.0051C101.802 25.3907 103.093 23.5721 104.08 22.4711L101.101 19.8009C99.8698 21.1746 98.4295 23.2387 96.7893 25.9149L100.2 28.0051ZM104.054 22.4988C104.552 21.9647 104.954 21.6389 105.257 21.4558C105.558 21.2737 105.682 21.28 105.662 21.28V17.28C103.885 17.28 102.354 18.4547 101.127 19.7732L104.054 22.4988ZM105.662 21.28C106.067 21.28 106.39 21.3985 106.713 21.6812L109.348 18.6708C108.305 17.7589 107.05 17.28 105.662 17.28V21.28ZM106.759 21.7199C107.049 21.9586 107.118 22.1503 107.118 22.416H111.118C111.118 20.8897 110.463 19.5881 109.302 18.6321L106.759 21.7199ZM107.118 22.416C107.118 24.1739 106.916 26.854 106.492 30.505L110.465 30.967C110.894 27.2793 111.118 24.4128 111.118 22.416H107.118ZM106.49 30.5254C106.109 34.1181 105.902 36.5385 105.902 37.648H109.902C109.902 36.7948 110.08 34.6072 110.467 30.9466L106.49 30.5254ZM105.902 37.648C105.902 38.1628 105.933 38.7313 106.069 39.2302C106.135 39.4735 106.27 39.8665 106.571 40.2345C106.921 40.6623 107.51 41.056 108.286 41.056V37.056C108.574 37.056 108.863 37.1251 109.125 37.2623C109.378 37.3949 109.553 37.5631 109.666 37.7015C109.871 37.9521 109.926 38.1691 109.928 38.1778C109.936 38.2073 109.902 38.0719 109.902 37.648H105.902ZM108.404 41.0525C109.465 40.9901 110.328 40.3685 110.915 39.8433C111.564 39.2631 112.23 38.4771 112.909 37.549L109.68 35.187C109.079 36.0083 108.603 36.5449 108.25 36.8607C108.075 37.0165 107.969 37.0844 107.928 37.1066C107.884 37.1306 107.973 37.071 108.169 37.0595L108.404 41.0525ZM112.922 37.5305C114.303 35.5974 115.624 33.1881 116.897 30.3349L113.244 28.7051C112.042 31.3986 110.846 33.5546 109.667 35.2055L112.922 37.5305ZM116.886 30.3581C117.521 28.9832 118.008 27.9967 118.356 27.369C118.535 27.0466 118.645 26.8762 118.695 26.8081C118.725 26.7681 118.69 26.8238 118.595 26.9095C118.546 26.9536 118.438 27.0457 118.273 27.1348C118.116 27.2197 117.802 27.36 117.374 27.36V23.36C116.541 23.36 116.01 23.8536 115.914 23.9405C115.723 24.1128 115.576 24.2986 115.478 24.4319C115.272 24.7105 115.062 25.0601 114.857 25.431C114.437 26.19 113.9 27.2834 113.255 28.6819L116.886 30.3581ZM117.374 27.36C117.141 27.36 116.622 27.2809 116.205 26.805C115.834 26.3801 115.822 25.9489 115.822 25.872H119.822C119.822 25.4538 119.737 24.7666 119.216 24.171C118.65 23.5244 117.907 23.36 117.374 23.36V27.36ZM115.822 25.872C115.822 26.5679 115.402 28.098 114.16 30.7093L117.773 32.4267C119.006 29.8327 119.822 27.5654 119.822 25.872H115.822ZM114.157 30.7169C112.497 34.2473 111.021 36.7754 109.742 38.3906C108.366 40.1293 107.605 40.32 107.454 40.32V44.32C109.608 44.32 111.418 42.7187 112.879 40.8734C114.437 38.9046 116.066 36.0567 117.776 32.4191L114.157 30.7169ZM107.454 40.32C106.019 40.32 105.283 40.0185 104.928 39.7343L102.429 42.8577C103.78 43.9388 105.562 44.32 107.454 44.32V40.32ZM105.093 39.8818C105.256 40.0447 105.317 40.1864 105.326 40.2095C105.338 40.238 105.325 40.2153 105.306 40.1143C105.265 39.9067 105.23 39.5472 105.23 38.992H101.23C101.23 39.6741 101.27 40.3173 101.379 40.8777C101.474 41.3668 101.681 42.1265 102.264 42.7102L105.093 39.8818ZM105.23 38.992C105.23 37.7932 105.332 35.8098 105.545 32.9991L101.556 32.6969C101.342 35.5182 101.23 37.6308 101.23 38.992H105.23ZM105.543 33.0264C105.8 30.1559 105.934 27.9493 105.934 26.448H101.934C101.934 27.7626 101.813 29.8227 101.558 32.6696L105.543 33.0264ZM105.934 26.448C105.934 25.6786 105.872 24.8675 105.622 24.1805C105.493 23.8258 105.268 23.3732 104.854 22.9937C104.396 22.5741 103.804 22.336 103.166 22.336V26.336C102.996 26.336 102.807 26.3057 102.615 26.2305C102.424 26.1555 102.269 26.0507 102.151 25.9423C101.929 25.7388 101.864 25.5502 101.863 25.5475C101.858 25.5346 101.88 25.5942 101.901 25.7647C101.921 25.9281 101.934 26.1524 101.934 26.448H105.934ZM103.166 22.336C102.623 22.336 102.204 22.5344 101.992 22.6508C101.75 22.7832 101.541 22.9417 101.375 23.0817C101.041 23.3629 100.693 23.7278 100.345 24.1276C99.6404 24.9382 98.753 26.1053 97.6958 27.594L100.957 29.91C101.991 28.4547 102.789 27.4138 103.364 26.7524C103.656 26.4162 103.847 26.2291 103.95 26.1423C104.002 26.0983 103.987 26.1188 103.913 26.1592C103.869 26.1836 103.592 26.336 103.166 26.336V22.336ZM97.7039 27.5828C96.6437 29.0541 95.8064 30.2957 95.2098 31.2939C94.9117 31.7926 94.6583 32.256 94.4643 32.6742C94.2828 33.0654 94.0982 33.5318 94.023 34.0081L97.974 34.6319C97.9628 34.7029 97.9649 34.6332 98.0927 34.3578C98.208 34.1093 98.3866 33.7754 98.6432 33.3461C99.1559 32.4883 99.9187 31.3512 100.949 29.9212L97.7039 27.5828ZM94.0273 33.9821C93.7548 35.5713 93.6145 37.0932 93.6145 38.544H97.6145C97.6145 37.3495 97.7302 36.0554 97.9697 34.6579L94.0273 33.9821ZM129.668 32.208L131.666 32.3122L127.798 31.5008L129.668 32.208ZM125.956 39.888L124.326 38.7296L124.316 38.744L124.306 38.7586L125.956 39.888ZM116.868 39.952L115.294 41.1858L115.305 41.1988L115.315 41.2116L116.868 39.952ZM117.892 23.248L116.286 22.0563L116.28 22.0647L116.274 22.0732L117.892 23.248ZM127.876 20.112L126.824 21.8125L126.854 21.831L126.884 21.8485L127.876 20.112ZM130.244 22.032L128.75 23.3607L131.13 26.0391L132.16 22.6067L130.244 22.032ZM132.1 20.048L133.357 21.6039L133.375 21.5895L133.392 21.5748L132.1 20.048ZM134.469 26.256L132.713 25.2983L132.543 25.6098L132.49 25.9608L134.469 26.256ZM133.764 34.192L131.765 34.1569L131.661 40.0792L135.334 35.4321L133.764 34.192ZM140.421 25.808L139.006 24.3938L138.952 24.4481L138.902 24.5064L140.421 25.808ZM141.572 26.832L143.226 27.9576L143.27 27.8926L143.309 27.8243L141.572 26.832ZM133.508 37.392L131.944 36.1458L131.543 36.6489L131.511 37.2913L133.508 37.392ZM132.996 47.76L130.999 47.6671L130.998 47.6742L130.998 47.6813L132.996 47.76ZM130.693 59.152L128.983 58.1132L128.972 58.1327L128.96 58.1526L130.693 59.152ZM119.684 61.136L120.831 59.4975L120.82 59.4896L119.684 61.136ZM120.26 50L118.65 48.8146L118.642 48.8246L118.635 48.8346L120.26 50ZM129.285 39.568L130.751 40.9279L131.244 40.3962L131.282 39.6722L129.285 39.568ZM121.348 24.4L119.731 23.2236L119.726 23.2304L121.348 24.4ZM120.388 36.688L118.561 37.5003L118.575 37.5313L118.589 37.5618L120.388 36.688ZM126.148 36.304L127.893 37.2825L126.148 36.304ZM129.924 27.28L131.806 27.9574L131.904 27.6857L131.921 27.3974L129.924 27.28ZM130.052 24.528H132.052V24.028L131.817 23.5868L130.052 24.528ZM127.94 22.608L126.862 24.2925L126.887 24.3081L126.912 24.323L127.94 22.608ZM129.092 42.576L131.09 42.6779L131.371 37.1758L127.626 41.2165L129.092 42.576ZM122.564 58.768L120.809 59.7257L122.564 58.768ZM128.772 48.848L130.769 48.96L130.77 48.9499L128.772 48.848ZM127.798 31.5008C126.492 34.9535 125.327 37.3208 124.326 38.7296L127.587 41.0464C128.89 39.2125 130.199 36.4598 131.539 32.9152L127.798 31.5008ZM124.306 38.7586C123.538 39.8807 122.662 40.32 121.54 40.32V44.32C124.089 44.32 126.156 43.1379 127.607 41.0174L124.306 38.7586ZM121.54 40.32C120.379 40.32 119.369 39.86 118.422 38.6924L115.315 41.2116C116.928 43.2013 119.033 44.32 121.54 44.32V40.32ZM118.443 38.7182C117.619 37.6674 117.012 35.7003 117.012 32.4H113.012C113.012 36.0117 113.643 39.0792 115.294 41.1858L118.443 38.7182ZM117.012 32.4C117.012 29.3403 117.854 26.7063 119.511 24.4228L116.274 22.0732C114.091 25.0803 113.012 28.5477 113.012 32.4H117.012ZM119.499 24.4397C121.103 22.277 123.08 21.28 125.572 21.28V17.28C121.751 17.28 118.607 18.9283 116.286 22.0563L119.499 24.4397ZM125.572 21.28C125.672 21.28 126.061 21.3401 126.824 21.8125L128.929 18.4115C127.9 17.7746 126.753 17.28 125.572 17.28V21.28ZM126.884 21.8485C127.593 22.2532 128.212 22.7557 128.75 23.3607L131.739 20.7033C130.912 19.7723 129.952 18.9948 128.869 18.3755L126.884 21.8485ZM132.16 22.6067C132.111 22.7691 132.055 22.8389 132.082 22.7997C132.101 22.7706 132.156 22.6992 132.265 22.5823C132.486 22.3465 132.839 22.0226 133.357 21.6039L130.844 18.4921C130.253 18.9694 129.742 19.4242 129.344 19.8497C128.998 20.2193 128.533 20.7752 128.329 21.4573L132.16 22.6067ZM133.392 21.5748C133.89 21.1538 134.268 20.892 134.536 20.7444C134.834 20.5809 134.848 20.64 134.66 20.64V16.64C133.876 16.64 133.165 16.9338 132.609 17.2396C132.024 17.5613 131.42 18.0035 130.809 18.5212L133.392 21.5748ZM134.66 20.64C134.496 20.64 134.312 20.6093 134.128 20.5338C133.945 20.4589 133.802 20.3566 133.699 20.258C133.509 20.0764 133.472 19.928 133.492 19.9867C133.508 20.0328 133.544 20.1646 133.574 20.419C133.603 20.6664 133.62 20.9874 133.62 21.392H137.62C137.62 20.4128 137.542 19.4522 137.269 18.6693C137 17.8996 136.256 16.64 134.66 16.64V20.64ZM133.62 21.392C133.62 22.9407 133.299 24.224 132.713 25.2983L136.224 27.2137C137.174 25.472 137.62 23.5126 137.62 21.392H133.62ZM132.49 25.9608C132.053 28.8901 131.809 31.6234 131.765 34.1569L135.764 34.2271C135.805 31.8966 136.03 29.3393 136.447 26.5512L132.49 25.9608ZM135.334 35.4321C137.424 32.7871 139.023 30.7671 140.131 29.3715C140.685 28.6736 141.115 28.1332 141.422 27.7494C141.576 27.5573 141.697 27.4063 141.787 27.2951C141.832 27.2395 141.868 27.1955 141.895 27.1623C141.909 27.1457 141.92 27.1329 141.928 27.1232C141.936 27.1131 141.939 27.1091 141.939 27.1096L138.902 24.5064C138.612 24.8451 136.351 27.6939 132.195 32.9519L135.334 35.4321ZM141.835 27.2222C141.909 27.1475 141.913 27.1596 141.844 27.1996C141.78 27.2371 141.548 27.36 141.188 27.36V23.36C140.119 23.36 139.359 24.0406 139.006 24.3938L141.835 27.2222ZM141.188 27.36C141.094 27.36 140.655 27.3349 140.254 26.9342C139.854 26.5335 139.828 26.095 139.828 26H143.828C143.828 25.4784 143.697 24.7198 143.083 24.1058C142.469 23.4918 141.71 23.36 141.188 23.36V27.36ZM139.828 26C139.828 25.9041 139.845 25.8387 139.853 25.8118C139.861 25.7867 139.861 25.7954 139.836 25.8397L143.309 27.8243C143.595 27.3235 143.828 26.7036 143.828 26H139.828ZM139.919 25.7064C138.602 27.6415 135.958 31.1068 131.944 36.1458L135.073 38.6382C139.08 33.6078 141.813 30.0331 143.226 27.9576L139.919 25.7064ZM131.511 37.2913C131.255 42.3682 131.084 45.8279 130.999 47.6671L134.994 47.8529C135.079 46.0227 135.25 42.5705 135.506 37.4927L131.511 37.2913ZM130.998 47.6813C130.786 53.0629 130.02 56.4071 128.983 58.1132L132.402 60.1908C134.01 57.5449 134.78 53.2945 134.995 47.8387L130.998 47.6813ZM128.96 58.1526C128.145 59.5651 126.64 60.48 123.78 60.48V64.48C127.577 64.48 130.68 63.1762 132.425 60.1514L128.96 58.1526ZM123.78 60.48C122.772 60.48 121.803 60.1773 120.831 59.4975L118.538 62.7745C120.126 63.8867 121.887 64.48 123.78 64.48V60.48ZM120.82 59.4896C120.339 59.1581 119.828 58.4247 119.828 56.592H115.828C115.828 59.1113 116.555 61.4072 118.549 62.7824L120.82 59.4896ZM119.828 56.592C119.828 54.9877 120.434 53.1899 121.886 51.1654L118.635 48.8346C116.844 51.3328 115.828 53.9296 115.828 56.592H119.828ZM121.871 51.1854C123.462 49.0232 126.402 45.6176 130.751 40.9279L127.818 38.2081C123.463 42.9051 120.387 46.4541 118.65 48.8146L121.871 51.1854ZM131.282 39.6722L131.666 32.3122L127.671 32.1038L127.287 39.4638L131.282 39.6722ZM125.188 19.584C122.949 19.584 121.144 21.2806 119.731 23.2237L122.966 25.5763C124.284 23.7647 125.039 23.584 125.188 23.584V19.584ZM119.726 23.2304C118.139 25.4318 117.364 27.9816 117.364 30.8H121.364C121.364 28.7544 121.913 27.0376 122.971 25.5696L119.726 23.2304ZM117.364 30.8C117.364 33.3598 117.727 35.6246 118.561 37.5003L122.216 35.8757C121.684 34.6794 121.364 33.0189 121.364 30.8H117.364ZM118.589 37.5618C119.444 39.3206 120.865 40.928 123.076 40.928V36.928C123.056 36.928 123.009 36.9354 122.885 36.8316C122.727 36.6997 122.475 36.4059 122.188 35.8142L118.589 37.5618ZM123.076 40.928C125.328 40.928 126.864 39.1158 127.893 37.2825L124.404 35.3255C123.978 36.0854 123.613 36.5225 123.346 36.7513C123.098 36.9628 123.019 36.928 123.076 36.928V40.928ZM127.893 37.2825C128.962 35.3764 130.268 32.2317 131.806 27.9574L128.043 26.6026C126.509 30.8616 125.298 33.733 124.404 35.3255L127.893 37.2825ZM131.921 27.3974C132.005 25.9665 132.052 24.9835 132.052 24.528H128.052C128.052 24.8405 128.014 25.6922 127.928 27.1626L131.921 27.3974ZM131.817 23.5868C131.223 22.4727 130.152 21.6023 128.969 20.893L126.912 24.323C127.863 24.8937 128.199 25.3033 128.288 25.4692L131.817 23.5868ZM129.019 20.9235C127.818 20.155 126.513 19.584 125.188 19.584V23.584C125.4 23.584 125.93 23.6957 126.862 24.2925L129.019 20.9235ZM127.626 41.2165C125.135 43.9034 123.206 46.3872 121.889 48.6623C120.584 50.9179 119.796 53.1133 119.796 55.184H123.796C123.796 54.0973 124.225 52.6128 125.352 50.6657C126.467 48.7381 128.186 46.4966 130.559 43.9355L127.626 41.2165ZM119.796 55.184C119.796 56.8551 120.089 58.4071 120.809 59.7257L124.32 57.8103C124.016 57.2515 123.796 56.4142 123.796 55.184H119.796ZM120.809 59.7257C121.59 61.1584 122.894 62.176 124.676 62.176V58.176C124.629 58.176 124.607 58.17 124.603 58.1689C124.6 58.168 124.596 58.1668 124.586 58.1599C124.565 58.1461 124.461 58.0686 124.32 57.8103L120.809 59.7257ZM124.676 62.176C125.746 62.176 126.774 61.8744 127.648 61.1947C128.5 60.5326 129.064 59.6219 129.431 58.6324L125.682 57.2396C125.495 57.7435 125.301 57.9528 125.193 58.0373C125.107 58.1043 124.972 58.176 124.676 58.176V62.176ZM129.431 58.6324C130.108 56.8119 130.516 53.482 130.769 48.96L126.776 48.736C126.517 53.3447 126.115 56.0734 125.682 57.2396L129.431 58.6324ZM130.77 48.9499L131.09 42.6779L127.095 42.4741L126.775 48.7461L130.77 48.9499ZM175.255 37.904L173.913 36.4209L173.904 36.429L173.895 36.4371L175.255 37.904ZM175.959 26.448L177.568 25.2603L176.569 23.9068L175.065 24.6591L175.959 26.448ZM167.959 22.864L168.961 24.5949L168.994 24.5756L169.027 24.555L167.959 22.864ZM176.407 23.44L175.513 25.2289L176.852 25.8984L177.871 24.8022L176.407 23.44ZM175.191 10.448L174.056 12.0944L174.072 12.1056L174.088 12.1164L175.191 10.448ZM165.847 7.952L165.564 5.9721L163.906 6.209L163.848 7.88308L165.847 7.952ZM165.527 13.904L167.523 14.0288V14.0288L165.527 13.904ZM160.919 36.752L159.505 38.1662L160.919 36.752ZM160.471 24.976L158.475 24.8574L158.474 24.8673L158.473 24.8771L160.471 24.976ZM161.111 8.72L163.092 8.99327L163.535 5.78462L160.468 6.82623L161.111 8.72ZM157.463 12.432L159.448 12.6727L159.451 12.6519L159.453 12.631L157.463 12.432ZM156.503 15.376L154.976 14.0841L154.946 14.1197L154.918 14.1566L156.503 15.376ZM153.239 15.632L151.524 16.661L151.548 16.7018L151.575 16.7414L153.239 15.632ZM161.495 6.672L161.97 8.6148L163.143 8.32816L163.435 7.15707L161.495 6.672ZM165.911 5.904H163.911V8.14804L166.14 7.89082L165.911 5.904ZM175.703 6.672L175.128 8.58765L175.146 8.59295L175.164 8.59793L175.703 6.672ZM181.271 9.936L179.857 11.3502L179.866 11.3599L179.876 11.3694L181.271 9.936ZM178.455 24.784L177.18 23.2429L175.269 24.824L177.219 26.3566L178.455 24.784ZM179.607 37.968L181.041 39.3624L181.049 39.354L181.057 39.3455L179.607 37.968ZM160.023 41.936L160.623 40.028L160.598 40.0202L160.572 40.013L160.023 41.936ZM159.063 41.296L157.484 42.5239L157.561 42.6222L157.649 42.7102L159.063 41.296ZM164.887 39.44L165.493 37.5341L164.887 39.44ZM174.615 25.04L175.596 26.7831L178.124 25.3608L175.895 23.5036L174.615 25.04ZM169.175 42.336C172.002 42.336 174.51 41.3216 176.615 39.3709L173.895 36.4371C172.502 37.7291 170.956 38.336 169.175 38.336V42.336ZM176.597 39.3871C178.736 37.4516 179.943 35.082 179.943 32.336H175.943C175.943 33.7713 175.358 35.1137 173.913 36.4209L176.597 39.3871ZM179.943 32.336C179.943 29.7555 179.133 27.3801 177.568 25.2603L174.35 27.6357C175.431 29.0999 175.943 30.6499 175.943 32.336H179.943ZM175.065 24.6591C173.849 25.2668 172.724 25.536 171.671 25.536V29.536C173.434 29.536 175.167 29.0799 176.853 28.2369L175.065 24.6591ZM171.671 25.536C170.171 25.536 169.386 25.2906 169.033 25.0708C168.886 24.9789 168.837 24.9067 168.815 24.8649C168.79 24.8181 168.743 24.7049 168.743 24.464H164.743C164.743 26.13 165.47 27.5631 166.917 28.4652C168.207 29.2694 169.885 29.536 171.671 29.536V25.536ZM168.743 24.464C168.743 24.546 168.728 24.6289 168.702 24.7029C168.676 24.7745 168.647 24.8155 168.639 24.8262C168.633 24.8351 168.646 24.8149 168.699 24.7711C168.753 24.7272 168.836 24.6671 168.961 24.5949L166.957 21.1331C165.903 21.7434 164.743 22.8064 164.743 24.464H168.743ZM169.027 24.555C169.386 24.328 170.106 24.096 171.415 24.096V20.096C169.737 20.096 168.153 20.376 166.891 21.173L169.027 24.555ZM171.415 24.096C172.561 24.096 173.917 24.431 175.513 25.2289L177.301 21.6511C175.313 20.657 173.341 20.096 171.415 20.096V24.096ZM177.871 24.8022C179.889 22.6328 180.967 20.0877 180.967 17.232H176.967C176.967 18.9843 176.338 20.5779 174.943 22.0778L177.871 24.8022ZM180.967 17.232C180.967 13.6584 179.334 10.7892 176.294 8.77956L174.088 12.1164C176.083 13.4348 176.967 15.0882 176.967 17.232H180.967ZM176.326 8.80157C173.536 6.87721 170.477 5.888 167.191 5.888V9.888C169.622 9.888 171.897 10.6054 174.056 12.0944L176.326 8.80157ZM167.191 5.888C166.572 5.888 166.008 5.90867 165.564 5.9721L166.13 9.9319C166.283 9.90999 166.616 9.888 167.191 9.888V5.888ZM163.848 7.88308C163.807 9.09039 163.701 11.0505 163.531 13.7792L167.523 14.0288C167.694 11.2962 167.802 9.28827 167.846 8.02092L163.848 7.88308ZM163.531 13.7792C163.271 17.9404 163.143 24.2426 163.143 32.656H167.143C167.143 24.2587 167.271 18.0596 167.523 14.0288L163.531 13.7792ZM163.143 32.656C163.143 34.2551 163.084 35.354 162.988 36.0175C162.937 36.3695 162.893 36.4635 162.912 36.4194C162.922 36.3981 162.998 36.2188 163.199 36.0206C163.431 35.7916 163.856 35.52 164.439 35.52V39.52C165.886 39.52 166.464 38.2823 166.582 38.0126C166.777 37.5632 166.88 37.0492 166.946 36.5905C167.085 35.6326 167.143 34.2996 167.143 32.656H163.143ZM164.439 35.52C163.598 35.52 163.003 35.4599 162.609 35.374C162.176 35.2794 162.194 35.1982 162.333 35.3378L159.505 38.1662C160.156 38.8178 161.017 39.1206 161.757 39.282C162.536 39.4521 163.445 39.52 164.439 39.52V35.52ZM162.333 35.3378C162.472 35.4765 162.487 35.5659 162.448 35.466C162.414 35.3788 162.363 35.2073 162.313 34.9213C162.213 34.3464 162.151 33.4989 162.151 32.336H158.151C158.151 33.6051 158.217 34.7096 158.373 35.6067C158.51 36.3955 158.779 37.4402 159.505 38.1662L162.333 35.3378ZM162.151 32.336C162.151 31.8027 162.253 29.42 162.469 25.0749L158.473 24.8771C158.262 29.1506 158.151 31.6747 158.151 32.336H162.151ZM162.467 25.0946C162.725 20.767 162.855 17.2456 162.855 14.544H158.855C158.855 17.133 158.729 20.5663 158.475 24.8574L162.467 25.0946ZM162.855 14.544C162.855 11.9125 162.941 10.0866 163.092 8.99327L159.13 8.44672C158.939 9.82808 158.855 11.8848 158.855 14.544H162.855ZM160.468 6.82623C157.805 7.73053 155.752 9.44209 155.473 12.233L159.453 12.631C159.515 12.0086 159.894 11.2455 161.754 10.6138L160.468 6.82623ZM155.478 12.1913C155.316 13.5199 155.048 13.9989 154.976 14.0841L158.03 16.6679C158.896 15.6438 159.268 14.1601 159.448 12.6727L155.478 12.1913ZM154.918 14.1566C154.9 14.1795 154.89 14.1875 154.89 14.1878C154.889 14.1882 154.89 14.1878 154.891 14.187C154.892 14.1862 154.893 14.1859 154.893 14.186C154.893 14.1861 154.89 14.1872 154.885 14.1889C154.88 14.1907 154.87 14.1933 154.857 14.196C154.83 14.2015 154.783 14.208 154.711 14.208V18.208C156.03 18.208 157.242 17.6949 158.088 16.5954L154.918 14.1566ZM154.711 14.208C154.51 14.208 154.471 14.1794 154.528 14.2015C154.561 14.2146 154.623 14.2439 154.697 14.3004C154.772 14.3584 154.844 14.4336 154.903 14.5226L151.575 16.7414C152.378 17.9462 153.714 18.208 154.711 18.208V14.208ZM154.954 14.603C154.853 14.4348 154.855 14.3596 154.855 14.352H150.855C150.855 15.1977 151.113 15.9758 151.524 16.661L154.954 14.603ZM154.855 14.352C154.855 13.0916 155.312 12.0597 156.344 11.1428C157.443 10.1654 159.251 9.27932 161.97 8.6148L161.02 4.7292C157.979 5.47267 155.467 6.57055 153.686 8.15318C151.838 9.79627 150.855 11.9004 150.855 14.352H154.855ZM163.435 7.15707C163.766 5.83287 164.147 5.058 164.469 4.65176C164.74 4.31136 164.881 4.32 164.951 4.32V0.32C163.442 0.32 162.218 1.05397 161.337 2.16423C160.507 3.20867 159.949 4.60979 159.555 6.18693L163.435 7.15707ZM164.951 4.32C164.706 4.32 164.457 4.25921 164.235 4.14071C164.022 4.0274 163.887 3.89001 163.812 3.79678C163.684 3.63692 163.692 3.5578 163.739 3.73347C163.829 4.07069 163.911 4.75379 163.911 5.904H167.911C167.911 4.66488 167.833 3.55597 167.603 2.69853C167.49 2.27687 167.298 1.74975 166.93 1.29122C166.514 0.773045 165.839 0.32 164.951 0.32V4.32ZM166.14 7.89082C167.148 7.77454 168.431 7.712 170.007 7.712V3.712C168.34 3.712 166.893 3.77745 165.682 3.91718L166.14 7.89082ZM170.007 7.712C171.423 7.712 173.123 7.98594 175.128 8.58765L176.278 4.75634C174.017 4.07805 171.919 3.712 170.007 3.712V7.712ZM175.164 8.59793C176.964 9.1019 178.519 10.0124 179.857 11.3502L182.685 8.52178C180.866 6.70222 178.709 5.43676 176.242 4.74607L175.164 8.59793ZM179.876 11.3694C181.13 12.5893 181.639 13.8208 181.639 15.12H185.639C185.639 12.5792 184.569 10.3547 182.666 8.50255L179.876 11.3694ZM181.639 15.12C181.639 17.9618 180.303 20.6601 177.18 23.2429L179.73 26.3251C183.519 23.1906 185.639 19.4462 185.639 15.12H181.639ZM177.219 26.3566C179.217 27.9262 180.039 29.622 180.039 31.504H184.039C184.039 28.1806 182.472 25.3965 179.691 23.2114L177.219 26.3566ZM180.039 31.504C180.039 33.6529 179.387 35.2962 178.157 36.5905L181.057 39.3455C183.07 37.2265 184.039 34.5604 184.039 31.504H180.039ZM178.173 36.5736C175.584 39.2356 172.083 40.64 167.447 40.64V44.64C172.966 44.64 177.571 42.9297 181.041 39.3624L178.173 36.5736ZM167.447 40.64C164.01 40.64 161.801 40.3985 160.623 40.028L159.423 43.844C161.231 44.4122 163.972 44.64 167.447 44.64V40.64ZM160.572 40.013C160.663 40.0388 160.696 40.066 160.668 40.0479C160.642 40.03 160.577 39.9818 160.477 39.8818L157.649 42.7102C158.109 43.1707 158.716 43.6425 159.474 43.859L160.572 40.013ZM160.642 40.0681C160.639 40.0647 160.637 40.0623 160.633 40.0496C160.628 40.034 160.615 39.9852 160.615 39.888H156.615C156.615 40.822 156.875 41.7405 157.484 42.5239L160.642 40.0681ZM160.615 39.888C160.615 40.0042 160.581 40.197 160.455 40.3909C160.336 40.5747 160.205 40.6487 160.183 40.6601C160.169 40.667 160.234 40.6325 160.428 40.5995C160.616 40.5673 160.882 40.544 161.239 40.544V36.544C160.258 36.544 159.221 36.6588 158.359 37.0999C157.9 37.3353 157.441 37.6893 157.103 38.2091C156.758 38.739 156.615 39.3238 156.615 39.888H160.615ZM161.239 40.544C161.22 40.544 161.277 40.5435 161.446 40.5721C161.605 40.5988 161.817 40.6431 162.09 40.7103C162.637 40.8447 163.363 41.054 164.281 41.3459L165.493 37.5341C164.533 37.2286 163.713 36.99 163.044 36.8257C162.425 36.6737 161.778 36.544 161.239 36.544V40.544ZM164.281 41.3459C166.198 41.956 167.871 42.336 169.175 42.336V38.336C168.516 38.336 167.331 38.1187 165.493 37.5341L164.281 41.3459ZM175.895 23.5036C174.413 22.2679 172.757 21.44 170.967 21.44V25.44C171.481 25.44 172.257 25.6787 173.335 26.5764L175.895 23.5036ZM170.967 21.44C170.332 21.44 169.592 21.4982 168.94 21.7741C168.593 21.9207 168.174 22.1698 167.836 22.5983C167.475 23.0565 167.303 23.6005 167.303 24.144H171.303C171.303 24.4528 171.2 24.7915 170.978 25.0737C170.779 25.3262 170.568 25.4286 170.498 25.4579C170.428 25.4877 170.42 25.4783 170.518 25.4644C170.61 25.4515 170.755 25.44 170.967 25.44V21.44ZM167.303 24.144C167.303 24.7663 167.476 25.3939 167.868 25.946C168.247 26.4791 168.749 26.8293 169.237 27.0585C170.162 27.4924 171.301 27.616 172.439 27.616V23.616C171.989 23.616 171.64 23.5893 171.376 23.548C171.107 23.5059 170.976 23.456 170.937 23.4375C170.902 23.4213 171.012 23.4648 171.13 23.63C171.26 23.8141 171.303 24.0124 171.303 24.144H167.303ZM172.439 27.616C173.558 27.616 174.62 27.332 175.596 26.7831L173.634 23.2968C173.245 23.516 172.856 23.616 172.439 23.616V27.616ZM187.918 42L187.286 43.8974L187.347 43.9177L187.409 43.9342L187.918 42ZM186.51 41.296L188.072 40.0466L188.059 40.031L188.046 40.0156L186.51 41.296ZM187.47 13.776L185.487 13.5141L185.487 13.5191L187.47 13.776ZM195.406 4.88L193.549 5.62278L193.556 5.63951L193.563 5.65611L195.406 4.88ZM190.862 25.872L189.066 24.991L188.879 25.3737L188.863 25.7998L190.862 25.872ZM191.374 39.056V41.056H191.433L191.491 41.0525L191.374 39.056ZM194.382 36.368L195.996 37.549L196.003 37.5398L196.009 37.5305L194.382 36.368ZM198.158 29.52L196.342 28.6819L196.337 28.6935L196.332 28.7051L198.158 29.52ZM199.054 31.568L197.248 30.7093L197.244 30.7169L199.054 31.568ZM190.99 21.712L188.993 21.5997L192.86 22.4217L190.99 21.712ZM190.542 40.32C189.755 40.32 189.053 40.2306 188.427 40.0658L187.409 43.9342C188.404 44.1961 189.452 44.32 190.542 44.32V40.32ZM188.55 40.1026C188.214 39.9904 188.002 39.902 187.884 39.8431C187.827 39.8145 187.819 39.8059 187.841 39.8215C187.856 39.8321 187.956 39.9025 188.072 40.0466L184.948 42.5454C185.314 43.0021 185.797 43.2717 186.096 43.4209C186.447 43.5967 186.854 43.7536 187.286 43.8974L188.55 40.1026ZM188.046 40.0156C188.211 40.2129 188.256 40.3678 188.243 40.3313C188.24 40.3206 188.219 40.2562 188.19 40.1147C188.133 39.8318 188.074 39.3928 188.024 38.7672C187.923 37.5243 187.87 35.7308 187.87 33.36H183.87C183.87 35.7679 183.923 37.6864 184.036 39.0888C184.093 39.7858 184.167 40.4029 184.27 40.9093C184.321 41.1624 184.387 41.426 184.477 41.6767C184.557 41.9016 184.702 42.2511 184.974 42.5764L188.046 40.0156ZM187.87 33.36C187.87 28.6642 188.391 22.2337 189.453 14.0329L185.487 13.5191C184.416 21.7876 183.87 28.4131 183.87 33.36H187.87ZM189.453 14.0379C189.887 10.7528 190.585 8.53605 191.413 7.19339C192.184 5.94209 192.949 5.6 193.742 5.6V1.6C191.249 1.6 189.327 2.95391 188.007 5.09461C186.744 7.14395 185.949 10.0152 185.487 13.5141L189.453 14.0379ZM193.742 5.6C193.747 5.6 193.717 5.60043 193.664 5.58342C193.609 5.56574 193.557 5.5376 193.515 5.50525C193.432 5.44172 193.471 5.4274 193.549 5.62278L197.263 4.13722C197 3.47926 196.591 2.82494 195.953 2.33475C195.292 1.82597 194.522 1.6 193.742 1.6V5.6ZM193.563 5.65611C193.816 6.25656 193.918 6.78251 193.918 7.248H197.918C197.918 6.17749 197.679 5.12477 197.249 4.10388L193.563 5.65611ZM193.918 7.248C193.918 12.396 192.351 18.2977 189.066 24.991L192.657 26.753C196.115 19.7077 197.918 13.1933 197.918 7.248H193.918ZM188.863 25.7998C188.735 29.3577 188.67 32.4761 188.67 35.152H192.67C192.67 32.5372 192.733 29.469 192.861 25.9442L188.863 25.7998ZM188.67 35.152C188.67 36.4815 188.728 37.6028 188.878 38.4349C188.949 38.832 189.068 39.3223 189.307 39.7636C189.527 40.1713 190.158 41.056 191.374 41.056V37.056C192.356 37.056 192.781 37.7781 192.825 37.8604C192.888 37.9764 192.86 37.9787 192.814 37.7251C192.73 37.2558 192.67 36.4251 192.67 35.152H188.67ZM191.491 41.0525C192.553 40.9901 193.415 40.3685 194.003 39.8433C194.652 39.2631 195.317 38.4771 195.996 37.549L192.768 35.187C192.167 36.0083 191.691 36.5449 191.337 36.8607C191.163 37.0165 191.056 37.0844 191.015 37.1066C190.971 37.1306 191.06 37.071 191.257 37.0595L191.491 41.0525ZM196.009 37.5305C197.39 35.5974 198.711 33.1881 199.984 30.3349L196.332 28.7051C195.13 31.3986 193.934 33.5546 192.755 35.2055L196.009 37.5305ZM199.974 30.3581C200.608 28.9832 201.096 27.9967 201.444 27.369C201.622 27.0466 201.733 26.8762 201.783 26.8081C201.812 26.7681 201.777 26.8238 201.682 26.9095C201.633 26.9536 201.525 27.0457 201.361 27.1348C201.204 27.2197 200.889 27.36 200.462 27.36V23.36C199.629 23.36 199.098 23.8536 199.002 23.9405C198.811 24.1128 198.664 24.2986 198.565 24.4319C198.359 24.7105 198.15 25.06 197.944 25.431C197.524 26.19 196.988 27.2834 196.342 28.6819L199.974 30.3581ZM200.462 27.36C200.228 27.36 199.709 27.2809 199.293 26.805C198.921 26.3801 198.91 25.9489 198.91 25.872H202.91C202.91 25.4538 202.824 24.7666 202.303 24.171C201.737 23.5244 200.994 23.36 200.462 23.36V27.36ZM198.91 25.872C198.91 26.5679 198.489 28.098 197.248 30.7093L200.86 32.4267C202.093 29.8327 202.91 27.5654 202.91 25.872H198.91ZM197.244 30.7169C195.584 34.2473 194.109 36.7754 192.83 38.3906C191.453 40.1293 190.693 40.32 190.542 40.32V44.32C192.695 44.32 194.505 42.7187 195.966 40.8734C197.525 38.9046 199.153 36.0567 200.864 32.4191L197.244 30.7169ZM196.318 7.824C196.318 7.10039 196.277 6.38905 196.13 5.80293C196.06 5.52009 195.925 5.09698 195.63 4.704C195.293 4.2547 194.677 3.776 193.806 3.776V7.776C193.498 7.776 193.196 7.69442 192.934 7.54448C192.684 7.40197 192.524 7.22882 192.43 7.104C192.263 6.88168 192.235 6.71458 192.25 6.77307C192.274 6.86961 192.318 7.18227 192.318 7.824H196.318ZM193.806 3.776C192.882 3.776 192.229 4.27211 191.855 4.6874C191.492 5.09145 191.244 5.57235 191.064 6.00119C190.701 6.87184 190.415 8.04144 190.173 9.41198C189.682 12.1887 189.293 16.269 188.993 21.5997L192.987 21.8243C193.284 16.531 193.663 12.6433 194.111 10.108C194.339 8.82256 194.564 8.00016 194.755 7.54281C194.854 7.30764 194.894 7.29055 194.829 7.3626C194.754 7.44588 194.41 7.776 193.806 7.776V3.776ZM192.86 22.4217C195.105 16.506 196.318 11.6043 196.318 7.824H192.318C192.318 10.8704 191.312 15.2273 189.12 21.0023L192.86 22.4217ZM217.729 28.112L215.73 28.1423L215.771 30.8516L218.348 30.0141L217.729 28.112ZM221.249 26.704L222.278 28.419L222.294 28.4096L222.309 28.4L221.249 26.704ZM222.785 25.744L221.778 24.0164L221.751 24.0318L221.725 24.048L222.785 25.744ZM223.553 25.296L224.561 27.0236L224.572 27.0173L224.582 27.011L223.553 25.296ZM222.593 27.728L223.751 29.359L223.768 29.3468L223.785 29.3342L222.593 27.728ZM217.665 30.288L216.937 28.4255L215.776 28.8797L215.672 30.1219L217.665 30.288ZM214.273 38.992L212.775 37.6669L214.273 38.992ZM199.809 39.184L198.14 40.2857L198.145 40.2935L198.151 40.3012L199.809 39.184ZM200.193 23.696L198.538 22.5737L198.532 22.5834L198.525 22.5931L200.193 23.696ZM206.721 19.92V21.92H207.362L207.884 21.5475L206.721 19.92ZM215.553 21.264L213.995 22.518L215.553 21.264ZM213.569 31.376L215.564 31.5265L215.735 29.2526L213.459 29.3791L213.569 31.376ZM211.266 31.504V33.504H211.321L211.376 33.5009L211.266 31.504ZM206.273 29.776L204.956 31.2812L204.97 31.293L204.984 31.3046L206.273 29.776ZM204.929 22.224L206.748 23.0573L203.689 20.6552L204.929 22.224ZM203.457 36.688L201.637 37.5156L201.64 37.5235L201.644 37.5315L203.457 36.688ZM211.777 37.136L213.442 38.2454L213.449 38.2349L213.455 38.2244L211.777 37.136ZM208.001 21.712L209.684 22.7935L209.701 22.7675L209.716 22.741L208.001 21.712ZM209.025 27.536L207.671 29.0079L207.686 29.0211L207.7 29.034L209.025 27.536ZM213.633 29.008V31.008H215.717L215.632 28.9264L213.633 29.008ZM212.546 23.312L210.658 23.9727L210.665 23.9936L210.673 24.0142L212.546 23.312ZM218.348 30.0141C220.054 29.4596 221.424 28.932 222.278 28.419L220.221 24.989C219.795 25.244 218.819 25.6551 217.111 26.2099L218.348 30.0141ZM222.309 28.4C222.992 27.9733 223.504 27.6533 223.845 27.44L221.725 24.048C221.384 24.2613 220.872 24.5813 220.189 25.008L222.309 28.4ZM223.793 27.4716L224.561 27.0236L222.546 23.5684L221.778 24.0164L223.793 27.4716ZM224.582 27.011C224.62 26.9885 224.604 27.0019 224.544 27.0247C224.492 27.0441 224.32 27.104 224.065 27.104V23.104C223.369 23.104 222.805 23.4126 222.525 23.581L224.582 27.011ZM224.065 27.104C223.863 27.104 223.363 27.0362 222.955 26.5767C222.586 26.1622 222.577 25.7421 222.577 25.68H226.577C226.577 25.2339 226.483 24.5258 225.944 23.9193C225.365 23.2678 224.609 23.104 224.065 23.104V27.104ZM222.577 25.68C222.577 25.2367 222.752 24.9727 222.754 24.9701C222.774 24.9367 222.756 24.9738 222.645 25.0884C222.425 25.3152 222.029 25.6563 221.402 26.1218L223.785 29.3342C224.48 28.8183 225.076 28.3274 225.518 27.8716C225.738 27.6449 225.967 27.378 226.153 27.0779C226.32 26.8087 226.577 26.3153 226.577 25.68H222.577ZM221.436 26.097C220.279 26.9181 218.79 27.7003 216.937 28.4255L218.394 32.1505C220.466 31.3397 222.263 30.4152 223.751 29.359L221.436 26.097ZM215.672 30.1219C215.402 33.3705 214.396 35.8354 212.775 37.6669L215.771 40.3171C218.077 37.7113 219.332 34.3735 219.659 30.4541L215.672 30.1219ZM212.775 37.6669C211.276 39.362 209.083 40.32 205.889 40.32V44.32C209.95 44.32 213.346 43.0594 215.771 40.3171L212.775 37.6669ZM205.889 40.32C203.87 40.32 202.483 39.5738 201.468 38.0668L198.151 40.3012C199.952 42.9756 202.618 44.32 205.889 44.32V40.32ZM201.479 38.0823C200.308 36.3088 199.697 34.2257 199.697 31.76H195.697C195.697 34.9263 196.495 37.7925 198.14 40.2857L201.479 38.0823ZM199.697 31.76C199.697 29.3158 200.402 27.0082 201.862 24.7989L198.525 22.5931C196.657 25.4185 195.697 28.4868 195.697 31.76H199.697ZM201.849 24.8183C203.248 22.7545 204.847 21.92 206.721 21.92V17.92C203.305 17.92 200.552 19.6028 198.538 22.5737L201.849 24.8183ZM207.884 21.5475C208.704 20.9616 209.695 20.64 210.945 20.64V16.64C208.953 16.64 207.128 17.1717 205.559 18.2925L207.884 21.5475ZM210.945 20.64C211.81 20.64 212.826 21.0646 213.995 22.518L217.112 20.01C215.465 17.9648 213.409 16.64 210.945 16.64V20.64ZM213.995 22.518C215.059 23.8397 215.692 25.6566 215.73 28.1423L219.729 28.0817C219.682 24.9354 218.864 22.1869 217.112 20.01L213.995 22.518ZM213.459 29.3791L211.155 29.5071L211.376 33.5009L213.68 33.3729L213.459 29.3791ZM211.266 29.504C209.725 29.504 208.531 29.0643 207.563 28.2474L204.984 31.3046C206.746 32.7917 208.881 33.504 211.266 33.504V29.504ZM207.59 28.2708C206.525 27.3389 206.225 26.5466 206.225 25.872H202.225C202.225 28.0134 203.291 29.8238 204.956 31.2812L207.59 28.2708ZM206.225 25.872C206.225 24.6818 206.424 23.763 206.748 23.0573L203.111 21.3907C202.496 22.733 202.225 24.2462 202.225 25.872H206.225ZM203.689 20.6552C201.097 22.7049 200.177 26.3964 200.177 30.8H204.177C204.177 26.6702 205.093 24.6444 206.17 23.7928L203.689 20.6552ZM200.177 30.8C200.177 33.1355 200.666 35.3802 201.637 37.5156L205.278 35.8604C204.542 34.2411 204.177 32.5605 204.177 30.8H200.177ZM201.644 37.5315C202.186 38.6962 202.944 39.6984 203.978 40.4039C205.024 41.1176 206.223 41.44 207.49 41.44V37.44C206.921 37.44 206.531 37.3037 206.233 37.1001C205.923 36.8883 205.583 36.5144 205.271 35.8445L201.644 37.5315ZM207.49 41.44C209.998 41.44 212.049 40.3336 213.442 38.2454L210.113 36.0266C209.458 37.0104 208.65 37.44 207.49 37.44V41.44ZM213.455 38.2244C214.696 36.3122 215.373 34.0538 215.564 31.5265L211.575 31.2255C211.425 33.2209 210.907 34.8024 210.1 36.0476L213.455 38.2244ZM209.602 18.752C208.141 18.752 206.991 19.5084 206.287 20.683L209.716 22.741C209.745 22.6927 209.763 22.6742 209.763 22.6737C209.764 22.6735 209.76 22.6774 209.752 22.6838C209.744 22.6903 209.733 22.6984 209.718 22.707C209.688 22.7253 209.655 22.7386 209.626 22.7461C209.599 22.7534 209.588 22.752 209.602 22.752V18.752ZM206.319 20.6305C205.723 21.5577 205.425 22.5959 205.425 23.696H209.425C209.425 23.3455 209.512 23.061 209.684 22.7935L206.319 20.6305ZM205.425 23.696C205.425 25.7783 206.154 27.6117 207.671 29.0079L210.38 26.0641C209.764 25.4977 209.425 24.771 209.425 23.696H205.425ZM207.7 29.034C209.167 30.3313 210.915 31.008 212.865 31.008V27.008C211.914 27.008 211.103 26.7034 210.351 26.038L207.7 29.034ZM212.865 31.008H213.633V27.008H212.865V31.008ZM215.632 28.9264C215.539 26.6543 215.143 24.5423 214.418 22.6098L210.673 24.0142C211.228 25.495 211.557 27.1803 211.635 29.0896L215.632 28.9264ZM214.433 22.6513C214.062 21.5918 213.509 20.6094 212.674 19.8828C211.8 19.1228 210.74 18.752 209.602 18.752V22.752C209.828 22.752 209.942 22.8078 210.049 22.9012C210.195 23.0279 210.431 23.3255 210.658 23.9727L214.433 22.6513ZM236.306 32.208L238.303 32.3122L234.435 31.5008L236.306 32.208ZM232.594 39.888L230.964 38.7296L230.953 38.744L230.943 38.7586L232.594 39.888ZM223.506 39.952L221.932 41.1858L221.942 41.1988L221.952 41.2116L223.506 39.952ZM224.53 23.248L222.924 22.0563L222.918 22.0647L222.911 22.0732L224.53 23.248ZM234.514 20.112L233.461 21.8125L233.491 21.831L233.522 21.8485L234.514 20.112ZM236.882 22.032L235.387 23.3607L237.768 26.0391L238.798 22.6067L236.882 22.032ZM238.738 20.048L239.995 21.6039L240.012 21.5895L240.03 21.5748L238.738 20.048ZM241.106 26.256L239.35 25.2983L239.18 25.6098L239.128 25.9608L241.106 26.256ZM240.402 34.192L238.402 34.1569L238.298 40.0792L241.971 35.4321L240.402 34.192ZM247.058 25.808L245.644 24.3938L245.589 24.4481L245.539 24.5064L247.058 25.808ZM248.21 26.832L249.863 27.9576L249.907 27.8926L249.946 27.8243L248.21 26.832ZM240.146 37.392L238.582 36.1458L238.181 36.6489L238.149 37.2913L240.146 37.392ZM239.634 47.76L237.636 47.6671L237.636 47.6742L237.636 47.6813L239.634 47.76ZM237.33 59.152L235.621 58.1132L235.609 58.1327L235.598 58.1526L237.33 59.152ZM226.322 61.136L227.469 59.4975L227.457 59.4896L226.322 61.136ZM226.898 50L225.287 48.8146L225.28 48.8246L225.273 48.8346L226.898 50ZM235.922 39.568L237.389 40.9279L237.882 40.3962L237.919 39.6722L235.922 39.568ZM227.986 24.4L226.369 23.2236L226.364 23.2304L227.986 24.4ZM227.026 36.688L225.198 37.5003L225.212 37.5313L225.227 37.5618L227.026 36.688ZM232.786 36.304L234.53 37.2825L232.786 36.304ZM236.562 27.28L238.444 27.9574L238.542 27.6857L238.559 27.3974L236.562 27.28ZM236.69 24.528H238.69V24.028L238.455 23.5868L236.69 24.528ZM234.578 22.608L233.5 24.2925L233.524 24.3081L233.549 24.323L234.578 22.608ZM235.73 42.576L237.727 42.6779L238.008 37.1758L234.263 41.2165L235.73 42.576ZM229.202 58.768L227.446 59.7257L229.202 58.768ZM235.41 48.848L237.407 48.96L237.407 48.9499L235.41 48.848ZM234.435 31.5008C233.13 34.9535 231.965 37.3208 230.964 38.7296L234.224 41.0464C235.527 39.2125 236.837 36.4598 238.177 32.9152L234.435 31.5008ZM230.943 38.7586C230.176 39.8807 229.299 40.32 228.178 40.32V44.32C230.726 44.32 232.794 43.1379 234.245 41.0174L230.943 38.7586ZM228.178 40.32C227.016 40.32 226.006 39.86 225.06 38.6924L221.952 41.2116C223.566 43.2013 225.67 44.32 228.178 44.32V40.32ZM225.08 38.7182C224.257 37.6674 223.65 35.7003 223.65 32.4H219.65C219.65 36.0117 220.281 39.0792 221.932 41.1858L225.08 38.7182ZM223.65 32.4C223.65 29.3403 224.491 26.7063 226.149 24.4228L222.911 22.0732C220.729 25.0803 219.65 28.5477 219.65 32.4H223.65ZM226.136 24.4397C227.741 22.277 229.717 21.28 232.21 21.28V17.28C228.388 17.28 225.245 18.9283 222.924 22.0563L226.136 24.4397ZM232.21 21.28C232.309 21.28 232.698 21.3401 233.461 21.8125L235.567 18.4115C234.538 17.7746 233.391 17.28 232.21 17.28V21.28ZM233.522 21.8485C234.23 22.2532 234.849 22.7557 235.387 23.3607L238.377 20.7033C237.549 19.7723 236.59 18.9948 235.506 18.3755L233.522 21.8485ZM238.798 22.6067C238.749 22.7691 238.692 22.8389 238.719 22.7997C238.739 22.7706 238.793 22.6992 238.903 22.5823C239.123 22.3465 239.476 22.0226 239.995 21.6039L237.481 18.4921C236.89 18.9694 236.38 19.4242 235.981 19.8497C235.636 20.2193 235.171 20.7752 234.966 21.4573L238.798 22.6067ZM240.03 21.5748C240.527 21.1538 240.906 20.892 241.174 20.7444C241.471 20.5809 241.485 20.64 241.298 20.64V16.64C240.513 16.64 239.802 16.9338 239.246 17.2396C238.661 17.5613 238.058 18.0035 237.446 18.5212L240.03 21.5748ZM241.298 20.64C241.133 20.64 240.949 20.6093 240.765 20.5338C240.582 20.4589 240.439 20.3566 240.336 20.258C240.146 20.0764 240.109 19.928 240.13 19.9867C240.146 20.0328 240.182 20.1646 240.211 20.419C240.24 20.6664 240.258 20.9874 240.258 21.392H244.258C244.258 20.4128 244.18 19.4522 243.906 18.6693C243.638 17.8996 242.893 16.64 241.298 16.64V20.64ZM240.258 21.392C240.258 22.9407 239.936 24.224 239.35 25.2983L242.862 27.2137C243.812 25.472 244.258 23.5126 244.258 21.392H240.258ZM239.128 25.9608C238.691 28.8901 238.447 31.6234 238.402 34.1569L242.402 34.2271C242.443 31.8966 242.668 29.3393 243.084 26.5512L239.128 25.9608ZM241.971 35.4321C244.062 32.7871 245.66 30.7671 246.768 29.3715C247.323 28.6736 247.753 28.1332 248.06 27.7494C248.213 27.5573 248.335 27.4063 248.425 27.2951C248.47 27.2395 248.506 27.1955 248.533 27.1623C248.546 27.1457 248.557 27.1329 248.565 27.1232C248.574 27.1131 248.577 27.1091 248.577 27.1096L245.539 24.5064C245.249 24.8451 242.988 27.6939 238.833 32.9519L241.971 35.4321ZM248.472 27.2222C248.547 27.1475 248.55 27.1596 248.482 27.1996C248.417 27.2371 248.185 27.36 247.826 27.36V23.36C246.756 23.36 245.997 24.0406 245.644 24.3938L248.472 27.2222ZM247.826 27.36C247.731 27.36 247.292 27.3349 246.892 26.9342C246.491 26.5335 246.466 26.095 246.466 26H250.466C250.466 25.4784 250.334 24.7198 249.72 24.1058C249.106 23.4918 248.348 23.36 247.826 23.36V27.36ZM246.466 26C246.466 25.9041 246.482 25.8387 246.49 25.8118C246.498 25.7867 246.499 25.7954 246.474 25.8397L249.946 27.8243C250.233 27.3235 250.466 26.7036 250.466 26H246.466ZM246.557 25.7064C245.239 27.6415 242.596 31.1068 238.582 36.1458L241.71 38.6382C245.718 33.6078 248.45 30.0331 249.863 27.9576L246.557 25.7064ZM238.149 37.2913C237.893 42.3682 237.722 45.8279 237.636 47.6671L241.632 47.8529C241.717 46.0227 241.887 42.5705 242.143 37.4927L238.149 37.2913ZM237.636 47.6813C237.424 53.0629 236.658 56.4071 235.621 58.1132L239.039 60.1908C240.647 57.5449 241.418 53.2945 241.632 47.8387L237.636 47.6813ZM235.598 58.1526C234.783 59.5651 233.277 60.48 230.418 60.48V64.48C234.215 64.48 237.317 63.1762 239.062 60.1514L235.598 58.1526ZM230.418 60.48C229.41 60.48 228.44 60.1773 227.469 59.4975L225.175 62.7745C226.764 63.8867 228.525 64.48 230.418 64.48V60.48ZM227.457 59.4896C226.977 59.1581 226.466 58.4247 226.466 56.592H222.466C222.466 59.1113 223.192 61.4072 225.187 62.7824L227.457 59.4896ZM226.466 56.592C226.466 54.9877 227.072 53.1899 228.523 51.1654L225.273 48.8346C223.481 51.3328 222.466 53.9296 222.466 56.592H226.466ZM228.509 51.1854C230.1 49.0232 233.04 45.6176 237.389 40.9279L234.455 38.2081C230.1 42.9051 227.024 46.4541 225.287 48.8146L228.509 51.1854ZM237.919 39.6722L238.303 32.3122L234.309 32.1038L233.925 39.4638L237.919 39.6722ZM231.826 19.584C229.586 19.584 227.782 21.2806 226.369 23.2237L229.603 25.5763C230.921 23.7647 231.676 23.584 231.826 23.584V19.584ZM226.364 23.2304C224.777 25.4318 224.002 27.9816 224.002 30.8H228.002C228.002 28.7544 228.55 27.0376 229.608 25.5696L226.364 23.2304ZM224.002 30.8C224.002 33.3598 224.365 35.6246 225.198 37.5003L228.854 35.8757C228.322 34.6794 228.002 33.0189 228.002 30.8H224.002ZM225.227 37.5618C226.081 39.3206 227.503 40.928 229.714 40.928V36.928C229.693 36.928 229.647 36.9354 229.522 36.8316C229.364 36.6997 229.112 36.4059 228.825 35.8142L225.227 37.5618ZM229.714 40.928C231.966 40.928 233.502 39.1158 234.53 37.2825L231.042 35.3255C230.615 36.0854 230.251 36.5225 229.983 36.7513C229.735 36.9628 229.657 36.928 229.714 36.928V40.928ZM234.53 37.2825C235.6 35.3764 236.905 32.2317 238.444 27.9574L234.68 26.6026C233.147 30.8616 231.935 33.733 231.042 35.3255L234.53 37.2825ZM238.559 27.3974C238.643 25.9665 238.69 24.9835 238.69 24.528H234.69C234.69 24.8405 234.652 25.6922 234.565 27.1626L238.559 27.3974ZM238.455 23.5868C237.861 22.4727 236.789 21.6023 235.607 20.893L233.549 24.323C234.5 24.8937 234.837 25.3033 234.925 25.4692L238.455 23.5868ZM235.656 20.9235C234.455 20.155 233.15 19.584 231.826 19.584V23.584C232.038 23.584 232.567 23.6957 233.5 24.2925L235.656 20.9235ZM234.263 41.2165C231.773 43.9034 229.843 46.3872 228.527 48.6623C227.222 50.9179 226.434 53.1133 226.434 55.184H230.434C230.434 54.0973 230.862 52.6128 231.989 50.6657C233.105 48.7381 234.823 46.4966 237.197 43.9355L234.263 41.2165ZM226.434 55.184C226.434 56.8551 226.727 58.4071 227.446 59.7257L230.958 57.8103C230.653 57.2515 230.434 56.4142 230.434 55.184H226.434ZM227.446 59.7257C228.228 61.1584 229.531 62.176 231.314 62.176V58.176C231.266 58.176 231.245 58.17 231.241 58.1689C231.238 58.168 231.234 58.1668 231.223 58.1599C231.203 58.1461 231.099 58.0686 230.958 57.8103L227.446 59.7257ZM231.314 62.176C232.384 62.176 233.412 61.8744 234.286 61.1947C235.137 60.5326 235.701 59.6219 236.069 58.6324L232.319 57.2396C232.132 57.7435 231.939 57.9528 231.83 58.0373C231.744 58.1043 231.609 58.176 231.314 58.176V62.176ZM236.069 58.6324C236.745 56.8119 237.153 53.482 237.407 48.96L233.413 48.736C233.155 53.3447 232.752 56.0734 232.319 57.2396L236.069 58.6324ZM237.407 48.9499L237.727 42.6779L233.733 42.4741L233.413 48.7461L237.407 48.9499Z" fill="#1C1C1C"/>
<defs>
<linearGradient id="paint0_linear" x1="246" y1="26" x2="2" y2="26" gradientUnits="userSpaceOnUse">
<stop stop-color="#EE2F69"/>
<stop offset="0.502101" stop-color="#FCD9E3"/>
<stop offset="1" stop-color="#EE2F69"/>
</linearGradient>
</defs>
</svg>
