<svg width="65" height="45" viewBox="0 0 65 45" fill="none" xmlns="http://www.w3.org/2000/svg">
<path d="M28.24 31.44C28.5387 31.0133 28.9653 30.2667 29.52 29.2C30.8853 26.768 31.696 25.552 31.952 25.552C32.2507 25.552 32.4 25.7227 32.4 26.064C32.4 28.1547 31.312 30.8 29.136 34C25.2107 39.76 19.984 42.64 13.456 42.64C11.6213 42.64 9.936 42.2133 8.4 41.36C6.864 40.5067 5.648 39.4187 4.752 38.096C2.91733 35.408 2 32.592 2 29.648C2 22.224 3.92 16.2507 7.76 11.728C11.6427 7.16266 16.2293 4.88 21.52 4.88C23.5253 4.88 25.168 5.47733 26.448 6.672C27.728 7.824 28.368 9.296 28.368 11.088C28.368 12.88 27.92 14.544 27.024 16.08C26.128 17.616 25.04 18.384 23.76 18.384C22.5227 18.384 21.904 18.0427 21.904 17.36C21.904 16.592 22.3093 15.7173 23.12 14.736C23.9733 13.7547 24.4 12.7733 24.4 11.792C24.4 8.76266 22.7787 7.248 19.536 7.248C16.336 7.248 13.4347 9.40266 10.832 13.712C8.22933 18.0213 6.928 22.4587 6.928 27.024C6.928 30.1813 7.824 32.9973 9.616 35.472C11.408 37.904 13.9253 39.12 17.168 39.12C21.008 39.12 24.6987 36.56 28.24 31.44ZM48.535 40.336C50.839 40.336 52.8657 39.5253 54.615 37.904C56.407 36.2827 57.303 34.4267 57.303 32.336C57.303 30.2027 56.6417 28.24 55.319 26.448C53.8683 27.1733 52.439 27.536 51.031 27.536C47.7457 27.536 46.103 26.512 46.103 24.464C46.103 23.8667 46.5083 23.3333 47.319 22.864C48.1297 22.352 49.2817 22.096 50.775 22.096C52.311 22.096 53.975 22.544 55.767 23.44C57.4737 21.6053 58.327 19.536 58.327 17.232C58.327 14.3733 57.0683 12.112 54.551 10.448C52.0763 8.74133 49.4097 7.888 46.551 7.888C45.9537 7.888 45.5057 7.90933 45.207 7.952C45.1643 9.18933 45.0577 11.1733 44.887 13.904C44.631 18 44.503 24.2507 44.503 32.656C44.503 35.8987 44.2683 37.52 43.799 37.52C41.9643 37.52 40.791 37.264 40.279 36.752C39.767 36.24 39.511 34.768 39.511 32.336C39.511 31.7387 39.6177 29.2853 39.831 24.976C40.087 20.6667 40.215 17.1893 40.215 14.544C40.215 11.8987 40.3003 9.95733 40.471 8.72C38.2097 9.488 36.9937 10.7253 36.823 12.432C36.6523 13.84 36.3323 14.8213 35.863 15.376C35.4363 15.9307 34.839 16.208 34.071 16.208C33.3457 16.208 32.855 16.016 32.599 15.632C32.343 15.2053 32.215 14.7787 32.215 14.352C32.215 10.64 35.095 8.08 40.855 6.672C41.5803 3.77067 42.7323 2.32 44.311 2.32C44.951 2.32 45.271 3.51467 45.271 5.904C46.3803 5.776 47.7457 5.712 49.367 5.712C51.031 5.712 52.9297 6.032 55.063 6.672C57.1963 7.26933 59.0523 8.35733 60.631 9.936C62.2097 11.472 62.999 13.2 62.999 15.12C62.999 18.704 61.271 21.9253 57.815 24.784C60.2043 26.6613 61.399 28.9013 61.399 31.504C61.399 34.1067 60.5883 36.2613 58.967 37.968C55.9377 41.0827 51.8843 42.64 46.807 42.64C43.351 42.64 40.8763 42.4053 39.383 41.936C39.0843 41.8507 38.7643 41.6373 38.423 41.296C38.1243 40.912 37.975 40.4427 37.975 39.888C37.975 38.992 38.8497 38.544 40.599 38.544C41.1537 38.544 42.3697 38.8427 44.247 39.44C46.1243 40.0373 47.5537 40.336 48.535 40.336ZM53.975 25.04C52.695 23.9733 51.479 23.44 50.327 23.44C49.2177 23.44 48.663 23.6747 48.663 24.144C48.663 25.1253 49.7083 25.616 51.799 25.616C52.567 25.616 53.2923 25.424 53.975 25.04Z" fill="url(#paint0_linear)"/>
<path d="M28.24 31.44L26.6015 30.2931L26.5951 30.3023L28.24 31.44ZM29.52 29.2L27.776 28.2209L27.7603 28.2489L27.7456 28.2773L29.52 29.2ZM29.136 34L30.7887 35.1263L30.7899 35.1246L29.136 34ZM8.4 41.36L7.42871 43.1083L7.42871 43.1083L8.4 41.36ZM4.752 38.096L6.40785 36.9743L6.4039 36.9685L4.752 38.096ZM7.76 11.728L6.23647 10.4323L6.23541 10.4335L7.76 11.728ZM26.448 6.672L25.0834 8.13411L25.0966 8.14647L25.1101 8.15859L26.448 6.672ZM27.024 16.08L28.7516 17.0877L28.7516 17.0877L27.024 16.08ZM23.12 14.736L21.6108 13.4236L21.5942 13.4427L21.5781 13.4622L23.12 14.736ZM9.616 35.472L7.99612 36.645L8.00097 36.6517L8.00589 36.6584L9.616 35.472ZM29.8785 32.5869C30.2592 32.0429 30.7378 31.1932 31.2944 30.1227L27.7456 28.2773C27.1929 29.3401 26.8181 29.9837 26.6015 30.2931L29.8785 32.5869ZM31.264 30.1791C31.9397 28.9754 32.454 28.1166 32.8161 27.5734C33.0021 27.2943 33.113 27.152 33.1595 27.0989C33.1865 27.0682 33.1472 27.1189 33.0505 27.1935C33.0002 27.2321 32.8962 27.3072 32.7441 27.3782C32.5991 27.446 32.3216 27.552 31.952 27.552V23.552C31.2213 23.552 30.7273 23.9339 30.6095 24.0245C30.4141 24.1751 30.2589 24.3398 30.1525 24.4611C29.9324 24.712 29.7072 25.0257 29.4879 25.3546C29.0394 26.0274 28.4656 26.9926 27.776 28.2209L31.264 30.1791ZM31.952 27.552C31.7185 27.552 31.1993 27.4729 30.7828 26.997C30.4111 26.5721 30.4 26.1409 30.4 26.064H34.4C34.4 25.6458 34.3143 24.9586 33.7932 24.363C33.2274 23.7164 32.4842 23.552 31.952 23.552V27.552ZM30.4 26.064C30.4 27.5363 29.5975 29.7646 27.4821 32.8754L30.7899 35.1246C33.0265 31.8354 34.4 28.773 34.4 26.064H30.4ZM27.4833 32.8737C23.9006 38.131 19.2711 40.64 13.456 40.64V44.64C20.6969 44.64 26.5208 41.389 30.7887 35.1263L27.4833 32.8737ZM13.456 40.64C11.9456 40.64 10.5968 40.2926 9.37129 39.6117L7.42871 43.1083C9.27516 44.1341 11.297 44.64 13.456 44.64V40.64ZM9.37129 39.6117C8.08162 38.8952 7.11092 38.0122 6.40784 36.9743L3.09616 39.2177C4.18508 40.8252 5.64638 42.1181 7.42871 43.1083L9.37129 39.6117ZM6.4039 36.9685C4.77108 34.5762 4 32.1476 4 29.648H0C0 33.0364 1.06358 36.2398 3.1001 39.2235L6.4039 36.9685ZM4 29.648C4 22.5753 5.82262 17.0999 9.28459 13.0225L6.23541 10.4335C2.01738 15.4014 0 21.8727 0 29.648H4ZM9.28353 13.0237C12.8427 8.83881 16.8978 6.88 21.52 6.88V2.88C15.5609 2.88 10.4427 5.48652 6.23647 10.4323L9.28353 13.0237ZM21.52 6.88C23.0978 6.88 24.2277 7.33553 25.0834 8.13411L27.8126 5.20989C26.1083 3.61914 23.9528 2.88 21.52 2.88V6.88ZM25.1101 8.15859C25.9496 8.91416 26.368 9.83684 26.368 11.088H30.368C30.368 8.75516 29.5064 6.73383 27.7859 5.18541L25.1101 8.15859ZM26.368 11.088C26.368 12.5288 26.0126 13.8446 25.2964 15.0723L28.7516 17.0877C29.8274 15.2434 30.368 13.2312 30.368 11.088H26.368ZM25.2964 15.0723C24.6028 16.2614 24.0654 16.384 23.76 16.384V20.384C26.0146 20.384 27.6532 18.9706 28.7516 17.0877L25.2964 15.0723ZM23.76 16.384C23.5369 16.384 23.3922 16.3682 23.3098 16.353C23.2231 16.337 23.249 16.3299 23.3342 16.3768C23.4306 16.4301 23.5974 16.5512 23.7318 16.7738C23.8685 16.9999 23.904 17.2186 23.904 17.36H19.904C19.904 17.8427 20.0169 18.3601 20.3082 18.8422C20.5973 19.3208 20.996 19.6553 21.4018 19.8792C22.1531 20.2936 23.0229 20.384 23.76 20.384V16.384ZM23.904 17.36C23.904 17.277 23.9677 16.8502 24.6619 16.0098L21.5781 13.4622C20.651 14.5845 19.904 15.907 19.904 17.36H23.904ZM24.6292 16.0484C25.6946 14.8231 26.4 13.394 26.4 11.792H22.4C22.4 12.1527 22.252 12.6862 21.6108 13.4236L24.6292 16.0484ZM26.4 11.792C26.4 9.93286 25.8961 8.18065 24.5493 6.92253C23.2282 5.68834 21.4331 5.248 19.536 5.248V9.248C20.8816 9.248 21.5184 9.56499 21.8187 9.84547C22.0933 10.102 22.4 10.6218 22.4 11.792H26.4ZM19.536 5.248C15.296 5.248 11.8655 8.13226 9.12001 12.678L12.544 14.746C15.0039 10.6731 17.376 9.248 19.536 9.248V5.248ZM9.12001 12.678C6.34887 17.2663 4.928 22.0575 4.928 27.024H8.928C8.928 22.8599 10.1098 18.7764 12.544 14.746L9.12001 12.678ZM4.928 27.024C4.928 30.5876 5.94836 33.8172 7.99612 36.645L11.2359 34.299C9.69964 32.1775 8.928 29.7751 8.928 27.024H4.928ZM8.00589 36.6584C10.206 39.6443 13.3442 41.12 17.168 41.12V37.12C14.5064 37.12 12.61 36.1637 11.2261 34.2856L8.00589 36.6584ZM17.168 41.12C21.992 41.12 26.2061 37.8964 29.8849 32.5777L26.5951 30.3023C23.1912 35.2236 20.024 37.12 17.168 37.12V41.12ZM54.615 37.904L53.2732 36.4209L53.2643 36.429L53.2555 36.4371L54.615 37.904ZM55.319 26.448L56.9282 25.2603L55.9292 23.9068L54.4246 24.6591L55.319 26.448ZM47.319 22.864L48.3211 24.5949L48.3544 24.5755L48.387 24.555L47.319 22.864ZM55.767 23.44L54.8726 25.2289L56.2117 25.8984L57.2314 24.8022L55.767 23.44ZM54.551 10.448L53.4155 12.0944L53.4317 12.1056L53.4481 12.1164L54.551 10.448ZM45.207 7.952L44.9241 5.9721L43.2659 6.209L43.2082 7.88307L45.207 7.952ZM44.887 13.904L46.8831 14.0288L46.8831 14.0288L44.887 13.904ZM40.279 36.752L38.8648 38.1662L38.8648 38.1662L40.279 36.752ZM39.831 24.976L37.8345 24.8574L37.8339 24.8673L37.8334 24.8771L39.831 24.976ZM40.471 8.72L42.4522 8.99327L42.8948 5.78462L39.8278 6.82623L40.471 8.72ZM36.823 12.432L38.8085 12.6727L38.811 12.6519L38.8131 12.631L36.823 12.432ZM35.863 15.376L34.3362 14.0841L34.3061 14.1197L34.2778 14.1566L35.863 15.376ZM32.599 15.632L30.884 16.661L30.9085 16.7018L30.9349 16.7414L32.599 15.632ZM40.855 6.672L41.3299 8.6148L42.5025 8.32816L42.7953 7.15707L40.855 6.672ZM45.271 5.904H43.271V8.14804L45.5003 7.89082L45.271 5.904ZM55.063 6.672L54.4883 8.58765L54.506 8.59295L54.5237 8.59793L55.063 6.672ZM60.631 9.936L59.2168 11.3502L59.2265 11.3599L59.2363 11.3694L60.631 9.936ZM57.815 24.784L56.5403 23.2429L54.6287 24.824L56.5794 26.3566L57.815 24.784ZM58.967 37.968L60.4007 39.3624L60.4089 39.354L60.417 39.3455L58.967 37.968ZM39.383 41.936L39.9827 40.028L39.9576 40.0202L39.9324 40.013L39.383 41.936ZM38.423 41.296L36.8443 42.5239L36.9207 42.6222L37.0088 42.7102L38.423 41.296ZM44.247 39.44L44.8534 37.5341L44.8534 37.5341L44.247 39.44ZM53.975 25.04L54.9555 26.7831L57.4841 25.3608L55.2554 23.5036L53.975 25.04ZM48.535 42.336C51.3624 42.336 53.8698 41.3216 55.9745 39.3709L53.2555 36.4371C51.8615 37.7291 50.3156 38.336 48.535 38.336V42.336ZM55.9568 39.3871C58.096 37.4516 59.303 35.082 59.303 32.336H55.303C55.303 33.7713 54.718 35.1137 53.2732 36.4209L55.9568 39.3871ZM59.303 32.336C59.303 29.7555 58.4927 27.3801 56.9282 25.2603L53.7099 27.6357C54.7906 29.0999 55.303 30.6499 55.303 32.336H59.303ZM54.4246 24.6591C53.2093 25.2668 52.0845 25.536 51.031 25.536V29.536C52.7935 29.536 54.5273 29.0799 56.2134 28.2369L54.4246 24.6591ZM51.031 25.536C49.5313 25.536 48.7457 25.2906 48.393 25.0708C48.2457 24.9789 48.197 24.9067 48.1747 24.8649C48.1497 24.8181 48.103 24.7049 48.103 24.464H44.103C44.103 26.13 44.8298 27.5631 46.277 28.4652C47.567 29.2694 49.2453 29.536 51.031 29.536V25.536ZM48.103 24.464C48.103 24.546 48.0882 24.6289 48.0617 24.7029C48.036 24.7745 48.0074 24.8155 47.9993 24.8262C47.9925 24.8351 48.0062 24.8149 48.0594 24.7711C48.1125 24.7272 48.1963 24.6671 48.3211 24.5949L46.3169 21.1331C45.2628 21.7434 44.103 22.8064 44.103 24.464H48.103ZM48.387 24.555C48.7464 24.328 49.4659 24.096 50.775 24.096V20.096C49.0974 20.096 47.513 20.376 46.251 21.173L48.387 24.555ZM50.775 24.096C51.9208 24.096 53.2769 24.431 54.8726 25.2289L56.6614 21.6511C54.6731 20.657 52.7012 20.096 50.775 20.096V24.096ZM57.2314 24.8022C59.2494 22.6328 60.327 20.0877 60.327 17.232H56.327C56.327 18.9843 55.6979 20.5779 54.3026 22.0778L57.2314 24.8022ZM60.327 17.232C60.327 13.6584 58.6941 10.7892 55.6539 8.77956L53.4481 12.1164C55.4425 13.4348 56.327 15.0882 56.327 17.232H60.327ZM55.6865 8.80157C52.8961 6.87721 49.8368 5.888 46.551 5.888V9.888C48.9825 9.888 51.2565 10.6055 53.4155 12.0944L55.6865 8.80157ZM46.551 5.888C45.9318 5.888 45.3682 5.90867 44.9241 5.9721L45.4899 9.9319C45.6432 9.90999 45.9756 9.888 46.551 9.888V5.888ZM43.2082 7.88307C43.1666 9.09039 43.0614 11.0505 42.8909 13.7792L46.8831 14.0288C47.0539 11.2962 47.1621 9.28827 47.2058 8.02092L43.2082 7.88307ZM42.8909 13.7792C42.6308 17.9404 42.503 24.2426 42.503 32.656H46.503C46.503 24.2587 46.6312 18.0596 46.8831 14.0288L42.8909 13.7792ZM42.503 32.656C42.503 34.2551 42.4437 35.354 42.3476 36.0175C42.2967 36.3695 42.2533 36.4635 42.2725 36.4194C42.2818 36.3981 42.3582 36.2188 42.5591 36.0206C42.791 35.7916 43.2164 35.52 43.799 35.52V39.52C45.2459 39.52 45.8244 38.2823 45.9415 38.0126C46.1367 37.5632 46.24 37.0492 46.3064 36.5905C46.445 35.6326 46.503 34.2996 46.503 32.656H42.503ZM43.799 35.52C42.9584 35.52 42.3631 35.4599 41.9693 35.374C41.5358 35.2794 41.5536 35.1982 41.6932 35.3378L38.8648 38.1662C39.5164 38.8178 40.3769 39.1206 41.1167 39.282C41.8962 39.4521 42.805 39.52 43.799 39.52V35.52ZM41.6932 35.3378C41.8319 35.4765 41.8468 35.5659 41.8081 35.466C41.7744 35.3788 41.7232 35.2073 41.6734 34.9213C41.5734 34.3464 41.511 33.4989 41.511 32.336H37.511C37.511 33.6051 37.5766 34.7096 37.7326 35.6067C37.8698 36.3955 38.1388 37.4402 38.8648 38.1662L41.6932 35.3378ZM41.511 32.336C41.511 31.8027 41.6134 29.42 41.8286 25.0749L37.8334 24.8771C37.6219 29.1506 37.511 31.6747 37.511 32.336H41.511ZM41.8275 25.0946C42.0846 20.767 42.215 17.2456 42.215 14.544H38.215C38.215 17.133 38.0894 20.5663 37.8345 24.8574L41.8275 25.0946ZM42.215 14.544C42.215 11.9125 42.3014 10.0866 42.4522 8.99327L38.4898 8.44672C38.2992 9.82808 38.215 11.8848 38.215 14.544H42.215ZM39.8278 6.82623C37.1652 7.73053 35.112 9.44209 34.8329 12.233L38.8131 12.631C38.8753 12.0086 39.2542 11.2455 41.1142 10.6138L39.8278 6.82623ZM34.8375 12.1913C34.6765 13.5199 34.4084 13.9989 34.3362 14.0841L37.3898 16.6679C38.2563 15.6438 38.6282 14.1601 38.8085 12.6727L34.8375 12.1913ZM34.2778 14.1566C34.2601 14.1795 34.2502 14.1875 34.2498 14.1878C34.2493 14.1882 34.2498 14.1878 34.251 14.187C34.2522 14.1862 34.253 14.1859 34.2528 14.186C34.2525 14.1861 34.2501 14.1872 34.2448 14.1889C34.2395 14.1907 34.2304 14.1933 34.2169 14.196C34.1898 14.2015 34.1427 14.208 34.071 14.208V18.208C35.3904 18.208 36.6025 17.6949 37.4482 16.5954L34.2778 14.1566ZM34.071 14.208C33.8702 14.208 33.8314 14.1794 33.8878 14.2015C33.9213 14.2146 33.9833 14.2439 34.0566 14.3004C34.1318 14.3584 34.2038 14.4336 34.2631 14.5226L30.9349 16.7414C31.7381 17.9462 33.0738 18.208 34.071 18.208V14.208ZM34.314 14.603C34.2131 14.4348 34.215 14.3596 34.215 14.352H30.215C30.215 15.1977 30.4729 15.9758 30.884 16.661L34.314 14.603ZM34.215 14.352C34.215 13.0916 34.6722 12.0597 35.7037 11.1428C36.8033 10.1654 38.6114 9.27932 41.3299 8.6148L40.3801 4.7292C37.3386 5.47267 34.8267 6.57055 33.0463 8.15318C31.1978 9.79627 30.215 11.9004 30.215 14.352H34.215ZM42.7953 7.15707C43.1263 5.83287 43.5066 5.058 43.8292 4.65176C44.0995 4.31136 44.2412 4.32 44.311 4.32V0.32C42.8021 0.32 41.5785 1.05397 40.6968 2.16423C39.8674 3.20867 39.309 4.60979 38.9147 6.18693L42.7953 7.15707ZM44.311 4.32C44.0656 4.32 43.817 4.25921 43.5948 4.14071C43.3824 4.0274 43.2469 3.89001 43.172 3.79678C43.0435 3.63692 43.0521 3.5578 43.0991 3.73347C43.1894 4.07069 43.271 4.75379 43.271 5.904H47.271C47.271 4.66488 47.1926 3.55597 46.9629 2.69853C46.85 2.27686 46.6585 1.74975 46.29 1.29122C45.8736 0.773045 45.1985 0.32 44.311 0.32V4.32ZM45.5003 7.89082C46.508 7.77454 47.7914 7.712 49.367 7.712V3.712C47.7 3.712 46.2527 3.77745 45.0418 3.91718L45.5003 7.89082ZM49.367 7.712C50.7832 7.712 52.4826 7.98594 54.4883 8.58765L55.6377 4.75634C53.3767 4.07805 51.2788 3.712 49.367 3.712V7.712ZM54.5237 8.59793C56.3236 9.1019 57.879 10.0124 59.2168 11.3502L62.0452 8.52178C60.2257 6.70222 58.069 5.43676 55.6023 4.74607L54.5237 8.59793ZM59.2363 11.3694C60.4901 12.5893 60.999 13.8208 60.999 15.12H64.999C64.999 12.5792 63.9293 10.3547 62.0257 8.50255L59.2363 11.3694ZM60.999 15.12C60.999 17.9618 59.6627 20.6601 56.5403 23.2429L59.0897 26.3251C62.8793 23.1906 64.999 19.4462 64.999 15.12H60.999ZM56.5794 26.3566C58.577 27.9262 59.399 29.622 59.399 31.504H63.399C63.399 28.1806 61.8317 25.3965 59.0506 23.2114L56.5794 26.3566ZM59.399 31.504C59.399 33.6529 58.7466 35.2962 57.517 36.5905L60.417 39.3455C62.4301 37.2265 63.399 34.5604 63.399 31.504H59.399ZM57.5333 36.5736C54.9442 39.2356 51.443 40.64 46.807 40.64V44.64C52.3257 44.64 56.9312 42.9297 60.4007 39.3624L57.5333 36.5736ZM46.807 40.64C43.3695 40.64 41.1614 40.3985 39.9827 40.028L38.7833 43.844C40.5912 44.4122 43.3325 44.64 46.807 44.64V40.64ZM39.9324 40.013C40.0228 40.0388 40.0555 40.066 40.0284 40.0479C40.0015 40.03 39.9372 39.9818 39.8372 39.8818L37.0088 42.7102C37.4693 43.1707 38.0755 43.6425 38.8336 43.859L39.9324 40.013ZM40.0017 40.0681C39.999 40.0647 39.9969 40.0623 39.9929 40.0496C39.9879 40.034 39.975 39.9852 39.975 39.888H35.975C35.975 40.822 36.235 41.7405 36.8443 42.5239L40.0017 40.0681ZM39.975 39.888C39.975 40.0042 39.9415 40.197 39.8153 40.3909C39.6957 40.5747 39.565 40.6487 39.5428 40.6601C39.5293 40.667 39.594 40.6325 39.7876 40.5995C39.9761 40.5673 40.2416 40.544 40.599 40.544V36.544C39.6185 36.544 38.5805 36.6588 37.7192 37.0999C37.2596 37.3353 36.801 37.6893 36.4627 38.2091C36.1178 38.739 35.975 39.3238 35.975 39.888H39.975ZM40.599 40.544C40.5795 40.544 40.6366 40.5435 40.8064 40.5721C40.9645 40.5988 41.1766 40.6431 41.45 40.7103C41.9972 40.8447 42.7235 41.054 43.6406 41.3459L44.8534 37.5341C43.8932 37.2286 43.0728 36.99 42.4041 36.8257C41.7851 36.6737 41.1383 36.544 40.599 36.544V40.544ZM43.6406 41.3459C45.5581 41.956 47.2312 42.336 48.535 42.336V38.336C47.8762 38.336 46.6906 38.1187 44.8534 37.5341L43.6406 41.3459ZM55.2554 23.5036C53.7726 22.2679 52.1168 21.44 50.327 21.44V25.44C50.8412 25.44 51.6174 25.6787 52.6946 26.5764L55.2554 23.5036ZM50.327 21.44C49.692 21.44 48.9517 21.4982 48.2997 21.7741C47.953 21.9207 47.5336 22.1698 47.196 22.5983C46.835 23.0565 46.663 23.6005 46.663 24.144H50.663C50.663 24.4528 50.5604 24.7915 50.338 25.0737C50.1391 25.3262 49.9276 25.4286 49.8583 25.4579C49.788 25.4877 49.7801 25.4783 49.8783 25.4644C49.9699 25.4515 50.1154 25.44 50.327 25.44V21.44ZM46.663 24.144C46.663 24.7663 46.8363 25.3939 47.2283 25.946C47.607 26.4791 48.109 26.8293 48.5972 27.0585C49.5216 27.4924 50.6605 27.616 51.799 27.616V23.616C51.3494 23.616 50.9997 23.5893 50.7362 23.548C50.4667 23.5059 50.3361 23.456 50.2968 23.4375C50.2623 23.4213 50.3724 23.4648 50.4897 23.63C50.6204 23.8141 50.663 24.0124 50.663 24.144H46.663ZM51.799 27.616C52.9175 27.616 53.9797 27.332 54.9555 26.7831L52.9945 23.2968C52.605 23.516 52.2165 23.616 51.799 23.616V27.616Z" fill="#1C1C1C"/>
<defs>
<linearGradient id="paint0_linear" x1="65" y1="26" x2="2" y2="26" gradientUnits="userSpaceOnUse">
<stop stop-color="#EE2F69"/>
<stop offset="0.502101" stop-color="#FCD9E3"/>
<stop offset="1" stop-color="#EE2F69"/>
</linearGradient>
</defs>
</svg>
