<svg width="65" height="45" viewBox="0 0 65 45" fill="none" xmlns="http://www.w3.org/2000/svg">
<mask id="path-1-outside-1" maskUnits="userSpaceOnUse" x="0" y="0.32" width="65" height="45" fill="black">
<rect fill="white" y="0.32" width="65" height="45"/>
<path d="M28.24 31.44C28.5387 31.0133 28.9653 30.2667 29.52 29.2C30.8853 26.768 31.696 25.552 31.952 25.552C32.2507 25.552 32.4 25.7227 32.4 26.064C32.4 28.1547 31.312 30.8 29.136 34C25.2107 39.76 19.984 42.64 13.456 42.64C11.6213 42.64 9.936 42.2133 8.4 41.36C6.864 40.5067 5.648 39.4187 4.752 38.096C2.91733 35.408 2 32.592 2 29.648C2 22.224 3.92 16.2507 7.76 11.728C11.6427 7.16266 16.2293 4.88 21.52 4.88C23.5253 4.88 25.168 5.47733 26.448 6.672C27.728 7.824 28.368 9.296 28.368 11.088C28.368 12.88 27.92 14.544 27.024 16.08C26.128 17.616 25.04 18.384 23.76 18.384C22.5227 18.384 21.904 18.0427 21.904 17.36C21.904 16.592 22.3093 15.7173 23.12 14.736C23.9733 13.7547 24.4 12.7733 24.4 11.792C24.4 8.76266 22.7787 7.248 19.536 7.248C16.336 7.248 13.4347 9.40266 10.832 13.712C8.22933 18.0213 6.928 22.4587 6.928 27.024C6.928 30.1813 7.824 32.9973 9.616 35.472C11.408 37.904 13.9253 39.12 17.168 39.12C21.008 39.12 24.6987 36.56 28.24 31.44Z"/>
<path d="M48.535 40.336C50.839 40.336 52.8657 39.5253 54.615 37.904C56.407 36.2827 57.303 34.4267 57.303 32.336C57.303 30.2027 56.6417 28.24 55.319 26.448C53.8683 27.1733 52.439 27.536 51.031 27.536C47.7457 27.536 46.103 26.512 46.103 24.464C46.103 23.8667 46.5083 23.3333 47.319 22.864C48.1297 22.352 49.2817 22.096 50.775 22.096C52.311 22.096 53.975 22.544 55.767 23.44C57.4737 21.6053 58.327 19.536 58.327 17.232C58.327 14.3733 57.0683 12.112 54.551 10.448C52.0763 8.74133 49.4097 7.888 46.551 7.888C45.9537 7.888 45.5057 7.90933 45.207 7.952C45.1643 9.18933 45.0577 11.1733 44.887 13.904C44.631 18 44.503 24.2507 44.503 32.656C44.503 35.8987 44.2683 37.52 43.799 37.52C41.9643 37.52 40.791 37.264 40.279 36.752C39.767 36.24 39.511 34.768 39.511 32.336C39.511 31.7387 39.6177 29.2853 39.831 24.976C40.087 20.6667 40.215 17.1893 40.215 14.544C40.215 11.8987 40.3003 9.95733 40.471 8.72C38.2097 9.488 36.9937 10.7253 36.823 12.432C36.6523 13.84 36.3323 14.8213 35.863 15.376C35.4363 15.9307 34.839 16.208 34.071 16.208C33.3457 16.208 32.855 16.016 32.599 15.632C32.343 15.2053 32.215 14.7787 32.215 14.352C32.215 10.64 35.095 8.08 40.855 6.672C41.5803 3.77067 42.7323 2.32 44.311 2.32C44.951 2.32 45.271 3.51467 45.271 5.904C46.3803 5.776 47.7457 5.712 49.367 5.712C51.031 5.712 52.9297 6.032 55.063 6.672C57.1963 7.26933 59.0523 8.35733 60.631 9.936C62.2097 11.472 62.999 13.2 62.999 15.12C62.999 18.704 61.271 21.9253 57.815 24.784C60.2043 26.6613 61.399 28.9013 61.399 31.504C61.399 34.1067 60.5883 36.2613 58.967 37.968C55.9377 41.0827 51.8843 42.64 46.807 42.64C43.351 42.64 40.8763 42.4053 39.383 41.936C39.0843 41.8507 38.7643 41.6373 38.423 41.296C38.1243 40.912 37.975 40.4427 37.975 39.888C37.975 38.992 38.8497 38.544 40.599 38.544C41.1537 38.544 42.3697 38.8427 44.247 39.44C46.1243 40.0373 47.5537 40.336 48.535 40.336ZM53.975 25.04C52.695 23.9733 51.479 23.44 50.327 23.44C49.2177 23.44 48.663 23.6747 48.663 24.144C48.663 25.1253 49.7083 25.616 51.799 25.616C52.567 25.616 53.2923 25.424 53.975 25.04Z"/>
</mask>
<path d="M28.24 31.44C28.5387 31.0133 28.9653 30.2667 29.52 29.2C30.8853 26.768 31.696 25.552 31.952 25.552C32.2507 25.552 32.4 25.7227 32.4 26.064C32.4 28.1547 31.312 30.8 29.136 34C25.2107 39.76 19.984 42.64 13.456 42.64C11.6213 42.64 9.936 42.2133 8.4 41.36C6.864 40.5067 5.648 39.4187 4.752 38.096C2.91733 35.408 2 32.592 2 29.648C2 22.224 3.92 16.2507 7.76 11.728C11.6427 7.16266 16.2293 4.88 21.52 4.88C23.5253 4.88 25.168 5.47733 26.448 6.672C27.728 7.824 28.368 9.296 28.368 11.088C28.368 12.88 27.92 14.544 27.024 16.08C26.128 17.616 25.04 18.384 23.76 18.384C22.5227 18.384 21.904 18.0427 21.904 17.36C21.904 16.592 22.3093 15.7173 23.12 14.736C23.9733 13.7547 24.4 12.7733 24.4 11.792C24.4 8.76266 22.7787 7.248 19.536 7.248C16.336 7.248 13.4347 9.40266 10.832 13.712C8.22933 18.0213 6.928 22.4587 6.928 27.024C6.928 30.1813 7.824 32.9973 9.616 35.472C11.408 37.904 13.9253 39.12 17.168 39.12C21.008 39.12 24.6987 36.56 28.24 31.44Z" fill="url(#paint0_linear)"/>
<path d="M48.535 40.336C50.839 40.336 52.8657 39.5253 54.615 37.904C56.407 36.2827 57.303 34.4267 57.303 32.336C57.303 30.2027 56.6417 28.24 55.319 26.448C53.8683 27.1733 52.439 27.536 51.031 27.536C47.7457 27.536 46.103 26.512 46.103 24.464C46.103 23.8667 46.5083 23.3333 47.319 22.864C48.1297 22.352 49.2817 22.096 50.775 22.096C52.311 22.096 53.975 22.544 55.767 23.44C57.4737 21.6053 58.327 19.536 58.327 17.232C58.327 14.3733 57.0683 12.112 54.551 10.448C52.0763 8.74133 49.4097 7.888 46.551 7.888C45.9537 7.888 45.5057 7.90933 45.207 7.952C45.1643 9.18933 45.0577 11.1733 44.887 13.904C44.631 18 44.503 24.2507 44.503 32.656C44.503 35.8987 44.2683 37.52 43.799 37.52C41.9643 37.52 40.791 37.264 40.279 36.752C39.767 36.24 39.511 34.768 39.511 32.336C39.511 31.7387 39.6177 29.2853 39.831 24.976C40.087 20.6667 40.215 17.1893 40.215 14.544C40.215 11.8987 40.3003 9.95733 40.471 8.72C38.2097 9.488 36.9937 10.7253 36.823 12.432C36.6523 13.84 36.3323 14.8213 35.863 15.376C35.4363 15.9307 34.839 16.208 34.071 16.208C33.3457 16.208 32.855 16.016 32.599 15.632C32.343 15.2053 32.215 14.7787 32.215 14.352C32.215 10.64 35.095 8.08 40.855 6.672C41.5803 3.77067 42.7323 2.32 44.311 2.32C44.951 2.32 45.271 3.51467 45.271 5.904C46.3803 5.776 47.7457 5.712 49.367 5.712C51.031 5.712 52.9297 6.032 55.063 6.672C57.1963 7.26933 59.0523 8.35733 60.631 9.936C62.2097 11.472 62.999 13.2 62.999 15.12C62.999 18.704 61.271 21.9253 57.815 24.784C60.2043 26.6613 61.399 28.9013 61.399 31.504C61.399 34.1067 60.5883 36.2613 58.967 37.968C55.9377 41.0827 51.8843 42.64 46.807 42.64C43.351 42.64 40.8763 42.4053 39.383 41.936C39.0843 41.8507 38.7643 41.6373 38.423 41.296C38.1243 40.912 37.975 40.4427 37.975 39.888C37.975 38.992 38.8497 38.544 40.599 38.544C41.1537 38.544 42.3697 38.8427 44.247 39.44C46.1243 40.0373 47.5537 40.336 48.535 40.336ZM53.975 25.04C52.695 23.9733 51.479 23.44 50.327 23.44C49.2177 23.44 48.663 23.6747 48.663 24.144C48.663 25.1253 49.7083 25.616 51.799 25.616C52.567 25.616 53.2923 25.424 53.975 25.04Z" fill="url(#paint1_linear)"/>
<path d="M28.24 31.44C28.5387 31.0133 28.9653 30.2667 29.52 29.2C30.8853 26.768 31.696 25.552 31.952 25.552C32.2507 25.552 32.4 25.7227 32.4 26.064C32.4 28.1547 31.312 30.8 29.136 34C25.2107 39.76 19.984 42.64 13.456 42.64C11.6213 42.64 9.936 42.2133 8.4 41.36C6.864 40.5067 5.648 39.4187 4.752 38.096C2.91733 35.408 2 32.592 2 29.648C2 22.224 3.92 16.2507 7.76 11.728C11.6427 7.16266 16.2293 4.88 21.52 4.88C23.5253 4.88 25.168 5.47733 26.448 6.672C27.728 7.824 28.368 9.296 28.368 11.088C28.368 12.88 27.92 14.544 27.024 16.08C26.128 17.616 25.04 18.384 23.76 18.384C22.5227 18.384 21.904 18.0427 21.904 17.36C21.904 16.592 22.3093 15.7173 23.12 14.736C23.9733 13.7547 24.4 12.7733 24.4 11.792C24.4 8.76266 22.7787 7.248 19.536 7.248C16.336 7.248 13.4347 9.40266 10.832 13.712C8.22933 18.0213 6.928 22.4587 6.928 27.024C6.928 30.1813 7.824 32.9973 9.616 35.472C11.408 37.904 13.9253 39.12 17.168 39.12C21.008 39.12 24.6987 36.56 28.24 31.44Z" stroke="#1C1C1C" stroke-width="4" mask="url(#path-1-outside-1)"/>
<path d="M48.535 40.336C50.839 40.336 52.8657 39.5253 54.615 37.904C56.407 36.2827 57.303 34.4267 57.303 32.336C57.303 30.2027 56.6417 28.24 55.319 26.448C53.8683 27.1733 52.439 27.536 51.031 27.536C47.7457 27.536 46.103 26.512 46.103 24.464C46.103 23.8667 46.5083 23.3333 47.319 22.864C48.1297 22.352 49.2817 22.096 50.775 22.096C52.311 22.096 53.975 22.544 55.767 23.44C57.4737 21.6053 58.327 19.536 58.327 17.232C58.327 14.3733 57.0683 12.112 54.551 10.448C52.0763 8.74133 49.4097 7.888 46.551 7.888C45.9537 7.888 45.5057 7.90933 45.207 7.952C45.1643 9.18933 45.0577 11.1733 44.887 13.904C44.631 18 44.503 24.2507 44.503 32.656C44.503 35.8987 44.2683 37.52 43.799 37.52C41.9643 37.52 40.791 37.264 40.279 36.752C39.767 36.24 39.511 34.768 39.511 32.336C39.511 31.7387 39.6177 29.2853 39.831 24.976C40.087 20.6667 40.215 17.1893 40.215 14.544C40.215 11.8987 40.3003 9.95733 40.471 8.72C38.2097 9.488 36.9937 10.7253 36.823 12.432C36.6523 13.84 36.3323 14.8213 35.863 15.376C35.4363 15.9307 34.839 16.208 34.071 16.208C33.3457 16.208 32.855 16.016 32.599 15.632C32.343 15.2053 32.215 14.7787 32.215 14.352C32.215 10.64 35.095 8.08 40.855 6.672C41.5803 3.77067 42.7323 2.32 44.311 2.32C44.951 2.32 45.271 3.51467 45.271 5.904C46.3803 5.776 47.7457 5.712 49.367 5.712C51.031 5.712 52.9297 6.032 55.063 6.672C57.1963 7.26933 59.0523 8.35733 60.631 9.936C62.2097 11.472 62.999 13.2 62.999 15.12C62.999 18.704 61.271 21.9253 57.815 24.784C60.2043 26.6613 61.399 28.9013 61.399 31.504C61.399 34.1067 60.5883 36.2613 58.967 37.968C55.9377 41.0827 51.8843 42.64 46.807 42.64C43.351 42.64 40.8763 42.4053 39.383 41.936C39.0843 41.8507 38.7643 41.6373 38.423 41.296C38.1243 40.912 37.975 40.4427 37.975 39.888C37.975 38.992 38.8497 38.544 40.599 38.544C41.1537 38.544 42.3697 38.8427 44.247 39.44C46.1243 40.0373 47.5537 40.336 48.535 40.336ZM53.975 25.04C52.695 23.9733 51.479 23.44 50.327 23.44C49.2177 23.44 48.663 23.6747 48.663 24.144C48.663 25.1253 49.7083 25.616 51.799 25.616C52.567 25.616 53.2923 25.424 53.975 25.04Z" stroke="#1C1C1C" stroke-width="4" mask="url(#path-1-outside-1)"/>
<defs>
<linearGradient id="paint0_linear" x1="62.999" y1="22.1961" x2="2" y2="22.1961" gradientUnits="userSpaceOnUse">
<stop stop-color="#EE2F69"/>
<stop offset="0.502101" stop-color="#FCD9E3"/>
<stop offset="1" stop-color="#EE2F69"/>
</linearGradient>
<linearGradient id="paint1_linear" x1="62.999" y1="22.1961" x2="2" y2="22.1961" gradientUnits="userSpaceOnUse">
<stop stop-color="#EE2F69"/>
<stop offset="0.502101" stop-color="#FCD9E3"/>
<stop offset="1" stop-color="#EE2F69"/>
</linearGradient>
</defs>
</svg>
